<svg width="25" height="25" viewBox="0 0 25 25" fill="none" xmlns="http://www.w3.org/2000/svg">
<g clip-path="url(#clip0)">
<path d="M12.4999 24.0376C18.8717 24.0376 24.0371 18.8722 24.0371 12.5004C24.0371 6.12853 18.8717 0.963135 12.4999 0.963135C6.12801 0.963135 0.962616 6.12853 0.962616 12.5004C0.962616 18.8722 6.12801 24.0376 12.4999 24.0376Z" fill="#DF4934"/>
<path d="M12.5 25.0002C9.29746 25.0002 6.0949 23.7815 3.65667 21.3442C-1.21886 16.4687 -1.21886 8.53402 3.65667 3.6575C8.53221 -1.21705 16.4679 -1.21803 21.3434 3.6575C26.2189 8.53402 26.2189 16.4677 21.3434 21.3442C18.9051 23.7815 15.7016 25.0002 12.5 25.0002ZM5.02643 5.02726C0.906521 9.14814 0.906521 15.8536 5.02643 19.9745C9.14828 24.0944 15.8537 24.0954 19.9736 19.9745C24.0936 15.8536 24.0935 9.14814 19.9736 5.02726C15.8517 0.907354 9.14731 0.907354 5.02643 5.02726Z" fill="#DF4934"/>
<path d="M9.13721 16.8301C8.8892 16.8301 8.64125 16.7352 8.45233 16.5463C8.07356 16.1675 8.07356 15.5553 8.45233 15.1765L15.3011 8.32778C15.6799 7.94901 16.2921 7.94901 16.6709 8.32778C17.0496 8.70654 17.0496 9.31876 16.6709 9.69753L9.82208 16.5463C9.63219 16.7352 9.38516 16.8301 9.13721 16.8301Z" fill="white"/>
<path d="M15.9844 16.8301C15.7364 16.8301 15.4885 16.7352 15.2996 16.5463L8.4508 9.69753C8.07203 9.31876 8.07203 8.70654 8.4508 8.32778C8.82957 7.94901 9.44179 7.94901 9.82055 8.32778L16.6693 15.1765C17.0481 15.5553 17.0481 16.1675 16.6693 16.5463C16.4805 16.7352 16.2324 16.8301 15.9844 16.8301Z" fill="white"/>
</g>
<defs>
<clipPath id="clip0">
<rect width="25" height="25" fill="white"/>
</clipPath>
</defs>
</svg>
