<svg width="200" height="200" viewBox="0 0 200 200" fill="none" xmlns="http://www.w3.org/2000/svg">
<path d="M150 83.3332H50C38.5082 83.3332 29.1667 92.6832 29.1667 104.166V179.166C29.1667 190.65 38.5082 200 50 200H150C161.492 200 170.833 190.65 170.833 179.167V104.167C170.833 92.6832 161.492 83.3332 150 83.3332ZM162.5 179.167C162.5 186.059 156.892 191.667 150 191.667H50C43.1082 191.667 37.5 186.059 37.5 179.167V104.167C37.5 97.275 43.1082 91.6668 50 91.6668H150C156.892 91.6668 162.5 97.275 162.5 104.167V179.167Z" fill="black"/>
<path d="M100 0C70.1333 0 45.8333 24.3 45.8333 54.1668V87.5C45.8333 89.8 47.7 91.6668 50 91.6668H150C152.3 91.6668 154.167 89.8 154.167 87.5V54.1668C154.167 24.3 129.867 0 100 0ZM145.833 83.3332H54.1668V54.1664C54.1668 28.8914 74.7336 8.3332 100 8.3332C125.266 8.3332 145.833 28.8914 145.833 54.1664V83.3332V83.3332Z" fill="black"/>
<path d="M99.9999 141.667C97.6999 141.667 95.8331 143.534 95.8331 145.834V170.834C95.8331 173.134 97.6999 175 99.9999 175C102.3 175 104.167 173.134 104.167 170.834V145.834C104.167 143.533 102.3 141.667 99.9999 141.667Z" fill="black"/>
<path d="M100 108.333C88.5083 108.333 79.1669 117.683 79.1669 129.166C79.1669 140.65 88.5083 150 100 150C111.492 150 120.833 140.65 120.833 129.167C120.833 117.684 111.492 108.333 100 108.333ZM100 141.667C93.1083 141.667 87.5001 136.059 87.5001 129.167C87.5001 122.275 93.1083 116.667 100 116.667C106.892 116.667 112.5 122.275 112.5 129.167C112.5 136.058 106.892 141.667 100 141.667Z" fill="black"/>
</svg>
