<?xml version="1.0" encoding="utf-8"?>
<!-- Generator: Adobe Illustrator 21.0.0, SVG Export Plug-In . SVG Version: 6.00 Build 0)  -->
<svg version="1.1" id="Layer_1" xmlns="http://www.w3.org/2000/svg" xmlns:xlink="http://www.w3.org/1999/xlink" x="0px" y="0px"
	 viewBox="0 0 139.3 48.3" style="enable-background:new 0 0 139.3 48.3;" xml:space="preserve">
<style type="text/css">
	.st0{fill:url(#Path_19_1_);}
	.st1{fill:url(#Path_20_1_);}
	.st2{fill:url(#Ellipse_1_1_);}
</style>
<g id="Group_138" transform="translate(-50.201 -14.683)">
	<g id="Group_1" transform="translate(50.201 14.683)">
		<g id="Group_17" transform="translate(0 16.478)">
			<g id="Group_16">
				<g id="Group_15">
					<g id="Group_13" transform="translate(22.477)">
						
							<linearGradient id="Path_19_1_" gradientUnits="userSpaceOnUse" x1="-27.7166" y1="112.3227" x2="-26.2356" y2="112.7297" gradientTransform="matrix(9.116 0 0 -31.785 221.1323 3620.6521)">
							<stop  offset="0" style="stop-color:#71EFB5"/>
							<stop  offset="1" style="stop-color:#3782B0"/>
						</linearGradient>
						<path id="Path_19" class="st0" d="M0,31.8V9.1C0,4.1,4.1,0,9.1,0c0,0,0,0,0,0v22.7C9.1,27.7,5,31.8,0,31.8
							C0,31.8,0,31.8,0,31.8z"/>
					</g>
					<g id="Group_14" transform="translate(0 10.415)">
						
							<linearGradient id="Path_20_1_" gradientUnits="userSpaceOnUse" x1="-2.7286" y1="103.5382" x2="-2.2346" y2="102.8472" gradientTransform="matrix(28.923 0 0 -21.3698 55.846 2184.4839)">
							<stop  offset="0" style="stop-color:#C928F6"/>
							<stop  offset="1" style="stop-color:#5D00A4"/>
						</linearGradient>
						<path id="Path_20" class="st1" d="M0,2.7c1.2-1.2,2.6-2,4.3-2.4c0.1,0,0.2,0,0.3-0.1C5.3,0,6,0,6.7,0c0.4,0,0.8,0,1.2,0.1
							c1.9,0.3,3.6,1.2,5,2.6l0.8,0.8l10.7,10.7l1,1l0.1,0.1l1.7,1.7l0.8,0.8l0.7,0.7c-0.5,0.5-1,0.9-1.5,1.2
							c-1.2,0.8-2.5,1.2-4,1.4c-0.3,0-0.7,0.1-1.1,0.1c-2.4,0-4.7-1-6.4-2.7l-5.4-5.4l-1.5-1.5L0,2.7z"/>
					</g>
				</g>
			</g>
		</g>
		
			<linearGradient id="Ellipse_1_1_" gradientUnits="userSpaceOnUse" x1="-1.5104" y1="125.5916" x2="-1.0944" y2="126.5266" gradientTransform="matrix(12.708 0 0 -12.708 42.334 1607.1641)">
			<stop  offset="0" style="stop-color:#F1AF40"/>
			<stop  offset="0.617" style="stop-color:#EF4762"/>
		</linearGradient>
		<circle id="Ellipse_1" class="st2" cx="25.3" cy="6.4" r="6.4"/>
	</g>
	<g id="logo" transform="translate(88.13 24.881)">
		<path id="Path_120" d="M0.3,14.6H3l3.6,7.2l3.5-7.2h2.8l-6.3,13L0.3,14.6z M15.4,7.8H18v19.3h-2.6V7.8z M21.5,27.1V14.6H24v2.1
			c0.6-0.7,1.3-1.3,2.1-1.8c0.6-0.4,1.3-0.6,2.1-0.6c1.1,0,2.1,0.4,2.9,1.1c0.8,0.7,1.2,1.7,1.2,2.7v9h-2.6v-8.3
			c0-0.6-0.2-1.2-0.7-1.7c-0.4-0.4-1-0.7-1.7-0.7c-0.9,0-1.7,0.4-2.3,1.1c-0.6,0.7-1,1.7-1,2.7v6.8H21.5z M34.2,14.6H37l3.6,7.2
			l3.5-7.2h2.8l-6.3,13L34.2,14.6z M61.6,21.4H50.9c0.1,1.1,0.7,2.1,1.6,2.8c0.8,0.6,1.7,0.9,2.7,0.9c1.5,0,2.9-0.7,3.8-1.9l1.9,1.5
			c-1.4,1.8-3.5,2.9-5.8,2.8c-1.8,0-3.4-0.6-4.7-1.9c-1.2-1.3-1.9-3-1.9-4.7c0-1.7,0.7-3.4,1.9-4.6c1.2-1.3,2.9-2,4.6-1.9
			c1.7,0,3.4,0.7,4.6,2C61,17.6,61.7,19.5,61.6,21.4z M51.2,19.3h7.6c-0.6-1.5-2.1-2.6-3.8-2.6C53.4,16.6,51.8,17.7,51.2,19.3z
			 M64.1,27.1V14.6h2.6v2.1c0.6-0.7,1.3-1.3,2.1-1.8c0.6-0.4,1.3-0.6,2.1-0.6c1.1,0,2.1,0.4,2.9,1.1c0.8,0.7,1.2,1.7,1.2,2.7v9h-2.6
			v-8.3c0-0.6-0.2-1.2-0.7-1.7c-0.4-0.4-1-0.7-1.7-0.7c-0.9,0-1.7,0.4-2.3,1.1c-0.6,0.7-1,1.7-1,2.7v6.8H64.1z M79,11h2.6v3.6h2.6
			V17h-2.6v10.1H79V17H77v-2.4H79V11z M97.1,14.6h2.6v12.5h-2.6v-2.5c-1,1.7-2.8,2.8-4.8,2.8c-1.6,0-3.2-0.7-4.2-1.9
			c-1.2-1.3-1.8-3-1.7-4.7c0-1.7,0.6-3.3,1.8-4.6c1-1.2,2.5-2,4.1-2c1,0,1.9,0.3,2.8,0.8c0.9,0.5,1.6,1.2,2,2.1L97.1,14.6z
			 M97.5,20.9c0-1.1-0.4-2.2-1.2-2.9c-0.8-0.8-1.8-1.2-2.9-1.2c-1.1,0-2.1,0.4-2.9,1.2c-0.8,0.7-1.2,1.8-1.2,2.8
			c0,1.1,0.4,2.2,1.2,3c0.8,0.8,1.8,1.3,2.9,1.2c1.1,0,2.2-0.4,2.9-1.2C97,23.1,97.5,22,97.5,20.9z"/>
	</g>
</g>
</svg>
