<svg width="25" height="25" viewBox="0 0 25 25" fill="none" xmlns="http://www.w3.org/2000/svg">
<path d="M12.5 24.0317C18.8688 24.0317 24.0317 18.8688 24.0317 12.5C24.0317 6.1312 18.8688 0.968262 12.5 0.968262C6.13119 0.968262 0.968254 6.1312 0.968254 12.5C0.968254 18.8688 6.13119 24.0317 12.5 24.0317Z" fill="#3C3B46"/>
<path d="M12.5 25C5.60806 25 0 19.3929 0 12.5C0 5.60806 5.60806 0 12.5 0C19.3929 0 25 5.60806 25 12.5C25 19.3929 19.3929 25 12.5 25ZM12.5 1.93647C6.67505 1.93647 1.93647 6.67505 1.93647 12.5C1.93647 18.325 6.67505 23.0635 12.5 23.0635C18.325 23.0635 23.0635 18.324 23.0635 12.5C23.0635 6.67505 18.325 1.93647 12.5 1.93647Z" fill="#3C3B46"/>
<path d="M17.3412 13.3723H7.65879C7.12432 13.3723 6.69053 12.9385 6.69053 12.4041C6.69053 11.8696 7.12432 11.4358 7.65879 11.4358H17.3412C17.8767 11.4358 18.3095 11.8696 18.3095 12.4041C18.3095 12.9385 17.8767 13.3723 17.3412 13.3723Z" fill="white"/>
</svg>
