<svg width="220" height="138" viewBox="0 0 220 138" fill="none" xmlns="http://www.w3.org/2000/svg">
<path d="M68.3343 93.6051C65.4122 93.6051 63.0342 91.2148 63.0342 88.2776C63.0342 85.3404 65.4122 82.9502 68.3343 82.9502C71.2564 82.9502 73.6344 85.3404 73.6344 88.2776C73.6344 91.2148 71.2564 93.6051 68.3343 93.6051Z" fill="#F0BC5E"/>
<path d="M68.4083 105.375L69.5955 93.4346C69.1891 93.5358 68.7704 93.605 68.3341 93.605C67.5249 93.605 66.767 93.4079 66.0798 93.0794L65.1805 102.129L61.1153 98.0446L66.0639 93.0705C64.9703 92.5449 64.0887 91.6588 63.5657 90.5595L58.6172 95.5336L54.552 91.4474L63.5551 90.5418C63.2301 89.8528 63.034 89.0909 63.034 88.2776C63.034 87.839 63.1029 87.4181 63.2036 87.0079L51.3242 88.2012L48.9003 85.7666L43.6002 91.094L40.0668 87.5424L38.8178 88.7979C35.067 92.5697 33 97.5829 33 102.916V103.83C33 108.041 34.3109 111.946 36.5334 115.169V138H64.8007V133.351L54.2004 128.024V123.773C59.3451 123.662 64.1682 121.615 67.8164 117.946L69.0655 116.691L65.5321 113.139L70.8322 107.812L68.4083 105.375ZM50.667 127.346H40.0668V119.076C42.9995 121.565 46.6531 123.219 50.667 123.664V127.346ZM59.0836 134.449H40.0668V130.897H52.0168L59.0836 134.449ZM53.7729 120.242H52.8613C43.8582 120.242 36.5334 112.88 36.5334 103.828V102.914C36.5334 99.1278 37.8001 95.5371 40.1322 92.6301L64.0021 116.623C61.1118 118.969 57.5395 120.242 53.7729 120.242ZM63.034 110.628L46.0983 93.605L48.9003 90.7886L65.8359 107.812L63.034 110.628Z" fill="#183651"/>
<path d="M143.82 48.7971L139.725 40.6517L155.172 28.3945L159.267 36.5399L143.82 48.7971Z" fill="#F05F50"/>
<path d="M161.506 45.7701L163.12 44.6801C165.141 43.3164 166.512 41.2414 166.98 38.8394C167.285 37.2782 167.177 35.6998 166.696 34.2287L172.492 30.3141L170.025 26.6234L176.988 21.9201L175.244 19.3108L168.28 24.0141L165.813 20.3234L160.01 24.243C158.83 23.2397 157.406 22.5328 155.878 22.2313C153.523 21.767 151.031 22.2719 149.039 23.6173L147.425 24.7073L135.089 6.25381L121.478 15.4471L133.814 33.9006L130.142 36.3806L133.304 41.1102L123.493 42.3795L136.186 61.3647L141.061 52.7137L144.223 57.4433L147.895 54.9634L160.231 73.4168L173.842 64.2235L161.506 45.7701ZM169.502 63.3675L166.59 65.3342L162.166 58.7168L165.078 56.7501L169.502 63.3675ZM163.334 54.1408L160.422 56.1074L155.998 49.49L158.91 47.5234L163.334 54.1408ZM168.152 29.4581L165.24 31.4247L162.05 26.6527L164.962 24.686L168.152 29.4581ZM141.918 28.4272L137.494 21.8098L140.405 19.8432L144.829 26.4606L141.918 28.4272ZM138.661 17.2339L135.749 19.2005L131.326 12.5831L134.237 10.6165L138.661 17.2339ZM128.73 14.3365L133.153 20.9539L130.242 22.9205L125.818 16.3031L128.73 14.3365ZM131.986 25.5298L134.898 23.5632L139.322 30.1806L136.41 32.1472L131.986 25.5298ZM135.958 55.3889L128.913 44.8486L135.256 44.028L139.112 49.7965L135.958 55.3889ZM134.483 37.2365L150.783 26.2266C152.092 25.3441 153.728 25.0116 155.275 25.3166C156.822 25.6217 158.213 26.5511 159.092 27.8653L163.006 33.7188C163.897 35.053 164.219 36.6575 163.911 38.2341C163.603 39.8107 162.703 41.1743 161.375 42.0708L145.074 53.0807L134.483 37.2365ZM153.402 51.2434L157.826 57.8608L154.914 59.8274L150.491 53.21L153.402 51.2434ZM156.659 62.4367L159.57 60.4701L163.994 67.0875L161.083 69.0542L156.659 62.4367Z" fill="#183651"/>
<path d="M77.2002 73.6432C77.0055 74.4484 77.5005 75.259 78.3057 75.4537L91.4277 78.6258C92.233 78.8205 93.0435 78.3255 93.2382 77.5203C93.4329 76.7151 92.9379 75.9045 92.1327 75.7098L80.4686 72.8901L83.2884 61.2261C83.483 60.4209 82.988 59.6103 82.1828 59.4156C81.3776 59.221 80.567 59.716 80.3723 60.5212L77.2002 73.6432ZM112.015 51.8692L77.8765 72.7155L79.4399 75.2759L113.578 54.4296L112.015 51.8692Z" fill="#183651"/>
<path d="M126.249 68.3571C126.434 67.5496 125.929 66.745 125.122 66.5599L111.963 63.5439C111.156 63.3588 110.351 63.8634 110.166 64.6709C109.981 65.4783 110.485 66.283 111.293 66.468L122.99 69.1489L120.309 80.8456C120.124 81.6531 120.628 82.4578 121.436 82.6428C122.243 82.8279 123.048 82.3234 123.233 81.5159L126.249 68.3571ZM91.6942 90.544L125.584 69.2928L123.99 66.7512L90.1004 88.0024L91.6942 90.544Z" fill="#183651"/>
</svg>
