<?xml version="1.0" encoding="utf-8"?>
<!-- Generator: Adobe Illustrator 21.0.0, SVG Export Plug-In . SVG Version: 6.00 Build 0)  -->
<svg version="1.1" id="Layer_1" xmlns="http://www.w3.org/2000/svg" xmlns:xlink="http://www.w3.org/1999/xlink" x="0px" y="0px"
	 width="26px" height="26px" viewBox="0 0 26 26" style="enable-background:new 0 0 26 26;" xml:space="preserve">
<style type="text/css">
	.st0{fill:#E5E5E5;}
	.st1{fill:#BBBBBB;}
	.st2{fill:#9A9A9A;}
</style>
<g>
	<path class="st0" d="M19.7,7.6v8.7H2.9V7.6c0-0.7,0.6-1.3,1.3-1.3h14.1C19.1,6.3,19.7,6.9,19.7,7.6z"/>
	<path class="st1" d="M19.7,16.4v1.3c0,0.7-0.6,1.3-1.3,1.3H4.3c-0.7,0-1.3-0.6-1.3-1.3v-1.3H19.7z"/>
	<path class="st1" d="M15.3,22.1v0.7c0,0.2-0.2,0.3-0.3,0.3H7.6c-0.2,0-0.3-0.2-0.3-0.3v-0.7c0-0.2,0.2-0.3,0.3-0.3H15
		C15.2,21.7,15.3,21.9,15.3,22.1z"/>
	<path class="st1" d="M14,21.7H8.6L9,19.1h4.7L14,21.7z"/>
	<path class="st2" d="M6.4,7.4l-1,1c-0.1,0.1-0.1,0.3,0,0.5l1,1l0.5-0.5L6.1,8.6l0.8-0.8L6.4,7.4z"/>
	<path class="st2" d="M7.3,9.9l1-2.7l0.6,0.2l-1,2.7L7.3,9.9z"/>
	<path class="st2" d="M9.9,9.9l1-1c0.1-0.1,0.1-0.3,0-0.5l-1-1L9.4,7.9l0.8,0.8L9.4,9.4L9.9,9.9z"/>
	<path class="st2" d="M5.3,11.3h1.3V12H5.3V11.3z"/>
	<path class="st2" d="M7.3,11.3h3.4V12H7.3V11.3z"/>
	<path class="st2" d="M5.9,12.7h1.3v0.7H5.9V12.7z"/>
	<path class="st2" d="M7.9,12.7h3.4v0.7H7.9V12.7z"/>
	<path class="st2" d="M12,12.7h0.7v0.7H12V12.7z"/>
	<path class="st2" d="M5.9,14h1.3v0.7H5.9V14z"/>
	<path class="st2" d="M7.9,14h3.4v0.7H7.9V14z"/>
	<path class="st2" d="M12,14h0.7v0.7H12V14z"/>
	<g>
		<path class="st1" d="M21.7,9.3c-0.1,0.4-0.2,0.7-0.4,1.1l0.8,1.1l-1.2,1.2l-1.1-0.8c0,0,0,0,0,0c-0.3,0.2-0.7,0.3-1,0.4l-0.2,1.4
			h-1.6l-0.2-1.4c-0.4-0.1-0.7-0.2-1.1-0.4l-1.1,0.8l-1.2-1.2l0.8-1.1c-0.2-0.3-0.4-0.7-0.4-1.1l-1.4-0.2V7.5l1.4-0.2
			c0.1-0.4,0.2-0.7,0.4-1c0,0,0,0,0,0l-0.8-1.1L14.5,4l1.1,0.8c0.3-0.2,0.7-0.4,1.1-0.4L16.9,3h1.6l0.2,1.4c0.4,0.1,0.7,0.2,1.1,0.4
			L20.9,4L22,5.1l-0.8,1.1c0.2,0.3,0.4,0.7,0.4,1.1L23,7.5v1.6L21.7,9.3z"/>
		<circle class="st0" cx="17.7" cy="8.3" r="2"/>
		<path class="st2" d="M23.1,7.1L22,6.9c-0.1-0.2-0.2-0.5-0.3-0.7l0.7-0.9c0.1-0.2,0.1-0.4,0-0.5l-1.2-1.2c-0.1-0.1-0.4-0.2-0.5,0
			l-0.9,0.7c-0.2-0.1-0.4-0.2-0.7-0.3l-0.2-1.1c0-0.2-0.2-0.4-0.4-0.4h-1.6c-0.2,0-0.4,0.1-0.4,0.4L16.3,4c-0.2,0.1-0.5,0.2-0.7,0.3
			l-0.9-0.7c-0.2-0.1-0.4-0.1-0.5,0l-1.2,1.2c-0.1,0.1-0.2,0.4,0,0.5l0.7,0.9c-0.1,0.2-0.2,0.4-0.3,0.7l-1.1,0.2
			c-0.2,0-0.4,0.2-0.4,0.4v1.6c0,0.2,0.1,0.4,0.4,0.4l1.1,0.2c0.1,0.2,0.2,0.5,0.3,0.7L13,11.3c-0.1,0.2-0.1,0.4,0,0.5l1.2,1.2
			c0.1,0.1,0.4,0.2,0.5,0l0.9-0.7c0.2,0.1,0.4,0.2,0.7,0.3l0.2,1.1c0,0.2,0.2,0.4,0.4,0.4h1.6c0.2,0,0.4-0.1,0.4-0.4l0.2-1.1
			c0.2-0.1,0.5-0.2,0.7-0.3l0.9,0.7c0.2,0.1,0.4,0.1,0.5,0l1.2-1.2c0.1-0.1,0.2-0.4,0-0.5l-0.7-0.9c0.1-0.2,0.2-0.4,0.3-0.7l1.1-0.2
			c0.2,0,0.4-0.2,0.4-0.4V7.5C23.4,7.3,23.3,7.1,23.1,7.1L23.1,7.1z M22.6,8.8l-1,0.1c-0.2,0-0.3,0.1-0.3,0.3
			c-0.1,0.3-0.2,0.7-0.4,1c-0.1,0.1-0.1,0.3,0,0.5l0.6,0.8l-0.7,0.7L20,11.5c-0.1-0.1-0.3-0.1-0.5,0c-0.3,0.2-0.6,0.3-1,0.4
			c-0.2,0-0.3,0.2-0.3,0.3l-0.1,1h-0.9l-0.1-1c0-0.2-0.1-0.3-0.3-0.3c-0.3-0.1-0.7-0.2-1-0.4c-0.1-0.1-0.3-0.1-0.5,0l-0.8,0.6
			l-0.7-0.7l0.6-0.8c0.1-0.1,0.1-0.3,0-0.5c-0.2-0.3-0.3-0.6-0.4-1c0-0.2-0.2-0.3-0.3-0.3l-1-0.1V7.8l1-0.1c0.2,0,0.3-0.1,0.3-0.3
			c0.1-0.3,0.2-0.7,0.4-1c0.1-0.1,0.1-0.3,0-0.5l-0.6-0.8l0.7-0.7l0.8,0.6c0.1,0.1,0.3,0.1,0.5,0c0.3-0.2,0.6-0.3,1-0.4
			c0.2,0,0.3-0.2,0.3-0.3l0.1-1h0.9l0.1,1c0,0.2,0.1,0.3,0.3,0.3c0.3,0.1,0.7,0.2,1,0.4c0.1,0.1,0.3,0.1,0.5,0l0.8-0.6l0.7,0.7
			L20.9,6c-0.1,0.1-0.1,0.3,0,0.5c0.2,0.3,0.3,0.6,0.4,1c0,0.2,0.2,0.3,0.3,0.3l1,0.1V8.8z"/>
		<path class="st2" d="M17.7,5.9c-1.4,0-2.5,1.1-2.5,2.5s1.1,2.5,2.5,2.5c1.4,0,2.5-1.1,2.5-2.5C20.1,7,19,5.9,17.7,5.9z M17.7,10
			c-0.9,0-1.6-0.7-1.6-1.6s0.7-1.6,1.6-1.6c0.9,0,1.6,0.7,1.6,1.6S18.6,10,17.7,10z"/>
	</g>
	<path class="st2" d="M19.4,16H3.2V7.6c0-0.6,0.5-1,1-1h9.4V6H4.3C3.3,6,2.6,6.7,2.6,7.6v10.1c0,0.9,0.8,1.7,1.7,1.7h4.3l-0.3,2H7.6
		c-0.4,0-0.7,0.3-0.7,0.7v0.7c0,0.4,0.3,0.7,0.7,0.7H15c0.4,0,0.7-0.3,0.7-0.7v-0.7c0-0.4-0.3-0.7-0.7-0.7h-0.7l-0.3-2h4.3
		c0.9,0,1.7-0.8,1.7-1.7v-5.4h-0.7V16z M15,22.8H7.6v-0.7H15V22.8z M13.6,21.4H9l0.3-2h4.1L13.6,21.4z M18.4,18.7H4.3
		c-0.6,0-1-0.5-1-1v-1h16.1v1C19.4,18.3,18.9,18.7,18.4,18.7z"/>
	<path class="st2" d="M17.4,17.4H18V18h-0.7V17.4z"/>
</g>
</svg>
