<svg width="18" height="18" viewBox="0 0 18 18" fill="none" xmlns="http://www.w3.org/2000/svg">
<path d="M17.4727 16.9453H1.05469V0.527344C1.05469 0.236109 0.818578 0 0.527344 0C0.236109 0 0 0.236109 0 0.527344V17.4727C0 17.7639 0.236109 18 0.527344 18H17.4727C17.7639 18 18 17.7639 18 17.4727C18 17.1814 17.7639 16.9453 17.4727 16.9453Z" fill="#7D7D7D"/>
<path d="M4.55614 7.87012C4.55614 7.57888 4.32003 7.34277 4.0288 7.34277H2.78662C2.49539 7.34277 2.25928 7.57888 2.25928 7.87012V15.8904H4.55614V7.87012Z" fill="#7D7D7D"/>
<path d="M12.4641 10.6943C12.4641 10.4031 12.228 10.167 11.9368 10.167H10.6946C10.4033 10.167 10.1672 10.4031 10.1672 10.6943V15.8904H12.4641V10.6943Z" fill="#7D7D7D"/>
<path d="M7.9077 2.78662C7.9077 2.49539 7.67159 2.25928 7.38036 2.25928H6.13818C5.84695 2.25928 5.61084 2.49539 5.61084 2.78662V15.8905H7.9077V2.78662Z" fill="#7D7D7D"/>
<path d="M15.8157 0.527344C15.8157 0.236109 15.5796 0 15.2883 0H14.0461C13.7549 0 13.5188 0.236109 13.5188 0.527344V15.8906H15.8157V0.527344Z" fill="#7D7D7D"/>
</svg>
