<svg width="18" height="18" viewBox="0 0 18 18" fill="none" xmlns="http://www.w3.org/2000/svg">
<path d="M2.1095 4.44375H7.3056C7.59683 4.44375 7.83294 4.20764 7.83294 3.91641V0.527344C7.83294 0.236109 7.59683 0 7.3056 0H2.0188C2.07733 0.165059 2.1095 0.342492 2.1095 0.527344V4.44375Z" fill="#7D7D7D"/>
<path d="M12.9164 15.2133V11.8242C12.9164 11.533 12.6803 11.2969 12.3891 11.2969H2.10938V15.7406H12.3891C12.6803 15.7406 12.9164 15.5046 12.9164 15.2133V15.2133Z" fill="#7D7D7D"/>
<path d="M17.4727 5.64844H2.10938V10.0922H17.4727C17.7639 10.0922 18 9.85609 18 9.56486V6.17578C18 5.88451 17.7639 5.64844 17.4727 5.64844Z" fill="#7D7D7D"/>
<path d="M17.4727 16.9453H1.05469V0.527344C1.05469 0.236109 0.818578 0 0.527344 0C0.236109 0 0 0.236109 0 0.527344V17.4727C0 17.7639 0.236109 18 0.527344 18H17.4727C17.7639 18 18 17.7639 18 17.4727C18 17.1814 17.7639 16.9453 17.4727 16.9453Z" fill="#7D7D7D"/>
</svg>
