<svg width="18" height="18" viewBox="0 0 18 18" fill="none" xmlns="http://www.w3.org/2000/svg">
<path d="M6.70303 10.6943C6.70303 10.4031 6.46692 10.167 6.17568 10.167H2.78662C2.49539 10.167 2.25928 10.4031 2.25928 10.6943V15.8904H6.70303V10.6943Z" fill="#7D7D7D"/>
<path d="M17.4725 5.0835H14.0835C13.7923 5.0835 13.5562 5.31961 13.5562 5.61084V15.8905H17.4725C17.6574 15.8905 17.8348 15.9227 17.9999 15.9812V5.61084C17.9999 5.31961 17.7638 5.0835 17.4725 5.0835V5.0835Z" fill="#7D7D7D"/>
<path d="M12.3515 0.527344C12.3515 0.236109 12.1153 0 11.8241 0H8.43506C8.14382 0 7.90771 0.236109 7.90771 0.527344V15.8906H12.3515V0.527344Z" fill="#7D7D7D"/>
<path d="M17.4727 16.9453H1.05469V0.527344C1.05469 0.236109 0.818578 0 0.527344 0C0.236109 0 0 0.236109 0 0.527344V17.4727C0 17.7639 0.236109 18 0.527344 18H17.4727C17.7639 18 18 17.7639 18 17.4727C18 17.1814 17.7639 16.9453 17.4727 16.9453Z" fill="#7D7D7D"/>
</svg>
