<svg width="18" height="17" viewBox="0 0 18 17" fill="none" xmlns="http://www.w3.org/2000/svg">
<path d="M4.69574 12.5206C4.30959 12.1427 4.30888 11.5299 4.69573 11.1513L11.6911 4.30478C12.0772 3.92685 12.704 3.92685 13.0902 4.30478C13.4763 4.68271 13.4763 5.29618 13.0902 5.67411L6.09483 12.5206C5.70798 12.8992 5.08188 12.8985 4.69574 12.5206Z" fill="#776FFF"/>
<path d="M11.6903 12.5206L4.69498 5.67411C4.30884 5.29618 4.30884 4.68271 4.69498 4.30478C5.08113 3.92685 5.70793 3.92685 6.09408 4.30478L13.0894 11.1513C13.4763 11.5299 13.4756 12.1427 13.0894 12.5206C12.7033 12.8985 12.0772 12.8992 11.6903 12.5206Z" fill="#776FFF"/>
</svg>
