<svg width="22" height="20" viewBox="0 0 22 20" fill="none" xmlns="http://www.w3.org/2000/svg">
<path d="M3.15734 5.5H2.65734V6V18V18.5H3.15734H19.0945H19.5945V18V6V5.5H19.0945H3.15734ZM16.3177 1.5H15.041V0.5H16.3177V1.5ZM5.93407 1.5V0.5H7.2108V1.5H5.93407ZM7.7108 2.5H8.2108H14.041H14.541H16.8177H17.3177H19.0945C19.5851 2.5 20.0446 2.6718 20.3744 2.96143C20.702 3.24924 20.8712 3.62463 20.8712 4V18C20.8712 18.3754 20.702 18.7508 20.3744 19.0386C20.0446 19.3282 19.5851 19.5 19.0945 19.5H3.15734C2.66671 19.5 2.20715 19.3282 1.87744 19.0386C1.54981 18.7508 1.38062 18.3754 1.38062 18V4C1.38062 3.23505 2.11844 2.5 3.15734 2.5H4.93407H5.43407H7.7108ZM5.93407 9.5H7.2108V10.5H5.93407V9.5ZM5.93407 13.5H7.2108V14.5H5.93407V13.5ZM10.4875 9.5H11.7643V10.5H10.4875V9.5ZM10.4875 13.5H11.7643V14.5H10.4875V13.5ZM15.041 9.5H16.3177V10.5H15.041V9.5ZM15.041 13.5H16.3177V14.5H15.041V13.5Z" fill="#B4B4B4" stroke="#CDCDD6"/>
</svg>
