<svg width="18" height="18" viewBox="0 0 18 18" fill="none" xmlns="http://www.w3.org/2000/svg">
<path d="M4.99264 10.5669C4.92851 10.3105 4.68273 10.1376 4.41322 10.1718C4.19487 10.1994 4.01958 10.3663 3.96621 10.5798L2.63843 15.8909H6.32362L4.99264 10.5669Z" fill="#7D7D7D"/>
<path d="M10.0896 0.474891C10.0626 0.205313 9.83573 0 9.56482 0C9.2939 0 9.06704 0.205313 9.04007 0.474891L7.49854 15.8906H11.6312L10.0896 0.474891Z" fill="#7D7D7D"/>
<path d="M15.1705 5.53626C15.1323 5.26854 14.8971 5.07174 14.6243 5.08404C14.3679 5.09557 14.1604 5.29814 14.1241 5.55218L12.6472 15.8905H16.6496L15.1705 5.53626Z" fill="#7D7D7D"/>
<path d="M17.4727 16.9453H1.05469V0.527344C1.05469 0.236109 0.818578 0 0.527344 0C0.236109 0 0 0.236109 0 0.527344V17.4727C0 17.7639 0.236109 18 0.527344 18H17.4727C17.7639 18 18 17.7639 18 17.4727C18 17.1814 17.7639 16.9453 17.4727 16.9453Z" fill="#7D7D7D"/>
</svg>
