<svg width="42" height="42" viewBox="0 0 42 42" fill="none" xmlns="http://www.w3.org/2000/svg">
<g clip-path="url(#clip0)">
<path d="M15.4336 10.2891C7.09962 10.2891 0.343262 17.0448 0.343262 25.3788C0.343262 33.7128 7.09897 40.4699 15.433 40.4699C19.4354 40.4699 23.2739 38.8799 26.1039 36.0497L15.4336 25.3794V10.2891Z" fill="#06AAE9"/>
<path d="M28.8471 9.90745C26.0204 7.07253 22.1806 5.48185 18.1768 5.48732V20.5778L28.8471 9.90745Z" fill="#ED1C24"/>
<path d="M29.5335 13.6406L18.8633 24.3116L29.5335 34.9819C35.4271 29.0891 35.4271 19.5342 29.5335 13.6406Z" fill="#F8CF26"/>
<path d="M22.91 10.5955L21.6821 9.98225L26.4837 0.379323C26.5996 0.148144 26.8356 0.0013665 27.0942 0H32.5816V1.37188H27.518L22.91 10.5955Z" fill="#29485A"/>
<path d="M33.2676 37.04H40.8128V38.4119H33.2676V37.04Z" fill="#29485A"/>
<path d="M33.2676 39.7832H40.8128V41.1551H33.2676V39.7832Z" fill="#29485A"/>
<path d="M37.3833 34.9824H36.0114V28.6293L27.5786 26.0351L27.982 24.7236L36.899 27.4673C37.1871 27.5558 37.3833 27.822 37.3833 28.1231V34.9824Z" fill="#29485A"/>
<path d="M0.342773 0.685547H9.2598V2.05743H0.342773V0.685547Z" fill="#29485A"/>
<path d="M0.343262 3.42969H9.26029V4.80157H0.343262V3.42969Z" fill="#29485A"/>
<path d="M0.343262 6.17285H5.14472V7.54473H0.343262V6.17285Z" fill="#29485A"/>
<path d="M7.35721 22.3834L1.18387 14.8382C1.08371 14.7155 1.02881 14.5625 1.02881 14.404V9.60254H2.40069V14.1592L8.41898 21.515L7.35721 22.3834Z" fill="#29485A"/>
<path d="M34.6392 0H40.8125V1.37188H34.6392V0Z" fill="#29485A"/>
<path d="M34.6392 2.74414H40.8125V4.11602H34.6392V2.74414Z" fill="#29485A"/>
<path d="M34.6392 5.4873H38.0688V6.85919H34.6392V5.4873Z" fill="#29485A"/>
</g>
<defs>
<clipPath id="clip0">
<rect width="41.1556" height="41.1556" fill="white"/>
</clipPath>
</defs>
</svg>
