<svg width="42" height="42" viewBox="0 0 42 42" fill="none" xmlns="http://www.w3.org/2000/svg">
<g clip-path="url(#clip0)">
<path d="M9.91417 7.54525H0.99707V3.42969H9.91409L11.9719 5.48747L9.91417 7.54525Z" fill="#F15A24"/>
<path d="M31.8638 15.0902H0.99707V10.9746H31.8638L33.9216 13.0324L31.8638 15.0902Z" fill="#0071BC"/>
<path d="M13.3438 30.181H0.99707V26.0654H13.3438L15.4015 28.1232L13.3438 30.181Z" fill="#FBB03B"/>
<path d="M23.6327 22.6351H0.99707V18.5195H23.6327L25.6904 20.5773L23.6327 22.6351Z" fill="#29ABE2"/>
<path d="M25.6904 37.7259H0.99707V33.6104H25.6904L27.7482 35.6681L25.6904 37.7259Z" fill="#0071BC"/>
<path d="M31.8638 2.05762H41.4668V3.4295H31.8638V2.05762Z" fill="#29485A"/>
<path d="M31.8638 4.80176H41.4668V6.17364H31.8638V4.80176Z" fill="#29485A"/>
<path d="M33.2358 18.5195H41.467V19.8914H33.2358V18.5195Z" fill="#29485A"/>
<path d="M33.2358 21.2637H41.467V22.6356H33.2358V21.2637Z" fill="#29485A"/>
<path d="M35.2935 32.2383H41.4668V33.6102H35.2935V32.2383Z" fill="#29485A"/>
<path d="M36.6655 34.9824H41.467V36.3543H36.6655V34.9824Z" fill="#29485A"/>
<path d="M31.8638 7.54492H41.4668V8.9168H31.8638V7.54492Z" fill="#29485A"/>
<path d="M36.6655 37.7256H41.467V39.0975H36.6655V37.7256Z" fill="#29485A"/>
<path d="M0.311035 0H1.68292V41.1556H0.311035V0Z" fill="#29485A"/>
</g>
<defs>
<clipPath id="clip0">
<rect width="41.1556" height="41.1556" fill="white" transform="translate(0.311035)"/>
</clipPath>
</defs>
</svg>
