<svg width="42" height="42" viewBox="0 0 42 42" fill="none" xmlns="http://www.w3.org/2000/svg">
<g clip-path="url(#clip0)">
<path d="M10.9115 41.1552H6.65401V35.4786H5.23486L8.78277 31.9307L12.3307 35.4786H10.9115V41.1552Z" fill="#ED1C24"/>
<path d="M15.1689 33.3506H19.4265V41.1559H15.1689V33.3506Z" fill="#F8CF26"/>
<path d="M23.6841 33.3506H27.9416V41.1559H23.6841V33.3506Z" fill="#39B54A"/>
<path d="M32.1987 33.3506H36.4562V41.1559H32.1987V33.3506Z" fill="#0071BC"/>
<path d="M23.6841 22.707H27.9416V30.5124H23.6841V22.707Z" fill="#39B54A"/>
<path d="M32.1987 22.7061H36.4562V30.5114H32.1987V22.7061Z" fill="#0071BC"/>
<path d="M32.1987 12.0625H36.4562V19.8678H32.1987V12.0625Z" fill="#0071BC"/>
<path d="M19.4267 30.5117H15.1691V24.835H13.75L17.2979 21.2871L20.8458 24.835H19.4267V30.5117Z" fill="#F8CF26"/>
<path d="M27.9413 19.8681H23.6838V14.1915H22.2646L25.8126 10.6436L29.3605 14.1915H27.9413V19.8681Z" fill="#39B54A"/>
<path d="M36.4565 9.22457H32.1989V3.5479H30.7798L34.3277 0L37.8756 3.5479H36.4565V9.22457Z" fill="#0071BC"/>
<path d="M4.52539 1.41895H13.7499V2.83809H4.52539V1.41895Z" fill="#29485A"/>
<path d="M4.52539 4.25684H13.7499V5.67598H4.52539V4.25684Z" fill="#29485A"/>
<path d="M4.52539 7.0957H10.9116V8.51485H4.52539V7.0957Z" fill="#29485A"/>
<path d="M4.52539 9.93359H10.9116V11.3527H4.52539V9.93359Z" fill="#29485A"/>
</g>
<defs>
<clipPath id="clip0">
<rect width="41.1556" height="41.1556" fill="white" transform="translate(0.622559)"/>
</clipPath>
</defs>
</svg>
