<svg width="42" height="42" viewBox="0 0 42 42" fill="none" xmlns="http://www.w3.org/2000/svg">
<g clip-path="url(#clip0)">
<path d="M21.2047 16.2656C21.2032 18.4355 19.4449 20.1939 17.275 20.196V24.1256H13.3454C13.3163 21.955 11.5331 20.2194 9.36253 20.2485C7.23305 20.2768 5.51376 21.9961 5.48538 24.1256H0.245117V7.0957H17.275V12.336C19.4442 12.3381 21.2026 14.0964 21.2047 16.2656Z" fill="#39B54A"/>
<path d="M13.3454 31.8377C13.368 33.9863 15.1264 35.7106 17.275 35.6921V41.1559H0.245117V24.126H5.48538C5.53578 21.9554 7.33666 20.2368 9.50658 20.2872C11.6062 20.3362 13.2964 22.0264 13.3454 24.126H17.275V27.9819C15.1257 27.9635 13.3674 29.6884 13.3454 31.8377Z" fill="#F8CF26"/>
<path d="M28.8408 24.126C28.8408 26.2555 27.1151 27.9818 24.9857 27.9825C22.8562 27.9825 21.1298 26.2568 21.1291 24.1274V24.1267H17.2747V27.9825C15.1452 28.0237 13.453 29.7828 13.4934 31.9115C13.5331 33.9827 15.2028 35.6531 17.2747 35.6928V41.1559H34.3046V24.126H28.8408Z" fill="#0071BC"/>
<path d="M41.4009 0V17.0299H35.9372C35.9783 19.1594 34.2846 20.9191 32.1551 20.9595C30.0256 21.0007 28.2659 19.307 28.2255 17.1775C28.2248 17.1285 28.2248 17.0789 28.2255 17.0292H24.3711V13.0995C26.5417 13.0491 28.2603 11.2483 28.2099 9.07835C28.1609 6.97869 26.4708 5.2885 24.3711 5.23954V0H41.4009Z" fill="#ED1C24"/>
<path d="M3.0835 9.22461H8.76016V10.6438H3.0835V9.22461Z" fill="#29485A"/>
<path d="M3.0835 12.0625H8.76016V13.4816H3.0835V12.0625Z" fill="#29485A"/>
<path d="M3.0835 14.9014H5.92179V16.3205H3.0835V14.9014Z" fill="#29485A"/>
<path d="M22.2422 31.2217H28.6284V32.6408H22.2422V31.2217Z" fill="#29485A"/>
<path d="M22.2422 34.0596H28.6284V35.4787H22.2422V34.0596Z" fill="#29485A"/>
<path d="M22.2422 36.8984H25.7901V38.3176H22.2422V36.8984Z" fill="#29485A"/>
</g>
<defs>
<clipPath id="clip0">
<rect width="41.1556" height="41.1556" fill="white" transform="translate(0.245117)"/>
</clipPath>
</defs>
</svg>
