<svg width="43" height="42" viewBox="0 0 43 42" fill="none" xmlns="http://www.w3.org/2000/svg">
<g clip-path="url(#clip0)">
<path d="M41.4035 39.7837H2.99156C2.61296 39.7837 2.30566 39.4764 2.30566 39.0978V0.6859C2.30566 0.307301 2.61296 0 2.99156 0C3.37016 0 3.67746 0.307301 3.67746 0.6859V38.4118H41.4034C41.782 38.4118 42.0893 38.7191 42.0893 39.0977C42.0893 39.4763 41.7821 39.7837 41.4035 39.7837Z" fill="#29485A"/>
<path d="M2.99137 17.1482H1.61949C1.24089 17.1482 0.933594 16.8409 0.933594 16.4623C0.933594 16.0837 1.24089 15.7764 1.61949 15.7764H2.99137C3.36997 15.7764 3.67727 16.0837 3.67727 16.4623C3.67727 16.8409 3.36997 17.1482 2.99137 17.1482Z" fill="#29485A"/>
<path d="M2.99137 9.60325H1.61949C1.24089 9.60325 0.933594 9.29594 0.933594 8.91735C0.933594 8.53875 1.24089 8.23145 1.61949 8.23145H2.99137C3.36997 8.23145 3.67727 8.53875 3.67727 8.91735C3.67727 9.29594 3.36997 9.60325 2.99137 9.60325Z" fill="#29485A"/>
<path d="M2.99137 1.37188H1.61949C1.24089 1.37188 0.933594 1.06458 0.933594 0.6859C0.933594 0.30722 1.24089 0 1.61949 0H2.99137C3.36997 0 3.67727 0.307301 3.67727 0.6859C3.67727 1.0645 3.36997 1.37188 2.99137 1.37188Z" fill="#29485A"/>
<path d="M2.99137 39.7839H1.61949C1.24089 39.7839 0.933594 39.4766 0.933594 39.098C0.933594 38.7194 1.24089 38.4121 1.61949 38.4121H2.99137C3.36997 38.4121 3.67727 38.7194 3.67727 39.098C3.67727 39.4766 3.36997 39.7839 2.99137 39.7839Z" fill="#29485A"/>
<path d="M2.99137 32.2391H1.61949C1.24089 32.2391 0.933594 31.9318 0.933594 31.5532C0.933594 31.1746 1.24089 30.8672 1.61949 30.8672H2.99137C3.36997 30.8672 3.67727 31.1745 3.67727 31.5531C3.67727 31.9317 3.36997 32.2391 2.99137 32.2391Z" fill="#29485A"/>
<path d="M2.99137 24.6931H1.61949C1.24089 24.6931 0.933594 24.3858 0.933594 24.0072C0.933594 23.6286 1.24089 23.3213 1.61949 23.3213H2.99137C3.36997 23.3213 3.67727 23.6286 3.67727 24.0072C3.67727 24.3858 3.36997 24.6931 2.99137 24.6931Z" fill="#29485A"/>
<path d="M18.0819 41.1558C17.7033 41.1558 17.396 40.8485 17.396 40.4699V39.098C17.396 38.7194 17.7033 38.4121 18.0819 38.4121C18.4605 38.4121 18.7678 38.7194 18.7678 39.098V40.4699C18.7679 40.8485 18.4606 41.1558 18.0819 41.1558Z" fill="#29485A"/>
<path d="M10.5365 41.1558C10.1579 41.1558 9.85059 40.8485 9.85059 40.4699V39.098C9.85059 38.7194 10.1579 38.4121 10.5365 38.4121C10.9151 38.4121 11.2224 38.7194 11.2224 39.098V40.4699C11.2224 40.8485 10.9151 41.1558 10.5365 41.1558Z" fill="#29485A"/>
<path d="M2.99156 41.1558C2.61296 41.1558 2.30566 40.8485 2.30566 40.4699V39.098C2.30566 38.7194 2.61296 38.4121 2.99156 38.4121C3.37016 38.4121 3.67746 38.7194 3.67746 39.098V40.4699C3.67746 40.8485 3.37016 41.1558 2.99156 41.1558Z" fill="#29485A"/>
<path d="M41.4037 41.1558C41.0251 41.1558 40.7178 40.8485 40.7178 40.4699V39.098C40.7178 38.7194 41.0251 38.4121 41.4037 38.4121C41.7823 38.4121 42.0896 38.7194 42.0896 39.098V40.4699C42.0896 40.8485 41.7823 41.1558 41.4037 41.1558Z" fill="#29485A"/>
<path d="M33.1722 41.1558C32.7936 41.1558 32.4863 40.8485 32.4863 40.4699V39.098C32.4863 38.7194 32.7936 38.4121 33.1722 38.4121C33.5508 38.4121 33.8581 38.7194 33.8581 39.098V40.4699C33.8581 40.8485 33.5508 41.1558 33.1722 41.1558Z" fill="#29485A"/>
<path d="M25.6268 41.1558C25.2482 41.1558 24.9409 40.8485 24.9409 40.4699V39.098C24.9409 38.7194 25.2482 38.4121 25.6268 38.4121C26.0054 38.4121 26.3127 38.7194 26.3127 39.098V40.4699C26.3127 40.8485 26.0054 41.1558 25.6268 41.1558Z" fill="#29485A"/>
<path d="M25.5865 11.7636L19.4105 29.1632L18.1177 28.7043L24.2936 11.3047L25.5865 11.7636Z" fill="#FBB03B"/>
<path d="M34.2106 11.9514C33.832 11.9507 33.5247 11.6434 33.5254 11.2648C33.5254 11.1427 33.5583 11.0226 33.6201 10.9177L39.4401 1.02384C39.6322 0.697331 40.0526 0.588253 40.3792 0.780366C40.7057 0.972399 40.8148 1.39288 40.6226 1.71939L34.8026 11.6132C34.6791 11.8231 34.4541 11.9514 34.2106 11.9514Z" fill="#FBB03B"/>
<path d="M31.5842 11.5591L31.0165 12.808L27.2104 11.078L27.7781 9.8291L31.5842 11.5591Z" fill="#FBB03B"/>
<path d="M10.7052 24.789L7.08471 39.2605L5.75391 38.9276L9.37439 24.4561L10.7052 24.789Z" fill="#FBB03B"/>
<path d="M17.2018 28.8912L16.1906 29.8184L11.417 24.6117L12.4282 23.6846L17.2018 28.8912Z" fill="#FBB03B"/>
<path d="M10.0393 24.6247C8.97878 24.3387 8.35052 23.2467 8.63724 22.1862C8.92396 21.1258 10.0152 20.4975 11.0757 20.7842C12.1362 21.0702 12.7645 22.1622 12.4777 23.2227C12.2418 24.098 11.4434 24.7029 10.5366 24.6933C10.3685 24.6905 10.2018 24.6679 10.0393 24.6247Z" fill="#0071BC"/>
<path d="M18.7675 28.9348C19.8012 29.321 20.3266 30.472 19.9404 31.5057C19.5543 32.5394 18.4033 33.0648 17.3696 32.6786C16.3359 32.2925 15.8105 31.1415 16.1966 30.1078C16.4902 29.3217 17.2427 28.8032 18.0816 28.8086C18.3154 28.8114 18.548 28.8539 18.7675 28.9348Z" fill="#FF0000"/>
<path d="M24.9412 11.535C25.1607 11.6166 25.3932 11.6592 25.6271 11.6612C26.7808 11.6777 27.7288 10.7558 27.7452 9.60274C27.7617 8.44902 26.8398 7.50107 25.6867 7.48459C24.5337 7.46811 23.5851 8.39002 23.5686 9.5431C23.5556 10.4313 24.1064 11.2305 24.9412 11.535Z" fill="#0071BC"/>
<path d="M34.2109 11.266C33.2314 10.6952 31.9755 11.0259 31.4041 12.0054C30.8334 12.9849 31.164 14.2408 32.1436 14.8122C33.1231 15.3829 34.379 15.0523 34.9503 14.0727C35.1342 13.7572 35.2309 13.3978 35.2295 13.0328C35.2302 12.3045 34.8419 11.6302 34.2109 11.266Z" fill="#FF0000"/>
<path d="M28.3706 28.123H39.3454V29.4949H28.3706V28.123Z" fill="#29485A"/>
<path d="M28.3706 25.3799H39.3454V26.7518H28.3706V25.3799Z" fill="#29485A"/>
<path d="M7.10693 7.5459H18.0817V8.91778H7.10693V7.5459Z" fill="#29485A"/>
<path d="M7.10693 4.80176H18.0817V6.17364H7.10693V4.80176Z" fill="#29485A"/>
<path d="M28.3706 30.8672H39.3454V32.2391H28.3706V30.8672Z" fill="#29485A"/>
<path d="M28.3706 33.6104H39.3454V34.9822H28.3706V33.6104Z" fill="#29485A"/>
</g>
<defs>
<clipPath id="clip0">
<rect width="41.1556" height="41.1556" fill="white" transform="translate(0.933594)"/>
</clipPath>
</defs>
</svg>
