<svg width="42" height="42" viewBox="0 0 42 42" fill="none" xmlns="http://www.w3.org/2000/svg">
<g clip-path="url(#clip0)">
<path d="M3.58545 4.11426H12.5025V5.48614H3.58545V4.11426Z" fill="#29485A"/>
<path d="M3.58545 6.8584H12.5025V8.23028H3.58545V6.8584Z" fill="#29485A"/>
<path d="M3.58545 9.60156H9.75879V10.9734H3.58545V9.60156Z" fill="#29485A"/>
<path d="M3.58545 12.3457H9.75879V13.7176H3.58545V12.3457Z" fill="#29485A"/>
<path d="M0.155762 39.7822H41.3114V41.1541H0.155762V39.7822Z" fill="#29485A"/>
<path d="M2.95794 30.8651L2.84131 29.4932C17.1751 28.251 29.4525 18.7276 34.219 5.1524L35.8652 0.458008L37.1603 0.91072L35.514 5.60519C30.5706 19.6921 17.8315 29.5762 2.95794 30.8651Z" fill="#ED1C24"/>
<path d="M3.58594 33.6084H8.3874V37.724H3.58594V33.6084Z" fill="#ED1C24"/>
<path d="M11.1304 31.5508H15.9318V37.7241H11.1304V31.5508Z" fill="#FBB03B"/>
<path d="M18.6758 28.1211H23.4772V37.7241H18.6758V28.1211Z" fill="#F8CF26"/>
<path d="M26.2212 23.3203H31.0226V37.7248H26.2212V23.3203Z" fill="#39B54A"/>
<path d="M33.7661 13.7168H38.5676V37.7243H33.7661V13.7168Z" fill="#0071BC"/>
<path d="M39.2539 6.85743C38.9926 6.8588 38.7532 6.71202 38.6366 6.47811L36.2002 1.608L31.3294 4.0451C30.9906 4.21455 30.5783 4.07669 30.4089 3.7378C30.2395 3.39899 30.3773 2.98671 30.7162 2.81727L36.2036 0.0735871C36.5425 -0.0958583 36.9547 0.0413539 37.1242 0.380164V0.380888L39.8679 5.86833C40.0352 6.20786 39.8953 6.61942 39.5557 6.78677C39.4618 6.83267 39.3589 6.85743 39.2539 6.85743Z" fill="#ED1C24"/>
</g>
<defs>
<clipPath id="clip0">
<rect width="41.1556" height="41.1556" fill="white" transform="translate(0.155762)"/>
</clipPath>
</defs>
</svg>
