<svg width="42" height="42" viewBox="0 0 42 42" fill="none" xmlns="http://www.w3.org/2000/svg">
<g clip-path="url(#clip0)">
<path d="M10.1592 20.5781L17.7044 28.1233V39.0981H10.1592V20.5781Z" fill="#3080C3"/>
<path d="M25.2493 16.4619L17.7041 28.1227V39.0975H25.2493V16.4619Z" fill="#005F94"/>
<path d="M32.7947 14.4043L25.2495 16.4621V39.0977H32.7947V14.4043Z" fill="#3080C3"/>
<path d="M33.4813 6.85889L32.7954 14.4041V39.0975H41.0265V37.0397V0.685547L33.4813 6.85889Z" fill="#005F94"/>
<path d="M2.61426 34.2957V39.0972H10.1595V20.5771L2.61426 34.2957Z" fill="#005F94"/>
<path d="M32.1094 15.0908H33.4813V16.4627H32.1094V15.0908Z" fill="#F8CF26"/>
<path d="M9.47363 37.04H10.8455V38.4119H9.47363V37.04Z" fill="#F8CF26"/>
<path d="M9.47363 34.2969H10.8455V35.6688H9.47363V34.2969Z" fill="#F8CF26"/>
<path d="M9.47363 31.5527H10.8455V32.9246H9.47363V31.5527Z" fill="#F8CF26"/>
<path d="M9.47363 28.8096H10.8455V30.1814H9.47363V28.8096Z" fill="#F8CF26"/>
<path d="M9.47363 26.0654H10.8455V27.4373H9.47363V26.0654Z" fill="#F8CF26"/>
<path d="M9.47363 23.3213H10.8455V24.6932H9.47363V23.3213Z" fill="#F8CF26"/>
<path d="M9.47363 20.5781H10.8455V21.95H9.47363V20.5781Z" fill="#F8CF26"/>
<path d="M17.0186 37.04H18.3904V38.4119H17.0186V37.04Z" fill="#F8CF26"/>
<path d="M17.0186 34.2969H18.3904V35.6688H17.0186V34.2969Z" fill="#F8CF26"/>
<path d="M17.0186 31.5527H18.3904V32.9246H17.0186V31.5527Z" fill="#F8CF26"/>
<path d="M17.0186 28.8096H18.3904V30.1814H17.0186V28.8096Z" fill="#F8CF26"/>
<path d="M24.564 37.04H25.9358V38.4119H24.564V37.04Z" fill="#F8CF26"/>
<path d="M24.564 34.2969H25.9358V35.6688H24.564V34.2969Z" fill="#F8CF26"/>
<path d="M24.564 31.5527H25.9358V32.9246H24.564V31.5527Z" fill="#F8CF26"/>
<path d="M24.564 28.8096H25.9358V30.1814H24.564V28.8096Z" fill="#F8CF26"/>
<path d="M24.564 26.0654H25.9358V27.4373H24.564V26.0654Z" fill="#F8CF26"/>
<path d="M24.564 23.3213H25.9358V24.6932H24.564V23.3213Z" fill="#F8CF26"/>
<path d="M24.564 20.5781H25.9358V21.95H24.564V20.5781Z" fill="#F8CF26"/>
<path d="M24.564 17.834H25.9358V19.2059H24.564V17.834Z" fill="#F8CF26"/>
<path d="M32.1094 37.04H33.4813V38.4119H32.1094V37.04Z" fill="#F8CF26"/>
<path d="M32.1094 34.2969H33.4813V35.6688H32.1094V34.2969Z" fill="#F8CF26"/>
<path d="M32.1094 31.5527H33.4813V32.9246H32.1094V31.5527Z" fill="#F8CF26"/>
<path d="M32.1094 28.8096H33.4813V30.1814H32.1094V28.8096Z" fill="#F8CF26"/>
<path d="M32.1094 26.0654H33.4813V27.4373H32.1094V26.0654Z" fill="#F8CF26"/>
<path d="M32.1094 23.3213H33.4813V24.6932H32.1094V23.3213Z" fill="#F8CF26"/>
<path d="M32.1094 20.5781H33.4813V21.95H32.1094V20.5781Z" fill="#F8CF26"/>
<path d="M32.1094 17.834H33.4813V19.2059H32.1094V17.834Z" fill="#F8CF26"/>
<path d="M40.3403 34.2969H41.7122V35.6688H40.3403V34.2969Z" fill="#F8CF26"/>
<path d="M40.3403 31.5527H41.7122V32.9246H40.3403V31.5527Z" fill="#F8CF26"/>
<path d="M40.3403 28.8096H41.7122V30.1814H40.3403V28.8096Z" fill="#F8CF26"/>
<path d="M40.3403 26.0654H41.7122V27.4373H40.3403V26.0654Z" fill="#F8CF26"/>
<path d="M40.3403 23.3213H41.7122V24.6932H40.3403V23.3213Z" fill="#F8CF26"/>
<path d="M40.3403 20.5781H41.7122V21.95H40.3403V20.5781Z" fill="#F8CF26"/>
<path d="M40.3403 15.0908H41.7122V16.4627H40.3403V15.0908Z" fill="#F8CF26"/>
<path d="M40.3403 12.3467H41.7122V13.7186H40.3403V12.3467Z" fill="#F8CF26"/>
<path d="M40.3403 9.60352H41.7122V10.9754H40.3403V9.60352Z" fill="#F8CF26"/>
<path d="M40.3403 6.85938H41.7122V8.23126H40.3403V6.85938Z" fill="#F8CF26"/>
<path d="M3.2149 34.6261L2.01318 33.9662L9.99874 19.4472L17.5899 27.0377L24.8161 15.8694L32.1548 13.8679L32.8236 6.50585L39.9113 0.835938L40.7687 1.90735L34.1379 7.21232L33.4348 14.9407L25.6831 17.0547L17.8189 29.208L10.3197 21.7081L3.2149 34.6261Z" fill="#ED1C24"/>
<path d="M41.0259 38.4119H3.29983V0.6859C3.29983 0.307301 2.99253 0 2.61393 0H1.24205C0.863453 0 0.556152 0.307301 0.556152 0.6859C0.556152 1.0645 0.863453 1.3718 1.24205 1.3718H1.92795V8.23112H1.24205C0.863453 8.23112 0.556152 8.53842 0.556152 8.91702C0.556152 9.29562 0.863453 9.60292 1.24205 9.60292H1.92795V15.7763H1.24205C0.863453 15.7763 0.556152 16.0836 0.556152 16.4622C0.556152 16.8408 0.863453 17.1481 1.24205 17.1481H1.92795V23.3215H1.24205C0.863453 23.3215 0.556152 23.6288 0.556152 24.0074C0.556152 24.386 0.863453 24.6933 1.24205 24.6933H1.92795V30.8667H1.24205C0.863453 30.8667 0.556152 31.174 0.556152 31.5526C0.556152 31.9312 0.863453 32.2385 1.24205 32.2385H1.92795V38.4118H1.24205C0.863453 38.4119 0.556152 38.7192 0.556152 39.0978C0.556152 39.4764 0.863453 39.7837 1.24205 39.7837H1.92795V40.4696C1.92795 40.8482 2.23525 41.1555 2.61385 41.1555C2.99245 41.1555 3.29975 40.8482 3.29975 40.4696V39.7837H9.47309V40.4696C9.47309 40.8482 9.78039 41.1555 10.159 41.1555C10.5376 41.1555 10.8449 40.8482 10.8449 40.4696V39.7837H17.0182V40.4696C17.0182 40.8482 17.3255 41.1555 17.7041 41.1555C18.0827 41.1555 18.39 40.8482 18.39 40.4696V39.7837H24.5634V40.4696C24.5634 40.8482 24.8707 41.1555 25.2493 41.1555C25.6279 41.1555 25.9352 40.8482 25.9352 40.4696V39.7837H32.1085V40.4696C32.1085 40.8482 32.4158 41.1555 32.7944 41.1555C33.173 41.1555 33.4803 40.8482 33.4803 40.4696V39.7837H40.3396V40.4696C40.3396 40.8482 40.6469 41.1555 41.0255 41.1555C41.4041 41.1555 41.7114 40.8482 41.7114 40.4696V39.0978C41.7118 38.7192 41.4045 38.4119 41.0259 38.4119Z" fill="#29485A"/>
<path d="M4.67139 3.42969H15.6462V4.80157H4.67139V3.42969Z" fill="#29485A"/>
<path d="M4.67139 0.685547H15.6462V2.05743H4.67139V0.685547Z" fill="#29485A"/>
<path d="M41.7116 5.48744H40.3397V1.37188H36.2241V0H41.7116V5.48744Z" fill="#ED1C24"/>
<path d="M4.67139 6.17285H12.9025V7.54473H4.67139V6.17285Z" fill="#29485A"/>
<path d="M4.67139 8.91699H12.9025V10.2889H4.67139V8.91699Z" fill="#29485A"/>
<path d="M40.3398 17.834H41.7117V19.2059H40.3398V17.834Z" fill="#F8CF26"/>
<path d="M40.3398 37.04H41.7117V38.4119H40.3398V37.04Z" fill="#F8CF26"/>
</g>
<defs>
<clipPath id="clip0">
<rect width="41.1556" height="41.1556" fill="white" transform="translate(0.556152)"/>
</clipPath>
</defs>
</svg>
