<svg width="42" height="42" viewBox="0 0 42 42" fill="none" xmlns="http://www.w3.org/2000/svg">
<g clip-path="url(#clip0)">
<path d="M21.0446 0L15.0132 12.0629H27.076L21.0446 0Z" fill="#ED1C24"/>
<path d="M27.0759 12.0625H15.0131L10.4009 21.2871H31.6883L27.0759 12.0625Z" fill="#FBB03B"/>
<path d="M31.6886 21.2871H10.4011L5.43408 31.2212H36.6556L31.6886 21.2871Z" fill="#39B54A"/>
<path d="M36.6554 31.2217H5.43385L0.466797 41.1558H41.6224L36.6554 31.2217Z" fill="#06AAE9"/>
<path d="M3.30518 2.12891H8.98184V3.54805H3.30518V2.12891Z" fill="#29485A"/>
<path d="M3.30518 4.9668H8.98184V6.38594H3.30518V4.9668Z" fill="#29485A"/>
<path d="M3.30518 7.80566H8.98184V9.22481H3.30518V7.80566Z" fill="#29485A"/>
<path d="M34.5269 14.1914H39.4939V15.6106H34.5269V14.1914Z" fill="#29485A"/>
<path d="M34.5269 17.0303H39.4939V18.4494H34.5269V17.0303Z" fill="#29485A"/>
</g>
<defs>
<clipPath id="clip0">
<rect width="41.1556" height="41.1556" fill="white" transform="translate(0.466797)"/>
</clipPath>
</defs>
</svg>
