<svg width="42" height="42" viewBox="0 0 42 42" fill="none" xmlns="http://www.w3.org/2000/svg">
<g clip-path="url(#clip0)">
<path d="M21.3564 31.931C15.086 31.931 10.0034 26.8484 10.0034 20.5781C10.0034 14.3077 15.086 9.22514 21.3564 9.22514V0.000976605C9.99138 0.000253166 0.778556 9.21244 0.777832 20.5766C0.777109 31.9408 9.98929 41.1544 21.3535 41.1552C23.6248 41.1552 25.8805 40.7791 28.029 40.0426L25.0347 31.3094C23.8518 31.7188 22.6087 31.9288 21.3564 31.931Z" fill="#06AAE9"/>
<path d="M32.7093 20.5781H41.9335C41.9335 9.2138 32.7207 0.000976562 21.3564 0.000976562V9.22522C27.6261 9.22522 32.7093 14.3077 32.7093 20.5781Z" fill="#39B54A"/>
<path d="M29.3843 28.606L35.9065 35.1282C39.7714 31.2733 41.9405 26.0367 41.9334 20.5781H32.7092C32.7128 23.5895 31.5165 26.4788 29.3843 28.606Z" fill="#FBB03B"/>
<path d="M29.384 28.6055C28.1593 29.8259 26.6713 30.7505 25.0352 31.3089L28.0295 40.0421C30.9947 39.0253 33.6889 37.3444 35.9056 35.1277L29.384 28.6055Z" fill="#ED1C24"/>
<path d="M0.780762 0.00195312H6.45718V1.4211H0.780762V0.00195312Z" fill="#29485A"/>
<path d="M0.779785 2.83887H6.45621V4.25801H0.779785V2.83887Z" fill="#29485A"/>
<path d="M35.5479 0.000976562H41.9339V1.42012H35.5479V0.000976562Z" fill="#29485A"/>
<path d="M22.7759 14.9014H29.1619V16.3205H22.7759V14.9014Z" fill="#29485A"/>
<path d="M22.7759 17.7402H29.1619V19.1594H22.7759V17.7402Z" fill="#29485A"/>
<path d="M22.7759 20.5781H29.1619V21.9973H22.7759V20.5781Z" fill="#29485A"/>
<path d="M7.16574 40.4454H0.779785V39.0262H6.81881L12.0085 32.3564L13.1261 33.2256L7.72632 40.1714C7.59152 40.3447 7.38429 40.4454 7.16574 40.4454Z" fill="#29485A"/>
<path d="M12.1325 34.769C11.3485 34.769 10.7134 34.1339 10.7134 33.3498C10.7134 32.5657 11.3484 31.9307 12.1325 31.9307C12.9166 31.9307 13.5517 32.5657 13.5517 33.3498C13.5517 34.1339 12.9158 34.769 12.1325 34.769Z" fill="#29485A"/>
</g>
<defs>
<clipPath id="clip0">
<rect width="41.1556" height="41.1556" fill="white" transform="translate(0.777832)"/>
</clipPath>
</defs>
</svg>
