<svg width="42" height="42" viewBox="0 0 42 42" fill="none" xmlns="http://www.w3.org/2000/svg">
<g clip-path="url(#clip0)">
<path d="M13.5293 39.0175V9.22232H8.56348L21.3328 0L34.1021 9.22232H29.1363V39.0175H13.5293Z" fill="#0071BC"/>
<path d="M39.7771 41.1457H26.2983V22.7012H35.5207L39.7771 26.9576V41.1457Z" fill="#E6E6E6"/>
<path d="M35.521 22.7012V26.9576H39.7775L35.521 22.7012Z" fill="#F2F2F2"/>
<path d="M28.4272 24.8291H33.3931V26.2479H28.4272V24.8291Z" fill="#29485A"/>
<path d="M28.4272 27.667H33.3931V29.0858H28.4272V27.667Z" fill="#29485A"/>
<path d="M29.7782 37.1911L28.4941 36.5881L30.8735 31.5251L34.4426 33.1121L36.2878 28.8066L37.5916 29.3656L35.1803 34.992L31.5666 33.3866L29.7782 37.1911Z" fill="#ED1C24"/>
<path d="M33.3926 37.5986H37.649V39.0175H33.3926V37.5986Z" fill="#29485A"/>
<path d="M7.06235 23.7871C2.56473 26.1771 0.855004 31.7601 3.245 36.2585C5.635 40.757 11.218 42.4652 15.7164 40.0759C17.4133 39.1742 18.7868 37.7647 19.6437 36.0443L11.4019 31.9234L7.06235 23.7871Z" fill="#06AAE9"/>
<path d="M20.2059 29.1719C18.6864 24.3103 13.5134 21.6011 8.65253 23.1207C8.10272 23.2924 7.57067 23.5151 7.06201 23.7868L11.4014 31.923L20.2059 29.1719Z" fill="#FBB03B"/>
<path d="M20.2059 29.1719L11.4014 31.9229L19.6433 36.0439C20.7152 33.9129 20.9167 31.4491 20.2059 29.1719Z" fill="#ED1C24"/>
<path d="M1.46973 11.3506H6.43557V12.7694H1.46973V11.3506Z" fill="#29485A"/>
<path d="M1.46973 14.1885H6.43557V15.6073H1.46973V14.1885Z" fill="#29485A"/>
<path d="M1.46973 17.0264H6.43557V18.4452H1.46973V17.0264Z" fill="#29485A"/>
<path d="M35.5215 1.41895H40.4873V2.83777H35.5215V1.41895Z" fill="#29485A"/>
<path d="M35.5215 4.25684H40.4873V5.67566H35.5215V4.25684Z" fill="#29485A"/>
</g>
<defs>
<clipPath id="clip0">
<rect width="41.1557" height="41.1557" fill="white" transform="translate(0.400391)"/>
</clipPath>
</defs>
</svg>
