<svg width="42" height="42" viewBox="0 0 42 42" fill="none" xmlns="http://www.w3.org/2000/svg">
<g clip-path="url(#clip0)">
<path d="M7.63477 24.0078H11.7503V39.0982H7.63477V24.0078Z" fill="#FF0000"/>
<path d="M15.1797 16.4619H19.2953V39.0975H15.1797V16.4619Z" fill="#0071BC"/>
<path d="M22.7246 8.91699H26.8402V39.0978H22.7246V8.91699Z" fill="#0071BC"/>
<path d="M30.27 0.685547H34.3856V39.0975H30.27V0.685547Z" fill="#0071BC"/>
<path d="M40.5593 39.7837H2.14733C1.76873 39.7837 1.46143 39.4764 1.46143 39.0978V0.6859C1.46143 0.307301 1.76873 0 2.14733 0C2.52593 0 2.83323 0.307301 2.83323 0.6859V38.4118H40.5592C40.9378 38.4118 41.2451 38.7191 41.2451 39.0977C41.2451 39.4763 40.9379 39.7837 40.5593 39.7837Z" fill="#29485A"/>
<path d="M2.14714 17.1482H0.775256C0.396656 17.1482 0.0893555 16.8409 0.0893555 16.4623C0.0893555 16.0837 0.396656 15.7764 0.775256 15.7764H2.14714C2.52574 15.7764 2.83304 16.0837 2.83304 16.4623C2.83304 16.8409 2.52574 17.1482 2.14714 17.1482Z" fill="#29485A"/>
<path d="M2.14714 9.60325H0.775256C0.396656 9.60325 0.0893555 9.29594 0.0893555 8.91735C0.0893555 8.53875 0.396656 8.23145 0.775256 8.23145H2.14714C2.52574 8.23145 2.83304 8.53875 2.83304 8.91735C2.83304 9.29594 2.52574 9.60325 2.14714 9.60325Z" fill="#29485A"/>
<path d="M2.14714 1.37188H0.775256C0.396656 1.37188 0.0893555 1.06458 0.0893555 0.6859C0.0893555 0.30722 0.396656 0 0.775256 0H2.14714C2.52574 0 2.83304 0.307301 2.83304 0.6859C2.83304 1.0645 2.52574 1.37188 2.14714 1.37188Z" fill="#29485A"/>
<path d="M2.14714 39.7839H0.775256C0.396656 39.7839 0.0893555 39.4766 0.0893555 39.098C0.0893555 38.7194 0.396656 38.4121 0.775256 38.4121H2.14714C2.52574 38.4121 2.83304 38.7194 2.83304 39.098C2.83304 39.4766 2.52574 39.7839 2.14714 39.7839Z" fill="#29485A"/>
<path d="M2.14714 32.2391H0.775256C0.396656 32.2391 0.0893555 31.9318 0.0893555 31.5532C0.0893555 31.1746 0.396656 30.8672 0.775256 30.8672H2.14714C2.52574 30.8672 2.83304 31.1745 2.83304 31.5531C2.83304 31.9317 2.52574 32.2391 2.14714 32.2391Z" fill="#29485A"/>
<path d="M2.14714 24.6931H0.775256C0.396656 24.6931 0.0893555 24.3858 0.0893555 24.0072C0.0893555 23.6286 0.396656 23.3213 0.775256 23.3213H2.14714C2.52574 23.3213 2.83304 23.6286 2.83304 24.0072C2.83304 24.3858 2.52574 24.6931 2.14714 24.6931Z" fill="#29485A"/>
<path d="M17.2377 41.1558C16.8591 41.1558 16.5518 40.8485 16.5518 40.4699V39.098C16.5518 38.7194 16.8591 38.4121 17.2377 38.4121C17.6163 38.4121 17.9236 38.7194 17.9236 39.098V40.4699C17.9236 40.8485 17.6163 41.1558 17.2377 41.1558Z" fill="#29485A"/>
<path d="M9.82945 41.1558C9.45085 41.1558 9.14355 40.8485 9.14355 40.4699V39.098C9.14355 38.7194 9.45085 38.4121 9.82945 38.4121C10.2081 38.4121 10.5154 38.7194 10.5154 39.098V40.4699C10.5154 40.8485 10.2081 41.1558 9.82945 41.1558Z" fill="#29485A"/>
<path d="M2.14733 41.1558C1.76873 41.1558 1.46143 40.8485 1.46143 40.4699V39.098C1.46143 38.7194 1.76873 38.4121 2.14733 38.4121C2.52592 38.4121 2.83323 38.7194 2.83323 39.098V40.4699C2.83323 40.8485 2.52592 41.1558 2.14733 41.1558Z" fill="#29485A"/>
<path d="M40.5594 41.1558C40.1808 41.1558 39.8735 40.8485 39.8735 40.4699V39.098C39.8735 38.7194 40.1808 38.4121 40.5594 38.4121C40.938 38.4121 41.2453 38.7194 41.2453 39.098V40.4699C41.2453 40.8485 40.938 41.1558 40.5594 41.1558Z" fill="#29485A"/>
<path d="M32.328 41.1558C31.9494 41.1558 31.6421 40.8485 31.6421 40.4699V39.098C31.6421 38.7194 31.9494 38.4121 32.328 38.4121C32.7066 38.4121 33.0139 38.7194 33.0139 39.098V40.4699C33.0139 40.8485 32.7066 41.1558 32.328 41.1558Z" fill="#29485A"/>
<path d="M24.7826 41.1558C24.404 41.1558 24.0967 40.8485 24.0967 40.4699V39.098C24.0967 38.7194 24.404 38.4121 24.7826 38.4121C25.1612 38.4121 25.4685 38.7194 25.4685 39.098V40.4699C25.4685 40.8485 25.1612 41.1558 24.7826 41.1558Z" fill="#29485A"/>
</g>
<defs>
<clipPath id="clip0">
<rect width="41.1556" height="41.1556" fill="white" transform="translate(0.0893555)"/>
</clipPath>
</defs>
</svg>
