<svg width="18" height="18" viewBox="0 0 18 18" fill="none" xmlns="http://www.w3.org/2000/svg">
<g clip-path="url(#clip0)">
<path d="M12.2097 18C11.8581 17.9288 11.4966 17.8878 11.1567 17.7821C9.17731 17.1654 7.96437 15.8523 7.42497 13.8859C6.73769 14.3961 6.05541 14.903 5.33648 15.437C5.33648 15.3405 5.33648 15.2729 5.33648 15.205C5.33648 12.8594 5.33481 10.5135 5.33981 8.16797C5.34023 7.9975 5.29149 7.86603 5.1807 7.73335C3.49791 5.71187 1.82096 3.68636 0.13984 1.66407C0.0432048 1.54828 -0.00303017 1.43289 -0.000114449 1.28253C0.00904923 0.86078 0.0032178 0.438632 0.0032178 0C4.88746 0 9.76337 0 14.6672 0C14.6672 0.340935 14.6464 0.687901 14.673 1.03165C14.6988 1.36133 14.5856 1.60899 14.3719 1.86348C12.7312 3.82265 11.105 5.79308 9.47055 7.75707C9.3735 7.87367 9.32435 7.98785 9.33185 8.13821C9.34268 8.35854 9.33476 8.58006 9.33476 8.82732C9.39516 8.79234 9.44139 8.77063 9.4818 8.74169C12.6612 6.47776 17.0939 8.11852 17.8995 11.8587C17.9386 12.0413 17.9665 12.2262 17.9999 12.41C17.9999 12.7051 17.9999 12.9998 17.9999 13.2949C17.9869 13.3463 17.9694 13.3974 17.9615 13.4496C17.625 15.5954 16.3904 17.0299 14.2773 17.7515C13.9091 17.8774 13.5105 17.9192 13.126 18C12.8203 18 12.515 18 12.2097 18ZM1.54188 1.27931C1.58104 1.33318 1.59895 1.36093 1.62019 1.38666C3.15761 3.24532 4.69419 5.10438 6.23702 6.95861C6.28617 7.01771 6.3978 7.05631 6.48111 7.05751C7.05009 7.06596 7.61949 7.05832 8.18888 7.06475C8.31259 7.06596 8.38924 7.02817 8.46629 6.93449C9.87958 5.22016 11.297 3.50946 12.7132 1.79755C12.8494 1.63311 12.984 1.46707 13.1373 1.27931C9.2577 1.27931 5.41604 1.27931 1.54188 1.27931ZM12.6562 16.7135C14.8688 16.7179 16.6599 15.0011 16.6665 12.8691C16.6732 10.7318 14.8975 9.00101 12.6895 8.99216C10.4669 8.98372 8.67081 10.7049 8.66831 12.8466C8.66623 14.9818 10.4469 16.7086 12.6562 16.7135ZM6.67938 12.8438C6.88723 12.6858 7.07216 12.5567 7.24086 12.4104C7.30542 12.3545 7.34957 12.2628 7.3729 12.1796C7.47537 11.8125 7.50078 11.4089 7.67738 11.0804C7.99686 10.4866 8.0306 9.87344 8.00394 9.2358C7.99395 8.99497 8.00311 8.75375 8.00145 8.51252C8.00103 8.46146 7.99187 8.4108 7.98687 8.35934C7.54493 8.35934 7.11757 8.35934 6.67938 8.35934C6.67938 9.84731 6.67938 11.3248 6.67938 12.8438Z" fill="#4C4C4C"/>
<path d="M11.7333 12.8911C11.1923 12.3672 10.6982 11.8888 10.2192 11.4252C10.542 11.1141 10.8532 10.8133 11.1681 10.5098C11.6363 10.9661 12.1319 11.4494 12.6272 11.9322C13.1537 11.4204 13.6506 10.9376 14.1375 10.4644C14.4791 10.7981 14.789 11.1008 15.1081 11.4128C14.6324 11.8695 14.133 12.3495 13.624 12.8388C14.1463 13.3358 14.6486 13.8138 15.1418 14.283C14.8023 14.6111 14.4899 14.913 14.1592 15.2326C13.6723 14.761 13.1745 14.2786 12.6639 13.7845C12.1565 14.2754 11.6588 14.7578 11.1643 15.2362C10.8428 14.9222 10.5358 14.6231 10.2313 14.3256C10.7195 13.8592 11.2197 13.3812 11.7333 12.8911Z" fill="#4C4C4C"/>
</g>
<defs>
<clipPath id="clip0">
<rect width="18" height="18" fill="white"/>
</clipPath>
</defs>
</svg>
