<svg width="18" height="16" viewBox="0 0 18 16" fill="none" xmlns="http://www.w3.org/2000/svg">
<path d="M17.7123 9.74415L17.1225 10.3379C16.937 10.5234 16.6901 10.6255 16.4263 10.6255C16.1625 10.6255 15.9156 10.5234 15.7297 10.3379L9.00421 3.61171L2.27067 10.3453C2.08555 10.5307 1.83823 10.6328 1.57445 10.6328C1.31067 10.6328 1.06335 10.5307 0.877866 10.3453L0.28811 9.7555C-0.0960366 9.37171 -0.0960366 8.74684 0.28811 8.36306L8.30543 0.316836C8.49055 0.131714 8.7375 0.00110626 9.00348 0.00110626H9.0064C9.27018 0.00110626 9.51713 0.131714 9.70226 0.316836L17.7119 8.34111C17.8974 8.52623 17.9995 8.78086 17.9995 9.04428C18.0002 9.30842 17.8977 9.55903 17.7123 9.74415Z" fill="#4C4C4C"/>
<path d="M9.38378 6.99023L14.7018 12.3174C14.8932 12.5095 14.8932 12.8201 14.7018 13.0118C14.5105 13.2039 14.1999 13.2039 14.0089 13.0118L9 7.99487L3.99146 13.0122C3.80012 13.2043 3.48988 13.2043 3.2978 13.0122C3.10646 12.8201 3.10646 12.5095 3.2978 12.3178L8.61585 6.99096C8.72122 6.88523 8.86171 6.84389 8.99963 6.8545C9.13793 6.84316 9.27841 6.88486 9.38378 6.99023Z" fill="#4C4C4C"/>
<path d="M9.00022 10.4803C9.13815 10.4697 9.27864 10.5114 9.384 10.6171L13.7219 14.962C13.9133 15.1537 13.9133 15.4647 13.7219 15.6564C13.5306 15.8484 13.2203 15.8484 13.0283 15.6564L9.00022 11.6214L4.97218 15.6567C4.78083 15.8488 4.47059 15.8488 4.27925 15.6567C4.08791 15.4647 4.08791 15.154 4.27925 14.9623L8.61718 10.6171C8.72218 10.5114 8.8623 10.47 9.00022 10.4803Z" fill="#4C4C4C"/>
</svg>
