<svg width="25" height="25" viewBox="0 0 25 25" fill="none" xmlns="http://www.w3.org/2000/svg">
<path d="M12.5 24.0313C18.8688 24.0313 24.0317 18.8683 24.0317 12.4995C24.0317 6.13071 18.8688 0.967773 12.5 0.967773C6.1312 0.967773 0.968262 6.13071 0.968262 12.4995C0.968262 18.8683 6.1312 24.0313 12.5 24.0313Z" fill="#FF8412"/>
<path d="M12.5 25C5.60806 25 0 19.3929 0 12.5C0 5.60806 5.60806 0 12.5 0C19.3929 0 25 5.60806 25 12.5C25 19.3929 19.3929 25 12.5 25ZM12.5 1.93647C6.67505 1.93647 1.93647 6.67505 1.93647 12.5C1.93647 18.325 6.67505 23.0635 12.5 23.0635C18.325 23.0635 23.0635 18.324 23.0635 12.5C23.0635 6.67505 18.325 1.93647 12.5 1.93647Z" fill="#FF8412"/>
<path d="M18.9407 10.3335C18.8864 9.62084 18.2565 9.48232 17.7514 9.98752L15.9861 11.7532C15.5763 12.1661 14.9046 12.1648 14.4934 11.7532L13.3498 10.6109C12.9357 10.1946 12.9369 9.52505 13.3485 9.11177L15.1738 7.28827C15.6794 6.78308 15.5512 6.1304 14.8416 6.04585C13.4689 5.88191 12.0383 6.32581 10.9844 7.37887C10.1816 8.18301 9.73334 9.20842 9.63845 10.2585C9.6005 10.683 9.62035 11.1113 9.69667 11.5324L5.76742 15.6295C5.25018 16.1472 4.9646 16.8344 4.9646 17.5665C4.9646 18.2969 5.25018 18.9832 5.76615 19.5C6.83343 20.5669 8.56936 20.5669 9.63839 19.5C9.63839 19.5 10.8131 18.1591 13.6647 15.3041C14.113 15.3653 14.5668 15.361 15.0133 15.2903C15.9563 15.1427 16.8627 14.7105 17.5905 13.984C18.5917 12.9827 19.0408 11.6415 18.9407 10.3335ZM8.62758 18.6583C8.06762 19.2153 7.16688 19.2153 6.60861 18.6571C6.05295 18.1027 6.05168 17.1976 6.60989 16.642C7.16683 16.0863 8.06756 16.0876 8.62583 16.642C9.18155 17.1976 9.18155 18.1027 8.62758 18.6583Z" fill="white"/>
</svg>
