<svg width="25" height="25" viewBox="0 0 25 25" fill="none" xmlns="http://www.w3.org/2000/svg">
<path d="M12.5 24.0317C18.8688 24.0317 24.0317 18.8688 24.0317 12.5C24.0317 6.1312 18.8688 0.968262 12.5 0.968262C6.1312 0.968262 0.968262 6.1312 0.968262 12.5C0.968262 18.8688 6.1312 24.0317 12.5 24.0317Z" fill="#C0C0C0"/>
<path d="M12.5 25C5.60806 25 0 19.3929 0 12.5C0 5.60806 5.60806 0 12.5 0C19.3929 0 25 5.60806 25 12.5C25 19.3929 19.3929 25 12.5 25ZM12.5 1.93647C6.67505 1.93647 1.93647 6.67505 1.93647 12.5C1.93647 18.325 6.67505 23.0635 12.5 23.0635C18.325 23.0635 23.0635 18.324 23.0635 12.5C23.0635 6.67505 18.325 1.93647 12.5 1.93647Z" fill="#C0C0C0"/>
<path d="M18.9405 10.3335C18.8861 9.62084 18.2563 9.48232 17.7511 9.98752L15.9858 11.7532C15.576 12.1661 14.9043 12.1648 14.4932 11.7532L13.3495 10.6109C12.9354 10.1946 12.9367 9.52505 13.3483 9.11177L15.1735 7.28827C15.6791 6.78308 15.551 6.1304 14.8413 6.04585C13.4686 5.88191 12.0381 6.32581 10.9842 7.37887C10.1813 8.18301 9.7331 9.20842 9.6382 10.2585C9.60026 10.683 9.62011 11.1113 9.69642 11.5324L5.76718 15.6295C5.24994 16.1472 4.96436 16.8344 4.96436 17.5665C4.96436 18.2969 5.24994 18.9832 5.7659 19.5C6.83318 20.5669 8.56912 20.5669 9.63815 19.5C9.63815 19.5 10.8129 18.1591 13.6645 15.3041C14.1127 15.3653 14.5665 15.361 15.013 15.2903C15.9561 15.1427 16.8624 14.7105 17.5902 13.984C18.5915 12.9827 19.0406 11.6415 18.9405 10.3335ZM8.62734 18.6583C8.06737 19.2153 7.16663 19.2153 6.60837 18.6571C6.0527 18.1027 6.05143 17.1976 6.60964 16.642C7.16658 16.0863 8.06732 16.0876 8.62559 16.642C9.1813 17.1976 9.1813 18.1027 8.62734 18.6583Z" fill="#9B9B9B"/>
</svg>
