<svg width="42" height="42" viewBox="0 0 42 42" fill="none" xmlns="http://www.w3.org/2000/svg">
<path d="M12.635 25V14.995H11.105L8.225 17.905L9.245 18.97L10.88 17.26V25H12.635ZM21.6932 25V23.455H17.2682C19.9382 21.43 21.6332 19.78 21.6332 17.92C21.6332 15.925 19.9532 14.845 18.0182 14.845C16.6082 14.845 15.1982 15.37 14.3132 16.45L15.3332 17.59C15.9782 16.87 16.8632 16.405 18.0332 16.405C18.9482 16.405 19.8632 16.87 19.8632 17.92C19.8632 19.375 18.3332 20.665 14.4482 23.605V25H21.6932Z" fill="#39B54A"/>
<path d="M31.8441 25L27.4641 19.705L31.5291 14.995H29.3541L25.4391 19.75V14.995H23.6841V25H25.4391V21.805L26.3241 20.77L29.6691 25H31.8441Z" fill="#ED1C24"/>
<rect x="0.5" y="0.5" width="40" height="40" stroke="#FBB03B"/>
<path d="M13 4.85742H34.0001V6.2293H13V4.85742Z" fill="#29485A"/>
<path d="M13 7.60156H27.5386V8.97344H13V7.60156Z" fill="#29485A"/>
<path d="M5.58545 29.8574H21.0001V31.2293H5.58545V29.8574Z" fill="#29485A"/>
<path d="M5.58545 32.6016H16.2572V33.9734H5.58545V32.6016Z" fill="#29485A"/>
</svg>
