<svg width="16" height="16" viewBox="0 0 16 16" fill="none" xmlns="http://www.w3.org/2000/svg">
<path d="M7.5 0C6.291 0 5.282 0.859 5.05 2H0V3H5.05C5.282 4.141 6.29 5 7.5 5C8.71 5 9.718 4.141 9.95 3H16V2H9.95C9.718 0.859 8.709 0 7.5 0Z" fill="#4C4C4C"/>
<path d="M12.5 6C11.291 6 10.282 6.859 10.05 8H0V9H10.05C10.282 10.141 11.29 11 12.5 11C13.71 11 14.718 10.141 14.95 9H16V8H14.95C14.718 6.859 13.709 6 12.5 6Z" fill="#4C4C4C"/>
<path d="M5.5 11C4.291 11 3.282 11.859 3.05 13H0V14H3.05C3.282 15.141 4.29 16 5.5 16C6.71 16 7.718 15.141 7.95 14H16V13H7.95C7.718 11.859 6.709 11 5.5 11Z" fill="#4C4C4C"/>
</svg>
