<svg width="25" height="25" viewBox="0 0 25 25" fill="none" xmlns="http://www.w3.org/2000/svg">
<g clip-path="url(#clip0)">
<path d="M12.4996 24.0374C18.8715 24.0374 24.0369 18.872 24.0369 12.5001C24.0369 6.12829 18.8715 0.962891 12.4996 0.962891C6.1278 0.962891 0.962402 6.12829 0.962402 12.5001C0.962402 18.872 6.1278 24.0374 12.4996 24.0374Z" fill="#C0C0C0"/>
<path d="M12.5 24.9999C9.29744 24.9999 6.09488 23.7813 3.65665 21.344C-1.21888 16.4684 -1.21888 8.53377 3.65665 3.65726C8.53219 -1.2173 16.4678 -1.21827 21.3434 3.65726C26.2189 8.53377 26.2189 16.4675 21.3434 21.344C18.9051 23.7813 15.7016 24.9999 12.5 24.9999ZM5.0264 5.02701C0.9065 9.14789 0.9065 15.8533 5.0264 19.9742C9.14826 24.0941 15.8537 24.0951 19.9736 19.9742C24.0936 15.8533 24.0935 9.14789 19.9736 5.02701C15.8517 0.90711 9.14729 0.90711 5.0264 5.02701Z" fill="#C0C0C0"/>
<path d="M9.13692 16.8304C8.88892 16.8304 8.64096 16.7355 8.45204 16.5465C8.07328 16.1678 8.07328 15.5556 8.45204 15.1768L15.3008 8.32802C15.6796 7.94925 16.2918 7.94925 16.6706 8.32802C17.0493 8.70679 17.0493 9.31901 16.6706 9.69777L9.8218 16.5465C9.6319 16.7355 9.38488 16.8304 9.13692 16.8304Z" fill="#9B9B9B"/>
<path d="M15.9842 16.8304C15.7362 16.8304 15.4883 16.7355 15.2993 16.5465L8.45058 9.69777C8.07181 9.31901 8.07181 8.70679 8.45058 8.32802C8.82935 7.94925 9.44157 7.94925 9.82033 8.32802L16.6691 15.1768C17.0479 15.5556 17.0479 16.1678 16.6691 16.5465C16.4802 16.7355 16.2322 16.8304 15.9842 16.8304Z" fill="#9B9B9B"/>
</g>
<defs>
<clipPath id="clip0">
<rect width="25" height="25" fill="white"/>
</clipPath>
</defs>
</svg>
