<svg width="18" height="19" viewBox="0 0 18 19" fill="none" xmlns="http://www.w3.org/2000/svg">
<g clip-path="url(#clip0)">
<path d="M18.2123 7.05663L17.6225 6.46285C17.437 6.27736 17.1901 6.17529 16.9263 6.17529C16.6625 6.17529 16.4156 6.27736 16.2297 6.46285L9.50421 13.1891L2.77067 6.45553C2.58555 6.27004 2.33823 6.16797 2.07445 6.16797C1.81067 6.16797 1.56335 6.27004 1.37787 6.45553L0.78811 7.04529C0.403963 7.42907 0.403963 8.05394 0.78811 8.43773L8.80543 16.4839C8.99055 16.6691 9.2375 16.7997 9.50348 16.7997H9.5064C9.77018 16.7997 10.0171 16.6691 10.2023 16.4839L18.2119 8.45968C18.3974 8.27455 18.4995 8.01992 18.4995 7.75651C18.5002 7.49236 18.3977 7.24175 18.2123 7.05663Z" fill="#4C4C4C"/>
<path d="M9.88378 9.81055L15.2018 4.48334C15.3932 4.29127 15.3932 3.98066 15.2018 3.78895C15.0105 3.59688 14.6999 3.59688 14.5089 3.78895L9.5 8.80591L4.49146 3.78859C4.30012 3.59651 3.98988 3.59651 3.7978 3.78859C3.60646 3.98066 3.60646 4.29127 3.7978 4.48298L9.11585 9.80982C9.22122 9.91555 9.36171 9.95689 9.49963 9.94628C9.63793 9.95762 9.77841 9.91592 9.88378 9.81055Z" fill="#4C4C4C"/>
<path d="M9.50022 6.32052C9.63815 6.33113 9.77864 6.28942 9.884 6.18369L14.2219 1.83881C14.4133 1.6471 14.4133 1.33613 14.2219 1.14442C14.0306 0.952348 13.7203 0.952348 13.5283 1.14442L9.50022 5.17942L5.47218 1.14405C5.28083 0.951982 4.97059 0.951982 4.77925 1.14405C4.58791 1.33613 4.58791 1.64674 4.77925 1.83845L9.11718 6.18369C9.22218 6.28942 9.3623 6.33076 9.50022 6.32052Z" fill="#4C4C4C"/>
</g>
<defs>
<clipPath id="clip0">
<rect width="18" height="18.0033" fill="white"/>
</clipPath>
</defs>
</svg>
