<svg width="16" height="16" viewBox="0 0 16 16" fill="none" xmlns="http://www.w3.org/2000/svg">
<path d="M13.3333 16H2.66667C1.95942 16 1.28115 15.719 0.781049 15.219C0.280952 14.7189 0 14.0406 0 13.3333V2.66667C0 1.95942 0.280952 1.28115 0.781049 0.781049C1.28115 0.280952 1.95942 0 2.66667 0H6.22222C6.45797 0 6.68406 0.0936505 6.85076 0.260349C7.01746 0.427048 7.11111 0.653141 7.11111 0.888889C7.11111 1.12464 7.01746 1.35073 6.85076 1.51743C6.68406 1.68413 6.45797 1.77778 6.22222 1.77778H2.66667C2.43092 1.77778 2.20483 1.87143 2.03813 2.03813C1.87143 2.20483 1.77778 2.43092 1.77778 2.66667V13.3333C1.77778 13.5691 1.87143 13.7952 2.03813 13.9619C2.20483 14.1286 2.43092 14.2222 2.66667 14.2222H13.3333C13.5691 14.2222 13.7952 14.1286 13.9619 13.9619C14.1286 13.7952 14.2222 13.5691 14.2222 13.3333V9.77778C14.2222 9.54203 14.3159 9.31594 14.4826 9.14924C14.6493 8.98254 14.8754 8.88889 15.1111 8.88889C15.3469 8.88889 15.573 8.98254 15.7397 9.14924C15.9064 9.31594 16 9.54203 16 9.77778V13.3333C16 14.0406 15.719 14.7189 15.219 15.219C14.7189 15.719 14.0406 16 13.3333 16Z" fill="#4C4C4C"/>
<path d="M16 0.933141V5.37759C15.9991 5.55307 15.9463 5.72438 15.8483 5.86991C15.7502 6.01544 15.6112 6.12868 15.4489 6.19536C15.3434 6.24512 15.2277 6.26948 15.1111 6.26647C14.9941 6.26715 14.8782 6.24473 14.7699 6.20049C14.6616 6.15626 14.5631 6.09108 14.48 6.0087L12.8445 4.44425L8.58668 8.70203C8.50404 8.78534 8.40573 8.85147 8.29741 8.8966C8.18909 8.94173 8.07291 8.96496 7.95557 8.96496C7.83822 8.96496 7.72204 8.94173 7.61372 8.8966C7.5054 8.85147 7.40709 8.78534 7.32446 8.70203C7.24114 8.6194 7.17501 8.52108 7.12989 8.41277C7.08476 8.30445 7.06152 8.18826 7.06152 8.07092C7.06152 7.95358 7.08476 7.83739 7.12989 7.72907C7.17501 7.62075 7.24114 7.52244 7.32446 7.43981L11.5556 3.15536L9.99112 1.56425C9.86328 1.44225 9.77471 1.28492 9.73671 1.11234C9.69871 0.939761 9.71301 0.759774 9.77779 0.595363C9.84868 0.421339 9.9729 0.274258 10.1326 0.175241C10.2923 0.0762246 10.4793 0.0303661 10.6667 0.0442517H15.1111C15.1846 0.0314734 15.2598 0.0314734 15.3333 0.0442517C15.3744 0.0363323 15.4167 0.0363323 15.4578 0.0442517C15.5644 0.0862665 15.6613 0.149772 15.7423 0.23082C15.8234 0.311867 15.8869 0.408723 15.9289 0.515363C15.9368 0.556466 15.9368 0.598704 15.9289 0.639807C15.9753 0.730636 15.9997 0.831133 16 0.933141Z" fill="#4C4C4C"/>
</svg>
