<svg width="19" height="18" viewBox="0 0 19 18" fill="none" xmlns="http://www.w3.org/2000/svg">
<g clip-path="url(#clip0)">
<path d="M11.1125 0.0253906C11.1125 0.770101 11.1125 1.47583 11.1125 2.23853C10.8876 2.23853 10.6906 2.23853 10.4947 2.23853C8.17961 2.23853 5.86451 2.23753 3.54941 2.23853C2.84568 2.23853 2.72273 2.35748 2.72273 3.04322C2.72073 7.00768 2.72073 10.9711 2.72273 14.9356C2.72273 15.6473 2.82069 15.7413 3.53142 15.7423C7.49587 15.7433 11.4593 15.7433 15.4238 15.7423C16.1555 15.7423 16.2365 15.6663 16.2385 14.9476C16.2425 13.4652 16.2535 10.5003 16.2535 10.5003L18.4426 7.83235C18.4426 7.83235 18.4736 8.28318 18.4746 8.44112C18.4766 10.8232 18.4766 13.2053 18.4756 15.5863C18.4746 16.9648 17.46 17.9964 16.0855 17.9974C11.6882 18.0014 7.29095 18.0014 2.89366 17.9974C1.5112 17.9964 0.501595 16.9768 0.501595 15.5963C0.499596 11.2 0.499596 6.80275 0.500596 2.40546C0.500596 1.00701 1.48721 0.0263902 2.89067 0.0263902C5.43867 0.0263902 7.98768 0.0263902 10.5357 0.0263902C10.7156 0.0253906 10.8966 0.0253906 11.1125 0.0253906Z" fill="#4C4C4C"/>
<path d="M5.10204 11.043C4.9341 7.94418 7.61406 3.5389 12.883 3.37296C12.883 2.67024 12.851 1.95851 12.898 1.25279C12.919 0.943908 13.031 0.586047 13.2269 0.357137C13.6307 -0.115679 14.2555 -0.117678 14.7303 0.343142C15.8898 1.4687 17.0334 2.61026 18.158 3.77081C18.6218 4.24962 18.6018 4.79941 18.129 5.28322C17.0224 6.41478 15.8988 7.52934 14.7743 8.64191C14.4244 8.98877 13.9996 9.09873 13.5358 8.88881C13.0779 8.68189 12.875 8.31104 12.881 7.80823C12.89 7.09651 12.883 6.38479 12.883 5.61409C9.04251 5.70205 6.72741 7.86821 5.10204 11.043Z" fill="#4C4C4C"/>
<path d="M4.97601 13.136C4.97601 12.1064 5.74072 11.4116 6.72533 11.4116C7.39507 11.4116 7.81491 11.7565 8.05981 12.1563L7.56501 12.4162C7.40507 12.1363 7.08019 11.9314 6.72533 11.9314C6.06559 11.9314 5.57578 12.4312 5.57578 13.136C5.57578 13.8307 6.06559 14.3405 6.72533 14.3405C7.08019 14.3405 7.40507 14.1306 7.56501 13.8557L8.06481 14.1056C7.80991 14.5054 7.39507 14.8603 6.72533 14.8603C5.74072 14.8603 4.97601 14.1606 4.97601 13.136Z" fill="#4C4C4C" stroke="#4C4C4C" stroke-width="0.34"/>
<path d="M8.76935 14.3305L9.09922 13.8757C9.32413 14.1206 9.68899 14.3405 10.1538 14.3405C10.6336 14.3405 10.8186 14.1056 10.8186 13.8807C10.8186 13.1809 8.87931 13.6158 8.87931 12.3912C8.87931 11.8365 9.35912 11.4116 10.0938 11.4116C10.6086 11.4116 11.0335 11.5816 11.3383 11.8814L11.0085 12.3163C10.7436 12.0514 10.3887 11.9314 10.0389 11.9314C9.69899 11.9314 9.47907 12.1014 9.47907 12.3463C9.47907 12.971 11.4183 12.5862 11.4183 13.8257C11.4183 14.3805 11.0235 14.8603 10.1288 14.8603C9.51406 14.8603 9.06923 14.6404 8.76935 14.3305Z" fill="#4C4C4C" stroke="#4C4C4C" stroke-width="0.34"/>
<path d="M13.3724 14.7995L12.0629 11.4658H12.7277L13.7373 14.1598L14.7469 11.4658H15.4116L14.1021 14.7995H13.3724Z" fill="#4C4C4C" stroke="#4C4C4C" stroke-width="0.34"/>
</g>
<defs>
<clipPath id="clip0">
<rect width="17.994" height="18" fill="white" transform="translate(0.5)"/>
</clipPath>
</defs>
</svg>
