<svg width="22" height="18" viewBox="0 0 22 18" fill="none" xmlns="http://www.w3.org/2000/svg">
<path d="M10.8725 6.75L13.25 9.12V9C13.25 8.40326 13.0129 7.83097 12.591 7.40901C12.169 6.98705 11.5967 6.75 11 6.75H10.8725ZM7.6475 7.35L8.81 8.5125C8.7725 8.67 8.75 8.8275 8.75 9C8.75 9.59674 8.98705 10.169 9.40901 10.591C9.83097 11.0129 10.4033 11.25 11 11.25C11.165 11.25 11.33 11.2275 11.4875 11.19L12.65 12.3525C12.1475 12.6 11.5925 12.75 11 12.75C10.0054 12.75 9.05161 12.3549 8.34835 11.6517C7.64509 10.9484 7.25 9.99456 7.25 9C7.25 8.4075 7.4 7.8525 7.6475 7.35V7.35ZM3.5 3.2025L5.21 4.9125L5.5475 5.25C4.31 6.225 3.335 7.5 2.75 9C4.0475 12.2925 7.25 14.625 11 14.625C12.1625 14.625 13.2725 14.4 14.285 13.995L14.6075 14.31L16.7975 16.5L17.75 15.5475L4.4525 2.25L3.5 3.2025ZM11 5.25C11.9946 5.25 12.9484 5.64509 13.6517 6.34835C14.3549 7.05161 14.75 8.00544 14.75 9C14.75 9.48 14.6525 9.945 14.48 10.365L16.6775 12.5625C17.8025 11.625 18.7025 10.395 19.25 9C17.9525 5.7075 14.75 3.375 11 3.375C9.95 3.375 8.945 3.5625 8 3.9L9.6275 5.5125C10.055 5.3475 10.5125 5.25 11 5.25Z" fill="black"/>
</svg>
