<svg width="22" height="14" viewBox="0 0 22 14" fill="none" xmlns="http://www.w3.org/2000/svg">
<path d="M10.9998 0.125C6.4165 0.125 2.50234 2.97583 0.916504 7C2.50234 11.0242 6.4165 13.875 10.9998 13.875C15.5832 13.875 19.4973 11.0242 21.0832 7C19.4973 2.97583 15.5832 0.125 10.9998 0.125ZM10.9998 11.5833C8.46984 11.5833 6.4165 9.53 6.4165 7C6.4165 4.47 8.46984 2.41667 10.9998 2.41667C13.5298 2.41667 15.5832 4.47 15.5832 7C15.5832 9.53 13.5298 11.5833 10.9998 11.5833ZM10.9998 4.25C9.47817 4.25 8.24984 5.47833 8.24984 7C8.24984 8.52167 9.47817 9.75 10.9998 9.75C12.5215 9.75 13.7498 8.52167 13.7498 7C13.7498 5.47833 12.5215 4.25 10.9998 4.25Z" fill="black"/>
</svg>
