<?xml version="1.0" encoding="utf-8"?>
<!-- Generator: Adobe Illustrator 21.0.0, SVG Export Plug-In . SVG Version: 6.00 Build 0)  -->
<svg version="1.1" id="Layer_1" xmlns="http://www.w3.org/2000/svg" xmlns:xlink="http://www.w3.org/1999/xlink" x="0px" y="0px"
	 viewBox="0 0 22 14" style="enable-background:new 0 0 22 14;" xml:space="preserve">
<g>
	<path d="M15.8,0.3L15.8,0.3c-0.9-0.6-2.2-0.4-2.8,0.5L5.8,10.9c-0.6,0.9-0.4,2.2,0.5,2.8h0c0.9,0.6,2.2,0.4,2.8-0.5l7.2-10.1
		C16.9,2.2,16.7,1,15.8,0.3z"/>
	<path d="M13.7,7.6l-1.3,1.8C13.1,9,13.5,8.3,13.7,7.6z"/>
	<path d="M6.4,7c0-2.5,2.1-4.6,4.6-4.6c0.1,0,0.1,0,0.2,0l1.4-1.9c0.1-0.1,0.1-0.2,0.2-0.2c-0.6-0.1-1.2-0.1-1.8-0.1
		C6.4,0.1,2.5,3,0.9,7c0.8,2,2.2,3.8,4,5c0-0.5,0.2-1,0.5-1.4l1.4-1.9C6.5,8.1,6.4,7.6,6.4,7z"/>
	<path d="M17.1,2c0,0.5-0.2,1-0.5,1.4l-1.4,1.9c0.2,0.5,0.3,1.1,0.3,1.6c0,2.5-2.1,4.6-4.6,4.6c-0.1,0-0.1,0-0.2,0l-1.4,1.9
		c-0.1,0.1-0.1,0.2-0.2,0.2c0.6,0.1,1.2,0.1,1.8,0.1c4.6,0,8.5-2.9,10.1-6.9C20.3,5,18.9,3.2,17.1,2z"/>
	<path d="M9.6,4.7C8.9,5,8.5,5.7,8.3,6.4L9.6,4.7z"/>
</g>
</svg>
