<svg width="15" height="8" viewBox="0 0 15 8" fill="none" xmlns="http://www.w3.org/2000/svg">
<path d="M6.99783 2.40771L1.70383 7.70771C1.51634 7.89488 1.26224 8 0.997325 8C0.732406 8 0.478313 7.89488 0.290826 7.70771C0.104624 7.51891 0.000231807 7.26439 0.00023183 6.99921C0.000231854 6.73404 0.104624 6.47952 0.290826 6.29071L6.29083 0.290713C6.47305 0.109465 6.71806 0.00533708 6.97502 -6.26034e-05C7.23198 -0.00546228 7.48115 0.0882815 7.67083 0.261713L13.7108 6.28871C13.8987 6.47609 14.0045 6.73044 14.0049 6.9958C14.0053 7.26116 13.9002 7.51581 13.7128 7.70371C13.5255 7.89162 13.2711 7.99739 13.0057 7.99777C12.7404 7.99814 12.4857 7.89309 12.2978 7.70571L6.99783 2.40771Z" fill="#9A9A9A"/>
</svg>
