<svg width="25" height="24" viewBox="0 0 25 24" fill="none" xmlns="http://www.w3.org/2000/svg">
<path d="M20.7761 2.52884L12.2383 0.0334355L12.2202 0.0284513C12.0762 -0.00948377 11.924 -0.00948377 11.7801 0.0284513L11.7711 0.030805L3.22413 2.52884C2.59358 2.70006 2.15405 3.27398 2.15405 3.92829V16.1015C2.15405 17.6999 3.0362 19.1409 4.4578 19.8679L10.0487 23.154L10.0875 23.1752C10.6863 23.4775 11.3432 23.6286 12.0001 23.6286C12.6569 23.6286 13.3138 23.4775 13.9126 23.1752L13.9323 23.1653L19.5423 19.868C20.964 19.1409 21.8461 17.6999 21.8461 16.1016V3.92833C21.8462 3.27407 21.4067 2.70006 20.7761 2.52884ZM20.4617 16.1015C20.4617 17.182 19.8625 18.1556 18.8979 18.6424L18.8781 18.6525L13.2701 21.9487C12.4732 22.3436 11.527 22.3436 10.7301 21.9487L5.14114 18.6637L5.10228 18.6424C4.13771 18.1557 3.53854 17.182 3.53854 16.1015V3.92833C3.53854 3.89852 3.55867 3.87245 3.58746 3.86488L12.0001 1.4063L20.3952 3.85999L20.4127 3.86488C20.4415 3.87245 20.4617 3.89852 20.4617 3.92833V16.1015Z" fill="#4C4C4C"/>
<path d="M10.2087 10.8387C10.1127 10.651 9.99332 10.505 9.85044 10.4009C9.70746 10.2967 9.55129 10.2008 9.38192 10.113C9.21246 10.0253 9.05629 9.95381 8.91341 9.89866C8.77044 9.84355 8.651 9.77719 8.55515 9.69961C8.45916 9.62213 8.41121 9.53638 8.41121 9.44242C8.41121 9.34043 8.46221 9.25362 8.56429 9.18214C8.66628 9.11074 8.8194 9.07498 9.02362 9.07498C9.21546 9.07498 9.39106 9.11383 9.55032 9.19132C9.70959 9.26894 9.8137 9.30766 9.86267 9.30766C9.98104 9.30766 10.074 9.24961 10.1413 9.13345C10.2087 9.01724 10.2424 8.90533 10.2424 8.79739C10.2424 8.6839 10.1964 8.58713 10.1046 8.50715C10.0127 8.42726 9.89423 8.36949 9.74937 8.33363C9.60441 8.29786 9.47376 8.27363 9.35742 8.26103C9.24107 8.24843 9.12976 8.24207 9.02366 8.24207C8.59087 8.24207 8.22135 8.34927 7.9151 8.56364C7.60885 8.778 7.45577 9.10151 7.45577 9.53435C7.45577 9.7998 7.52209 10.0284 7.65482 10.2203C7.78745 10.4123 7.94976 10.5602 8.1417 10.6643C8.33359 10.7684 8.52446 10.8624 8.71432 10.946C8.90418 11.0297 9.06543 11.1226 9.19815 11.2246C9.33079 11.3268 9.3972 11.4451 9.3972 11.5798C9.3972 11.7146 9.33799 11.8156 9.21961 11.883C9.10115 11.9503 8.96238 11.984 8.80316 11.984C8.67657 11.984 8.55607 11.9593 8.44181 11.9097C8.32745 11.8603 8.23866 11.8054 8.17538 11.7452C8.11202 11.6849 8.04266 11.6301 7.96716 11.5806C7.89156 11.5311 7.82322 11.5063 7.76198 11.5063C7.65172 11.5063 7.55472 11.5636 7.47105 11.6778C7.38733 11.7922 7.34552 11.9065 7.34552 12.0208C7.34552 12.225 7.49251 12.4087 7.78648 12.572C8.08045 12.7353 8.42542 12.817 8.82153 12.817C9.27873 12.817 9.64839 12.6998 9.93009 12.4652C10.2118 12.2306 10.3527 11.9029 10.3527 11.4818C10.3526 11.241 10.3046 11.0266 10.2087 10.8387Z" fill="#4C4C4C"/>
<path d="M13.473 10.8387C13.377 10.651 13.2577 10.505 13.1148 10.4009C12.9718 10.2967 12.8156 10.2008 12.6463 10.113C12.4768 10.0253 12.3206 9.95381 12.1778 9.89866C12.0348 9.84355 11.9153 9.77719 11.8195 9.69961C11.7235 9.62213 11.6756 9.53638 11.6756 9.44242C11.6756 9.34043 11.7265 9.25362 11.8286 9.18214C11.9306 9.11074 12.0837 9.07498 12.288 9.07498C12.4798 9.07498 12.6554 9.11383 12.8147 9.19132C12.9739 9.26894 13.078 9.30766 13.127 9.30766C13.2454 9.30766 13.3383 9.24961 13.4057 9.13345C13.473 9.01724 13.5067 8.90533 13.5067 8.79739C13.5067 8.6839 13.4608 8.58713 13.3689 8.50715C13.277 8.42726 13.1586 8.36949 13.0137 8.33363C12.8688 8.29786 12.7381 8.27363 12.6218 8.26103C12.5054 8.24843 12.3941 8.24207 12.288 8.24207C11.8552 8.24207 11.4857 8.34927 11.1794 8.56364C10.8732 8.778 10.7201 9.10151 10.7201 9.53435C10.7201 9.7998 10.7864 10.0284 10.9192 10.2203C11.0518 10.4123 11.2141 10.5602 11.406 10.6643C11.5979 10.7684 11.7888 10.8624 11.9787 10.946C12.1685 11.0297 12.3298 11.1226 12.4625 11.2246C12.5951 11.3268 12.6615 11.4451 12.6615 11.5798C12.6615 11.7146 12.6023 11.8156 12.484 11.883C12.3655 11.9503 12.2267 11.984 12.0675 11.984C11.9409 11.984 11.8204 11.9593 11.7061 11.9097C11.5918 11.8603 11.503 11.8054 11.4397 11.7452C11.3764 11.6849 11.307 11.6301 11.2315 11.5806C11.1559 11.5311 11.0876 11.5063 11.0263 11.5063C10.9161 11.5063 10.8191 11.5636 10.7354 11.6778C10.6517 11.7922 10.6099 11.9065 10.6099 12.0208C10.6099 12.225 10.7568 12.4087 11.0508 12.572C11.3448 12.7353 11.6898 12.817 12.0859 12.817C12.5431 12.817 12.9127 12.6998 13.1944 12.4652C13.4761 12.2306 13.617 11.9029 13.617 11.4818C13.617 11.241 13.5689 11.0266 13.473 10.8387Z" fill="#4C4C4C"/>
<path d="M16.6424 12.0452C16.5934 11.9635 16.5261 11.9227 16.4404 11.9227H15.044V8.56651C15.044 8.47264 14.997 8.40115 14.9031 8.3521C14.8091 8.30309 14.6969 8.27863 14.5663 8.27863C14.4355 8.27863 14.3233 8.30309 14.2294 8.3521C14.1355 8.40115 14.0886 8.47259 14.0886 8.56651V12.4616C14.0886 12.5556 14.1293 12.6281 14.211 12.679C14.2927 12.7301 14.3907 12.7556 14.505 12.7556H16.4404C16.5261 12.7556 16.5935 12.7148 16.6424 12.6331C16.6915 12.5515 16.716 12.4535 16.716 12.3392C16.716 12.2249 16.6915 12.1269 16.6424 12.0452Z" fill="#4C4C4C"/>
<path d="M16.3246 13.6744H7.67595C7.29365 13.6744 6.9837 13.9843 6.9837 14.3666C6.9837 14.7489 7.29365 15.0589 7.67595 15.0589H16.3246C16.7069 15.0589 17.0169 14.7489 17.0169 14.3666C17.0169 13.9843 16.7069 13.6744 16.3246 13.6744Z" fill="#4C4C4C"/>
</svg>
