<?xml version="1.0" encoding="utf-8"?>
<!-- Generator: Adobe Illustrator 21.0.0, SVG Export Plug-In . SVG Version: 6.00 Build 0)  -->
<svg version="1.1" id="Layer_1" xmlns="http://www.w3.org/2000/svg" xmlns:xlink="http://www.w3.org/1999/xlink" x="0px" y="0px"
	 viewBox="0 0 24 24" style="enable-background:new 0 0 24 24;" xml:space="preserve">
<style type="text/css">
	.st0{fill:#FFFFFF;}
	.st1{fill:#DF4934;}
</style>
<path class="st0" d="M12,24c6.6,0,12-5.4,12-12S18.6,0,12,0S0,5.4,0,12S5.4,24,12,24z"/>
<g>
	<path class="st1" d="M15.7,10.3H8.3c-0.2,0-0.4,0.2-0.4,0.4v6.3c0,1.1,0.9,1.9,1.9,1.9h4.3c1.1,0,1.9-0.9,1.9-1.9v-6.3
		C16.1,10.5,15.9,10.3,15.7,10.3z M11,16.6c0,0.3-0.2,0.5-0.5,0.5c-0.3,0-0.5-0.2-0.5-0.5v-3.8c0-0.3,0.2-0.5,0.5-0.5
		s0.5,0.2,0.5,0.5V16.6z M14,16.6c0,0.3-0.2,0.5-0.5,0.5c-0.3,0-0.5-0.2-0.5-0.5v-3.8c0-0.3,0.2-0.5,0.5-0.5c0.3,0,0.5,0.2,0.5,0.5
		V16.6z"/>
	<path class="st1" d="M15.6,6.7h-2V5.5c0-0.3-0.2-0.5-0.5-0.5h-2.3c-0.3,0-0.5,0.2-0.5,0.5v1.2h-2C7.6,6.7,7,7.2,7,7.9v0.8
		C7,8.9,7.1,9,7.3,9h9.4C16.9,9,17,8.9,17,8.7V7.9C17,7.2,16.4,6.7,15.6,6.7z"/>
</g>
</svg>
