<svg width="22" height="24" viewBox="0 0 22 24" fill="none" xmlns="http://www.w3.org/2000/svg">
<path d="M14.3393 9.875C14.5809 9.875 14.7768 10.0709 14.7768 10.3125C14.7768 10.5541 14.5809 10.75 14.3393 10.75H4.68299C4.44134 10.75 4.24548 10.5541 4.24548 10.3125C4.24548 10.0709 4.44134 9.875 4.68299 9.875H14.3393Z" fill="#4C4C4C" stroke="#4C4C4C"/>
<path d="M4.24548 14.0625C4.24548 13.8209 4.44134 13.625 4.68298 13.625H10.5475C10.7892 13.625 10.985 13.8209 10.985 14.0625C10.985 14.3041 10.7892 14.5 10.5475 14.5H4.68298C4.44134 14.5 4.24548 14.3041 4.24548 14.0625Z" fill="#4C4C4C" stroke="#4C4C4C"/>
<path d="M3.75 22.625H6.88542C7.12706 22.625 7.32292 22.8209 7.32292 23.0625C7.32292 23.3041 7.12706 23.5 6.88542 23.5H3.75C1.95839 23.5 0.5 22.0416 0.5 20.25V3.75C0.5 1.95839 1.95839 0.5 3.75 0.5H15.276C17.0677 0.5 18.526 1.95839 18.526 3.75V9.51562C18.526 9.75726 18.3302 9.95312 18.0885 9.95312C17.8469 9.95312 17.651 9.75726 17.651 9.51562V3.75C17.651 2.43998 16.5861 1.375 15.276 1.375H3.75C2.43998 1.375 1.375 2.43998 1.375 3.75V20.25C1.375 21.56 2.43998 22.625 3.75 22.625Z" fill="#4C4C4C" stroke="#4C4C4C"/>
<path d="M17.0632 13.9263L17.0628 13.9267L11.9158 19.0623C11.9158 19.0623 11.9158 19.0623 11.9158 19.0623C11.8649 19.1132 11.8272 19.1759 11.8062 19.2449L17.0632 13.9263ZM17.0632 13.9263C17.9637 13.0258 19.4314 13.0257 20.3328 13.9271C21.2342 14.8285 21.2342 16.2962 20.3329 17.1975L15.197 22.3237L15.1969 22.3238C15.1436 22.377 15.0774 22.4156 15.0047 22.4357L15.0047 22.4357L11.2207 23.4839L11.2206 23.4839C11.182 23.4946 11.1428 23.4998 11.104 23.4998C10.9875 23.4998 10.8742 23.4533 10.7907 23.3678L17.0632 13.9263ZM10.6853 22.9351L11.8062 19.245L10.6853 22.9351C10.6853 22.9351 10.6853 22.9351 10.6853 22.9351ZM14.5336 21.6583L14.6603 21.6232L14.7533 21.5303L18.2057 18.0844L18.56 17.7308L18.2061 17.3769L16.88 16.0508L16.5268 15.6977L16.1733 16.0505L12.7003 19.5157L12.6115 19.6043L12.5751 19.7243L12.018 21.5585L11.7538 22.4283L12.6299 22.1857L14.5336 21.6583ZM19.7145 16.5786L19.7149 16.5782C20.2752 16.0178 20.2748 15.1065 19.7142 14.5459C19.1534 13.9851 18.2421 13.9851 17.6813 14.5459L17.5006 14.7262L17.1463 15.0797L17.5002 15.4336L18.8261 16.7595L19.1793 17.1127L19.5328 16.7599L19.7145 16.5786Z" fill="#4C4C4C" stroke="#4C4C4C"/>
<path d="M4.68299 6.125H14.3393C14.5809 6.125 14.7768 6.32086 14.7768 6.5625C14.7768 6.80414 14.5809 7 14.3393 7H4.68299C4.44134 7 4.24548 6.80414 4.24548 6.5625C4.24548 6.32086 4.44134 6.125 4.68299 6.125Z" fill="#4C4C4C" stroke="#4C4C4C"/>
</svg>
