<svg width="21" height="23" viewBox="0 0 21 23" fill="none" xmlns="http://www.w3.org/2000/svg">
<g clip-path="url(#clip0)">
<path d="M0 0C5.76543 0 11.5185 0 17.284 0C17.284 0.0246914 17.284 0.0493827 17.284 0.0740741C17.284 6.87654 17.284 13.6667 17.284 20.4691C17.284 20.5309 17.2716 20.5802 17.2716 20.642C11.5062 20.642 5.75309 20.642 0 20.642C0 13.7531 0 6.87654 0 0ZM16.2346 19.6049C16.2346 13.4198 16.2346 7.24691 16.2346 1.06173C11.1728 1.06173 6.11111 1.06173 1.04938 1.06173C1.04938 7.24691 1.04938 13.4198 1.04938 19.6049C6.12346 19.6049 11.1728 19.6049 16.2346 19.6049Z" fill="#4C4C4C"/>
<path d="M20.0249 23C14.2718 23 8.5064 23 2.74097 23C2.74097 22.4074 2.74097 21.8395 2.74097 21.2469C3.0743 21.2469 3.40763 21.2469 3.76566 21.2469C3.76566 21.4815 3.76566 21.7037 3.76566 21.9383C8.83973 21.9383 13.8891 21.9383 18.9632 21.9383C18.9632 15.7654 18.9632 9.59257 18.9632 3.38269C18.6545 3.38269 18.3336 3.38269 18.0126 3.38269C18.0126 3.02467 18.0126 2.69134 18.0126 2.34566C18.6916 2.34566 19.3583 2.34566 20.0249 2.34566C20.0249 9.23455 20.0249 16.1111 20.0249 23Z" fill="#4C4C4C"/>
<path d="M13.1232 12.0741C13.5059 11.7778 13.9257 11.679 14.3948 11.8395C14.9874 12.0494 15.3455 12.6914 15.2097 13.3334C15.0862 13.9507 14.5059 14.3828 13.8516 14.3457C13.2343 14.3087 12.7158 13.8025 12.6664 13.1976C12.6541 13.0494 12.6047 12.963 12.4689 12.9013C12.0121 12.642 11.5677 12.3704 11.1109 12.1111C11.0615 12.0865 10.9627 12.0741 10.9134 12.1111C10.6417 12.284 10.3578 12.3828 10.0245 12.3334C9.97508 12.321 9.90101 12.3704 9.87632 12.4074C9.1973 13.4198 8.51829 14.4445 7.83928 15.4692C7.80224 15.5309 7.80224 15.642 7.82693 15.7161C7.99977 16.1976 7.86397 16.7284 7.4936 17.0741C7.09854 17.4321 6.53064 17.5309 6.0615 17.2963C5.58002 17.0618 5.29607 16.5926 5.32076 16.0618C5.32076 16 5.28372 15.9136 5.23434 15.8642C4.81459 15.5062 4.39484 15.1605 3.96274 14.8272C3.90101 14.7778 3.7899 14.7655 3.72817 14.7902C3.02446 15.0371 2.28372 14.679 2.0615 13.963C1.83928 13.2469 2.25903 12.5062 2.98743 12.321C3.69113 12.1482 4.43187 12.605 4.56767 13.321C4.59237 13.4568 4.60471 13.6173 4.56767 13.7408C4.51829 13.9013 4.58002 13.9753 4.69113 14.0618C5.09854 14.3828 5.4936 14.7161 5.90101 15.0494C6.20965 14.8642 6.53064 14.7408 6.90101 14.8642C6.9257 14.8766 6.98743 14.8272 7.01212 14.7902C7.69113 13.7778 8.3578 12.7778 9.02447 11.7655C9.04916 11.7284 9.04916 11.642 9.02447 11.5926C8.65409 10.9136 9.04916 10.0741 9.72817 9.8272C10.4566 9.56794 11.222 9.963 11.4319 10.7284C11.4319 10.7531 11.4566 10.7655 11.4442 10.7778C11.3948 11.0988 11.6047 11.2099 11.8393 11.3334C12.2714 11.5679 12.6911 11.8272 13.1232 12.0741Z" fill="#4C4C4C"/>
<path d="M14.6544 3.37036C14.6544 3.72839 14.6544 4.07407 14.6544 4.43209C10.7285 4.43209 6.80253 4.43209 2.86426 4.43209C2.86426 4.08641 2.86426 3.74073 2.86426 3.37036C6.79018 3.37036 10.7161 3.37036 14.6544 3.37036Z" fill="#4C4C4C"/>
<path d="M14.6544 6.81482C14.6544 7.17284 14.6544 7.51852 14.6544 7.87655C10.7285 7.87655 6.80253 7.87655 2.86426 7.87655C2.86426 7.53087 2.86426 7.18519 2.86426 6.81482C6.79018 6.81482 10.7161 6.81482 14.6544 6.81482Z" fill="#4C4C4C"/>
</g>
<defs>
<clipPath id="clip0">
<rect width="20.0247" height="23" fill="white"/>
</clipPath>
</defs>
</svg>
