<?xml version="1.0" encoding="utf-8"?>
<!-- Generator: Adobe Illustrator 21.0.0, SVG Export Plug-In . SVG Version: 6.00 Build 0)  -->
<svg version="1.1" id="Layer_1" xmlns="http://www.w3.org/2000/svg" xmlns:xlink="http://www.w3.org/1999/xlink" x="0px" y="0px"
	 viewBox="0 0 29 30" style="enable-background:new 0 0 29 30;" xml:space="preserve">
<style type="text/css">
	.st0{fill:#4C4C4C;stroke:#4C4C4C;}
</style>
<path class="st0" d="M17.8,12.8c0.2,0,0.4,0.2,0.4,0.4s-0.2,0.4-0.4,0.4H8.2c-0.2,0-0.4-0.2-0.4-0.4s0.2-0.4,0.4-0.4H17.8z"/>
<path class="st0" d="M7.7,17c0-0.2,0.2-0.4,0.4-0.4H14c0.2,0,0.4,0.2,0.4,0.4c0,0.2-0.2,0.4-0.4,0.4H8.2C7.9,17.4,7.7,17.2,7.7,17z"
	/>
<path class="st0" d="M7.2,25.5h3.1c0.2,0,0.4,0.2,0.4,0.4c0,0.2-0.2,0.4-0.4,0.4H7.2c-1.8,0-3.2-1.5-3.2-3.2V6.7
	C4,5,5.5,3.5,7.2,3.5h11.5c1.8,0,3.2,1.5,3.2,3.2v5.8c0,0.2-0.2,0.4-0.4,0.4s-0.4-0.2-0.4-0.4V6.7c0-1.3-1.1-2.4-2.4-2.4H7.2
	c-1.3,0-2.4,1.1-2.4,2.4v16.4C4.9,24.5,5.9,25.5,7.2,25.5z"/>
<path class="st0" d="M20.5,16.9L20.5,16.9L15.4,22l0,0c-0.1,0.1-0.1,0.1-0.1,0.2L20.5,16.9z M20.5,16.9c0.9-0.9,2.4-0.9,3.3,0
	c0.9,0.9,0.9,2.4,0,3.3l-5.1,5.1l0,0c-0.1,0.1-0.1,0.1-0.2,0.1l0,0l-3.8,1l0,0h-0.1c-0.1,0-0.2,0-0.3-0.1L20.5,16.9z M23.1,19.5
	L23.1,19.5l-0.2,0.2l-0.4,0.4l-0.4-0.4l-1.3-1.3L20.4,18l0.4-0.4l0.2-0.2L23.1,19.5z M23.1,19.5c0.6-0.6,0.6-1.5,0-2
	c-0.6-0.6-1.5-0.6-2,0L23.1,19.5z M14.1,25.8l1.1-3.7L14.1,25.8L14.1,25.8z M18,24.6h0.1l0.1-0.1l3.4-3.4l0.4-0.4l-0.4-0.4L20.3,19
	L20,18.6L19.6,19l-3.5,3.5l0,0v0.1l-0.6,1.9l-0.3,0.9l0.9-0.2L18,24.6z"/>
<path class="st0" d="M8.2,9.1h9.6c0.2,0,0.4,0.2,0.4,0.4S18,9.9,17.8,9.9H8.2C8,9.9,7.8,9.7,7.8,9.5C7.7,9.3,7.9,9.1,8.2,9.1z"/>
</svg>
