<svg width="169" height="160" viewBox="0 0 169 160" fill="none" xmlns="http://www.w3.org/2000/svg">
<circle r="80" transform="matrix(1 0 0 -1 82 80)" fill="#E0E0E0"/>
<path d="M84.1851 20.625C87.7059 20.625 90.5601 17.7708 90.5601 14.25C90.5601 10.7292 87.7059 7.875 84.1851 7.875C80.6642 7.875 77.8101 10.7292 77.8101 14.25C77.8101 17.7708 80.6642 20.625 84.1851 20.625Z" fill="#C1EE92"/>
<path d="M97.9783 37.5C97.9783 32.6331 94.0327 28.6875 89.1658 28.6875C84.2988 28.6875 80.3533 32.6331 80.3533 37.5H97.9783Z" fill="#FF5D5D"/>
<path d="M60.9443 37.5C64.4651 37.5 67.3193 34.6458 67.3193 31.125C67.3193 27.6042 64.4651 24.75 60.9443 24.75C57.4235 24.75 54.5693 27.6042 54.5693 31.125C54.5693 34.6458 57.4235 37.5 60.9443 37.5Z" fill="#FED284"/>
<path d="M110.337 37.5H45.237C43.7361 37.5 42.8436 39.1759 43.6811 40.4213L69.162 78.3124V100.125L86.412 92.6132V78.3124L111.893 40.4213C112.73 39.1759 111.838 37.5 110.337 37.5Z" fill="#96EDE7"/>
<path d="M110.337 37.5H45.237C43.7361 37.5 42.8436 39.1759 43.6811 40.4212L47.7688 46.5H107.805L111.893 40.4212C112.73 39.1759 111.838 37.5 110.337 37.5Z" fill="#D9F9F7"/>
<path d="M113.647 37.6123C112.994 36.3864 111.726 35.625 110.337 35.625H99.6853C98.796 30.6234 94.419 26.8125 89.1658 26.8125C83.9126 26.8125 79.5356 30.6234 78.6463 35.625H67.8547C68.7011 34.3298 69.1954 32.7844 69.1954 31.125C69.1954 26.5759 65.4945 22.875 60.9454 22.875C56.3962 22.875 52.6954 26.5759 52.6954 31.125C52.6954 32.7844 53.1896 34.3298 54.036 35.625H45.2374C43.8485 35.625 42.5805 36.3864 41.9276 37.6123C41.2749 38.838 41.3507 40.3153 42.1256 41.4677L67.2874 78.8844V100.125C67.2874 100.757 67.6059 101.347 68.1349 101.693C68.4448 101.896 68.8027 102 69.1625 102C69.4164 102 69.6712 101.948 69.911 101.844L87.161 94.3322C87.845 94.0342 88.2874 93.3593 88.2874 92.6132V78.8843L113.449 41.4675C114.224 40.3153 114.3 38.838 113.647 37.6123ZM89.1658 30.5625C92.3415 30.5625 95.0235 32.7081 95.8438 35.625H82.488C83.3081 32.7081 85.9903 30.5625 89.1658 30.5625ZM56.4455 31.125C56.4455 28.6438 58.4644 26.625 60.9455 26.625C63.4267 26.625 65.4455 28.6438 65.4455 31.125C65.4455 33.6062 63.4267 35.625 60.9455 35.625C58.4644 35.625 56.4455 33.6062 56.4455 31.125ZM84.8563 77.2661C84.6484 77.5753 84.5372 77.9396 84.5372 78.3124V91.3847L71.0372 97.2634V80.1874H77.811C78.8465 80.1874 79.686 79.3479 79.686 78.3124C79.686 77.2768 78.8465 76.4374 77.811 76.4374H70.1608L51.2902 48.375H89.1658C90.2014 48.375 91.0408 47.5356 91.0408 46.5C91.0408 45.4644 90.2014 44.625 89.1658 44.625H48.7685L45.2381 39.375H110.337L84.8563 77.2661Z" fill="black"/>
<path d="M84.1856 22.5C88.7347 22.5 92.4356 18.7991 92.4356 14.25C92.4356 9.70088 88.7347 6 84.1856 6C79.6364 6 75.9355 9.70088 75.9355 14.25C75.9355 18.7991 79.6366 22.5 84.1856 22.5ZM84.1856 9.75C86.6667 9.75 88.6856 11.7688 88.6856 14.25C88.6856 16.7312 86.6667 18.75 84.1856 18.75C81.7044 18.75 79.6855 16.7312 79.6855 14.25C79.6855 11.7688 81.7044 9.75 84.1856 9.75Z" fill="black"/>
<path d="M104.225 29.4691C105.26 29.4691 106.1 28.6296 106.1 27.5941V16.9375C106.1 15.9019 105.26 15.0625 104.225 15.0625C103.189 15.0625 102.35 15.9019 102.35 16.9375V27.5939C102.35 28.6296 103.189 29.4691 104.225 29.4691Z" fill="black"/>
<path d="M104.225 12.6562C104.718 12.6562 105.201 12.4556 105.55 12.1069C105.899 11.7581 106.1 11.2744 106.1 10.7812C106.1 10.2881 105.899 9.80438 105.55 9.45563C105.201 9.10688 104.718 8.90625 104.225 8.90625C103.731 8.90625 103.248 9.10688 102.899 9.45563C102.55 9.80438 102.35 10.2881 102.35 10.7812C102.35 11.2744 102.55 11.7581 102.899 12.1069C103.248 12.4556 103.731 12.6562 104.225 12.6562Z" fill="black"/>
<path d="M67.3203 19.832C68.3559 19.832 69.1953 18.9926 69.1953 17.957V10.2695C69.1953 9.23397 68.3559 8.39453 67.3203 8.39453C66.2847 8.39453 65.4453 9.23397 65.4453 10.2695V17.957C65.4453 18.9926 66.2847 19.832 67.3203 19.832Z" fill="black"/>
<path d="M41.7871 21.969C42.8227 21.969 43.6621 21.1296 43.6621 20.094V7.875C43.6621 6.83944 42.8227 6 41.7871 6C40.7515 6 39.9121 6.83944 39.9121 7.875V20.094C39.9121 21.1296 40.7515 21.969 41.7871 21.969Z" fill="black"/>
<path d="M43.1127 28.4506C43.4615 28.1019 43.6621 27.6181 43.6621 27.125C43.6621 26.63 43.4615 26.1481 43.1127 25.7994C42.764 25.4488 42.2802 25.25 41.7871 25.25C41.294 25.25 40.8102 25.4488 40.4615 25.7994C40.1127 26.1481 39.9121 26.63 39.9121 27.125C39.9121 27.6181 40.1127 28.1019 40.4615 28.4506C40.8102 28.7994 41.294 29 41.7871 29C42.2802 29 42.764 28.7994 43.1127 28.4506Z" fill="black"/>
<path d="M96.1768 45.1744C95.8262 45.5231 95.6274 46.0069 95.6274 46.5C95.6274 46.9931 95.8262 47.4769 96.1768 47.8256C96.5256 48.1744 97.0074 48.375 97.5024 48.375C97.9956 48.375 98.4774 48.1744 98.8281 47.8256C99.1768 47.4769 99.3774 46.9931 99.3774 46.5C99.3774 46.0069 99.1768 45.5231 98.8281 45.1744C98.4793 44.8256 97.9956 44.625 97.5024 44.625C97.0074 44.625 96.5237 44.8256 96.1768 45.1744Z" fill="black"/>
<path d="M4.86899 18.3034L5.88761 21.1677C5.93125 21.2904 6.01751 21.3875 6.12651 21.4365L8.67133 22.583C9.03093 22.745 9.03093 23.3178 8.67133 23.4798L6.12651 24.6263C6.01751 24.6755 5.93125 24.7726 5.88761 24.8953L4.86899 27.7596C4.72505 28.1643 4.21615 28.1643 4.07221 27.7596L3.05358 24.8953C3.00995 24.7726 2.92368 24.6755 2.81468 24.6263L0.269703 23.4801C-0.089901 23.3181 -0.089901 22.7454 0.269703 22.5834L2.81468 21.4367C2.92368 21.3875 3.00995 21.2904 3.05358 21.1679L4.07221 18.3036C4.21615 17.8988 4.72505 17.8988 4.86899 18.3034Z" fill="#474343"/>
<path d="M128.749 103.765C138.146 103.765 145.763 96.1475 145.763 86.7514C145.763 77.3553 138.146 69.7383 128.749 69.7383C119.353 69.7383 111.736 77.3553 111.736 86.7514C111.736 96.1475 119.353 103.765 128.749 103.765Z" fill="#F4858A"/>
<path d="M128.75 105.499C118.411 105.499 110 97.0876 110 86.7494C110 76.411 118.411 68 128.75 68C138.196 68 146.195 75.059 147.356 84.4201C147.474 85.3717 146.798 86.239 145.846 86.357C144.895 86.4752 144.027 85.799 143.909 84.8475C142.964 77.2228 136.446 71.4731 128.75 71.4731C120.326 71.4731 113.473 78.3261 113.473 86.7496C113.473 95.173 120.326 102.026 128.75 102.026C132.84 102.026 136.684 100.43 139.571 97.532C140.248 96.8527 141.348 96.8508 142.027 97.5276C142.706 98.2045 142.708 99.3042 142.031 99.9835C138.487 103.54 133.77 105.499 128.75 105.499Z" fill="black"/>
<path d="M121.828 84.766C120.869 84.766 120.092 83.9885 120.092 83.0296V80.6661C120.092 79.7071 120.869 78.9297 121.828 78.9297C122.787 78.9297 123.564 79.7071 123.564 80.6661V83.0296C123.564 83.9886 122.787 84.766 121.828 84.766Z" fill="black"/>
<path d="M135.671 84.766C134.712 84.766 133.935 83.9885 133.935 83.0296V80.6661C133.935 79.7071 134.712 78.9297 135.671 78.9297C136.63 78.9297 137.408 79.7071 137.408 80.6661V83.0296C137.408 83.9886 136.63 84.766 135.671 84.766Z" fill="black"/>
<path d="M134.553 94.1775C133.991 94.1775 133.439 93.9044 133.104 93.4001C132.212 92.0538 130.717 91.2501 129.106 91.2501H128.393C126.782 91.2501 125.287 92.0538 124.395 93.4003C123.865 94.1997 122.787 94.418 121.988 93.8886C121.188 93.3588 120.97 92.2811 121.5 91.4819C123.037 89.1623 125.614 87.7773 128.393 87.7773H129.106C131.885 87.7773 134.462 89.1623 135.999 91.482C136.529 92.2815 136.31 93.359 135.511 93.8886C135.216 94.0839 134.883 94.1775 134.553 94.1775Z" fill="black"/>
<path d="M14.869 67.3034L15.8876 70.1677C15.9312 70.2904 16.0175 70.3875 16.1265 70.4365L18.6713 71.583C19.0309 71.745 19.0309 72.3178 18.6713 72.4798L16.1265 73.6263C16.0175 73.6755 15.9312 73.7726 15.8876 73.8953L14.869 76.7596C14.725 77.1643 14.2162 77.1643 14.0722 76.7596L13.0536 73.8953C13.0099 73.7726 12.9237 73.6755 12.8147 73.6263L10.2697 72.4801C9.9101 72.3181 9.9101 71.7454 10.2697 71.5834L12.8147 70.4367C12.9237 70.3875 13.0099 70.2904 13.0536 70.1679L14.0722 67.3036C14.2162 66.8988 14.725 66.8988 14.869 67.3034Z" fill="#7C7C7C"/>
<path d="M162.564 16.4091L163.937 20.2707C163.996 20.436 164.112 20.5671 164.259 20.6331L167.69 22.1788C168.174 22.3972 168.174 23.1694 167.69 23.3879L164.259 24.9336C164.112 24.9998 163.996 25.1307 163.937 25.2962L162.564 29.1578C162.37 29.7033 161.684 29.7033 161.49 29.1578L160.116 25.2962C160.057 25.1309 159.941 24.9998 159.794 24.9336L156.363 23.3879C155.879 23.1695 155.879 22.3973 156.363 22.1788L159.794 20.6331C159.941 20.5669 160.057 20.436 160.116 20.2707L161.49 16.4091C161.684 15.8636 162.37 15.8636 162.564 16.4091Z" fill="#656565"/>
<path d="M79.8584 131.5L85.3043 136.946C86.2317 137.874 86.2317 139.377 85.3043 140.304C84.3769 141.232 82.8735 141.232 81.9461 140.304L76.5002 134.859L71.0543 140.304C70.1281 141.232 68.6223 141.232 67.6961 140.304C66.7686 139.377 66.7686 137.874 67.6961 136.946L73.1419 131.5L67.6961 126.054C66.7686 125.127 66.7686 123.624 67.6961 122.696C68.1592 122.232 68.7672 122 69.3752 122C69.9832 122 70.5912 122.232 71.0543 122.696L76.5002 128.142L81.9461 122.696C82.4104 122.232 83.0172 122 83.6252 122C84.2332 122 84.84 122.232 85.3043 122.696C86.2317 123.624 86.2317 125.127 85.3043 126.054L79.8584 131.5Z" fill="black"/>
<path d="M99.1211 109L102.561 112.44C103.146 113.025 103.146 113.975 102.561 114.561C101.975 115.146 101.025 115.146 100.44 114.561L97.0001 111.121L93.5606 114.561C92.9756 115.146 92.0246 115.146 91.4396 114.561C90.8538 113.975 90.8538 113.025 91.4396 112.44L94.8791 109L91.4396 105.561C90.8538 104.975 90.8538 104.025 91.4396 103.44C91.7321 103.146 92.1161 103 92.5001 103C92.8841 103 93.2681 103.146 93.5606 103.44L97.0001 106.879L100.44 103.44C100.733 103.146 101.116 103 101.5 103C101.884 103 102.267 103.146 102.561 103.44C103.146 104.025 103.146 104.975 102.561 105.561L99.1211 109Z" fill="black"/>
<path d="M59.4141 105L61.7071 107.293C62.0976 107.684 62.0976 108.317 61.7071 108.707C61.3166 109.098 60.6836 109.098 60.2931 108.707L58.0001 106.414L55.7071 108.707C55.3171 109.098 54.6831 109.098 54.2931 108.707C53.9026 108.317 53.9026 107.684 54.2931 107.293L56.5861 105L54.2931 102.707C53.9026 102.317 53.9026 101.684 54.2931 101.293C54.4881 101.098 54.7441 101 55.0001 101C55.2561 101 55.5121 101.098 55.7071 101.293L58.0001 103.586L60.2931 101.293C60.4886 101.098 60.7441 101 61.0001 101C61.2561 101 61.5116 101.098 61.7071 101.293C62.0976 101.684 62.0976 102.317 61.7071 102.707L59.4141 105Z" fill="black"/>
</svg>
