<svg width="24" height="24" viewBox="0 0 24 24" fill="none" xmlns="http://www.w3.org/2000/svg">
<path d="M19.7351 9.15401H19.2549V6.83648C19.2549 6.82204 19.2526 6.80748 19.2507 6.79286C19.2499 6.70082 19.2206 6.61047 19.1576 6.53887L15.3016 2.13413C15.3004 2.133 15.2993 2.13259 15.2985 2.13146C15.2755 2.10567 15.2487 2.08433 15.2203 2.06599C15.212 2.06026 15.2035 2.05555 15.1947 2.05063C15.1702 2.03728 15.1441 2.02615 15.1173 2.01809C15.11 2.01609 15.1035 2.01313 15.0963 2.01123C15.0671 2.0043 15.0369 2 15.0063 2H5.52941C5.09668 2 4.74511 2.35204 4.74511 2.78433V9.15368H4.26493C3.64588 9.15368 3.14392 9.65546 3.14392 10.2747V16.1042C3.14392 16.7231 3.64588 17.2252 4.26493 17.2252H4.74511V21.2157C4.74511 21.6481 5.09668 22 5.52941 22H18.4706C18.9029 22 19.2549 21.6481 19.2549 21.2157V17.2252H19.7351C20.354 17.2252 20.856 16.7231 20.856 16.1042V10.2749C20.856 9.6555 20.354 9.15401 19.7351 9.15401ZM5.52941 2.78433H14.6141V6.79712C14.6141 7.01376 14.7899 7.18925 15.0063 7.18925H18.4706V9.15394H5.52941V2.78433ZM13.593 13.0681C13.593 14.8106 12.5361 15.8676 10.9827 15.8676C9.4057 15.8676 8.48295 14.6769 8.48295 13.1627C8.48295 11.5694 9.50018 10.3788 11.0694 10.3788C12.7019 10.3788 13.593 11.6012 13.593 13.0681ZM4.9967 15.7806V10.4658H6.2031V14.7715H8.31672V15.7804H4.9967V15.7806ZM18.4706 21.0031H5.52941V17.2252H18.4706V21.0031H18.4706ZM18.8223 15.5363C18.4516 15.6623 17.7498 15.8358 17.048 15.8358C16.0781 15.8358 15.3762 15.5914 14.8871 15.1185C14.3985 14.6612 14.1302 13.967 14.1383 13.1864C14.1461 11.4196 15.4313 10.4102 17.1742 10.4102C17.8605 10.4102 18.3886 10.5447 18.649 10.6706L18.3966 11.6325C18.1048 11.5064 17.7422 11.4039 17.1585 11.4039C16.1573 11.4039 15.4 11.9717 15.4 13.1232C15.4 14.2193 16.086 14.8657 17.0718 14.8657C17.3477 14.8657 17.5687 14.8346 17.6631 14.7872V13.6751H16.8431V12.7368H18.8223V15.5363V15.5363Z" fill="#4C4C4C"/>
<path d="M9.7525 13.139C9.7525 14.1798 10.2415 14.9132 11.0457 14.9132C11.858 14.9132 12.3231 14.1404 12.3231 13.1076C12.3231 12.1536 11.8658 11.3328 11.0378 11.3328C10.2256 11.3328 9.7525 12.1058 9.7525 13.139Z" fill="#4C4C4C"/>
</svg>
