<svg width="22" height="24" viewBox="0 0 22 24" fill="none" xmlns="http://www.w3.org/2000/svg">
<path d="M14.2756 9.83203C14.515 9.83203 14.709 10.0261 14.709 10.2654C14.709 10.5048 14.515 10.6988 14.2756 10.6988H4.66178C4.42241 10.6988 4.22839 10.5048 4.22839 10.2654C4.22839 10.026 4.42241 9.83203 4.66178 9.83203H14.2756Z" fill="#4C4C4C" stroke="#4C4C4C"/>
<path d="M4.22839 13.9998C4.22839 13.7604 4.42241 13.5664 4.66177 13.5664H10.5006C10.7399 13.5664 10.934 13.7604 10.934 13.9998C10.934 14.2392 10.7399 14.4332 10.5006 14.4332H4.66177C4.42241 14.4332 4.22839 14.2392 4.22839 13.9998Z" fill="#4C4C4C" stroke="#4C4C4C"/>
<path d="M3.73353 22.5278H6.85518C7.09455 22.5278 7.28856 22.7218 7.28856 22.9612C7.28856 23.2006 7.09455 23.3946 6.85518 23.3946H3.73353C1.951 23.3946 0.5 21.9436 0.5 20.1611V3.73353C0.5 1.951 1.951 0.5 3.73353 0.5H15.209C16.9915 0.5 18.4425 1.951 18.4425 3.73353V9.47383C18.4425 9.7132 18.2485 9.90721 18.0091 9.90721C17.7697 9.90721 17.5757 9.7132 17.5757 9.47383V3.73353C17.5757 2.42805 16.5144 1.36676 15.209 1.36676H3.73353C2.42805 1.36676 1.36676 2.42805 1.36676 3.73353V20.1611C1.36676 21.4665 2.42805 22.5278 3.73353 22.5278Z" fill="#4C4C4C" stroke="#4C4C4C"/>
<path d="M16.99 13.8671L16.9896 13.8675L11.8652 18.9805C11.8652 18.9805 11.8652 18.9805 11.8652 18.9805C11.8147 19.0309 11.7774 19.093 11.7566 19.1613L16.99 13.8671ZM16.99 13.8671C17.8857 12.9713 19.3455 12.9712 20.2421 13.8678C21.1387 14.7644 21.1387 16.2243 20.2422 17.1208L15.1288 22.2245L15.1288 22.2245C15.076 22.2773 15.0104 22.3155 14.9384 22.3354L14.9384 22.3354L11.171 23.379L11.1708 23.379C11.1326 23.3896 11.0938 23.3948 11.0554 23.3948C10.94 23.3948 10.8277 23.3487 10.7451 23.264L16.99 13.8671ZM19.63 16.5073L19.6296 16.5077L19.4488 16.6881L19.0952 17.041L18.742 16.6878L17.422 15.3678L17.0681 15.0138L17.4223 14.6603L17.6022 14.4808L19.63 16.5073ZM19.63 16.5073C20.1887 15.9485 20.1883 15.0398 19.6293 14.4808C19.0702 13.9217 18.1618 13.9216 17.6026 14.4804L19.63 16.5073ZM10.6406 22.8353L11.7566 19.1614L10.6406 22.8354C10.6406 22.8354 10.6406 22.8354 10.6406 22.8353ZM14.4705 21.5656L14.5972 21.5305L14.6902 21.4377L18.1275 18.0068L18.4817 17.6533L18.1278 17.2994L16.8076 15.9791L16.4544 15.626L16.1008 15.9787L12.6432 19.4288L12.5544 19.5174L12.5179 19.6374L11.9632 21.4635L11.699 22.3334L12.5751 22.0907L14.4705 21.5656Z" fill="#4C4C4C" stroke="#4C4C4C"/>
<path d="M4.66178 6.10156H14.2756C14.515 6.10156 14.709 6.29558 14.709 6.53494C14.709 6.77431 14.515 6.96833 14.2756 6.96833H4.66178C4.42241 6.96833 4.22839 6.77431 4.22839 6.53494C4.22839 6.29558 4.42241 6.10156 4.66178 6.10156Z" fill="#4C4C4C" stroke="#4C4C4C"/>
</svg>
