<svg width="18" height="18" viewBox="0 0 18 18" fill="none" xmlns="http://www.w3.org/2000/svg">
<path d="M17.9996 4.30425C17.9996 4.25378 17.9887 4.20447 17.9703 4.15869C17.9628 4.1403 17.9499 4.12621 17.9397 4.109C17.9264 4.08669 17.9167 4.06243 17.899 4.04287L14.377 0.12991C14.303 0.0473468 14.1974 0 14.0863 0H13.3209C13.3095 0 13.2978 0 13.2865 0H7.43423C6.78703 0 6.26034 0.526684 6.26034 1.17389V3.13037H1.17389C0.526684 3.13037 0 3.65705 0 4.30425V16.8257C0 17.4729 0.526684 17.9996 1.17389 17.9996H10.565C11.2122 17.9996 11.7389 17.4729 11.7389 16.8257V14.8692H16.8257C17.4729 14.8692 17.9996 14.3426 17.9996 13.6954V5.0888C17.9996 5.08802 18 5.08763 18 5.08685L17.9996 4.30425ZM10.9563 16.8257C10.9563 17.0413 10.7806 17.217 10.565 17.217H1.17389C0.958284 17.217 0.782592 17.0413 0.782592 16.8257V4.30425C0.782592 4.08865 0.958284 3.91296 1.17389 3.91296H6.26073V8.21721C6.26073 8.43321 6.43603 8.60851 6.65203 8.60851H10.9563V16.8257ZM10.9563 7.82592H7.04333V3.91296H7.27262L10.9563 7.59701V7.82592ZM17.217 13.6954C17.217 13.9114 17.0413 14.0867 16.8257 14.0867H11.7389V8.23482C11.7389 8.22895 11.7393 8.22308 11.7393 8.21721L11.7389 7.43462C11.7389 7.43462 11.7389 7.43423 11.7389 7.43345C11.7385 7.32975 11.6982 7.23584 11.6321 7.16619C11.6321 7.16541 11.6309 7.16541 11.6313 7.16541C11.6313 7.16541 11.6309 7.16502 11.6309 7.16463C11.6305 7.16463 11.6301 7.16424 11.6301 7.16384C11.6285 7.16228 11.6266 7.16032 11.6246 7.15837L7.71166 3.24541C7.63809 3.17184 7.53831 3.13037 7.43462 3.13037H7.04293V1.17389C7.04293 0.958284 7.21863 0.782592 7.43423 0.782592H12.9124V5.08685C12.9124 5.30284 13.0877 5.47814 13.3037 5.47814H17.217V13.6954ZM17.217 4.69555H13.695V0.782592H13.9121L17.217 4.45451V4.69555Z" fill="black"/>
</svg>
