<svg width="23" height="24" viewBox="0 0 23 24" fill="none" xmlns="http://www.w3.org/2000/svg">
<path d="M13.4827 9.31543C13.6935 9.31543 13.8643 9.48624 13.8643 9.69696C13.8643 9.90769 13.6935 10.0785 13.4827 10.0785H4.4029C4.19217 10.0785 4.02136 9.90769 4.02136 9.69696C4.02136 9.48624 4.19217 9.31543 4.4029 9.31543H13.4827Z" fill="#4C4C4C" stroke="#4C4C4C"/>
<path d="M4.02136 13.2233C4.02136 13.0126 4.19217 12.8418 4.4029 12.8418H9.91737C10.1281 12.8418 10.2989 13.0126 10.2989 13.2233C10.2989 13.4341 10.1281 13.6049 9.91737 13.6049H4.4029C4.19217 13.6049 4.02136 13.4341 4.02136 13.2233Z" fill="#4C4C4C" stroke="#4C4C4C"/>
<path d="M3.52565 21.3042H6.4739C6.68463 21.3042 6.85544 21.475 6.85544 21.6858C6.85544 21.8965 6.68463 22.0673 6.4739 22.0673H3.52565C1.85748 22.0673 0.499512 20.7093 0.499512 19.0412V3.52614C0.499512 1.85797 1.85748 0.5 3.52565 0.5H14.3636C16.0318 0.5 17.3898 1.85797 17.3898 3.52614V8.94758C17.3898 9.15831 17.219 9.32912 17.0082 9.32912C16.7975 9.32912 16.6267 9.15831 16.6267 8.94758V3.52614C16.6267 2.27784 15.6119 1.26307 14.3636 1.26307H3.52565C2.27735 1.26307 1.26258 2.27784 1.26258 3.52614V19.0412C1.26258 20.2895 2.27735 21.3042 3.52565 21.3042Z" fill="#4C4C4C" stroke="#4C4C4C"/>
<path d="M4.4029 5.78906H13.4827C13.6935 5.78906 13.8643 5.95987 13.8643 6.1706C13.8643 6.38133 13.6935 6.55213 13.4827 6.55213H4.4029C4.19217 6.55213 4.02136 6.38133 4.02136 6.1706C4.02136 5.95987 4.19217 5.78906 4.4029 5.78906Z" fill="#4C4C4C" stroke="#4C4C4C"/>
<path d="M21.3375 18.1973C21.5482 18.1973 21.719 18.3681 21.719 18.5788C21.719 18.7895 21.5482 18.9603 21.3375 18.9603H12.2576C12.0469 18.9603 11.8761 18.7895 11.8761 18.5788C11.8761 18.3681 12.0469 18.1973 12.2576 18.1973H21.3375Z" fill="#4C4C4C" stroke="#4C4C4C"/>
<path d="M16.4164 14.0386C16.4164 13.8279 16.5872 13.6571 16.7979 13.6571C17.0086 13.6571 17.1795 13.8279 17.1795 14.0386L17.1795 23.1185C17.1795 23.3292 17.0086 23.5 16.7979 23.5C16.5872 23.5 16.4164 23.3292 16.4164 23.1185L16.4164 14.0386Z" fill="#4C4C4C" stroke="#4C4C4C"/>
</svg>
