<svg width="22" height="22" viewBox="0 0 22 22" fill="none" xmlns="http://www.w3.org/2000/svg">
<g clip-path="url(#clip0)">
<path d="M2.74818 2.74739C2.38666 2.74739 2.05777 2.74567 1.72931 2.74782C1.43691 2.74954 1.37552 2.80922 1.37509 3.10032C1.37337 4.08742 1.37466 5.07495 1.37466 6.06205C1.37466 9.15259 1.37466 12.2431 1.37466 15.3341C1.37466 15.7742 1.39956 15.7999 1.83021 15.7999C5.04955 15.7999 8.2689 15.8012 11.4887 15.7995C12.9764 15.7987 14.4646 15.7922 15.9523 15.7884C16.0077 15.7884 16.0631 15.7884 16.1824 15.7884C15.8608 15.4706 15.5719 15.1984 15.2984 14.9116C14.9304 14.5256 15.094 13.9056 15.5994 13.7562C15.8501 13.6819 16.0876 13.727 16.2756 13.9133C16.9776 14.6076 17.6783 15.3032 18.3696 16.0078C18.6435 16.2868 18.638 16.6934 18.3619 16.9742C17.6745 17.6728 16.9815 18.3662 16.2825 19.0532C16.0008 19.3297 15.5663 19.3125 15.2992 19.039C15.0318 18.7651 15.0322 18.3461 15.3057 18.0545C15.4427 17.9085 15.5878 17.7699 15.7295 17.6286C15.8647 17.4933 16.0008 17.3585 16.1743 17.1859C16.0648 17.1859 16.0047 17.1859 15.9446 17.1859C11.2229 17.1825 6.50122 17.1791 1.77954 17.1756C0.845685 17.1752 0.00156212 16.3422 0.00113276 15.4109C-0.000155317 11.3187 -0.000584678 7.22648 0.00113276 3.13424C0.00156212 2.21112 0.839674 1.37773 1.76237 1.37387C2.08267 1.37258 2.4034 1.37344 2.74732 1.37344C2.74732 1.14502 2.74518 0.932483 2.74775 0.720379C2.7529 0.30347 3.04573 -0.00137557 3.4373 -8.74862e-05C3.82931 0.0012006 4.11999 0.305188 4.12128 0.725102C4.12385 1.61946 4.12385 2.51382 4.12128 3.40775C4.11999 3.81177 3.82759 4.11662 3.44718 4.12091C3.05174 4.12564 2.75591 3.82637 2.74861 3.40989C2.74518 3.19736 2.74818 2.98397 2.74818 2.74739Z" fill="#4C4C4C"/>
<path d="M22.0002 16.5055C21.9835 19.1607 19.8714 21.5806 17.2498 21.9322C14.9518 22.2405 12.5238 20.9361 11.5392 18.8649C11.3589 18.4853 11.4422 18.1251 11.7578 17.9203C12.1326 17.6773 12.5693 17.8082 12.7754 18.2337C13.0403 18.7811 13.3795 19.2736 13.8496 19.6635C15.0815 20.6849 16.4722 20.8494 17.9397 20.3277C19.3644 19.8211 20.2433 18.7966 20.5185 17.2973C20.7555 16.0053 20.512 14.8083 19.6396 13.804C18.6619 12.6787 17.3837 12.2484 15.9213 12.4107C14.4641 12.5722 13.4551 13.3918 12.8084 14.6821C12.6822 14.9337 12.5212 15.126 12.2284 15.1659C11.9544 15.2033 11.735 15.096 11.5749 14.8804C11.4066 14.6537 11.3967 14.4047 11.5174 14.1509C11.8943 13.3609 12.4302 12.6963 13.1343 12.1793C16.9084 9.40822 21.2892 11.8702 21.9294 15.7159C21.9732 15.9757 21.9779 16.2419 22.0002 16.5055Z" fill="#4C4C4C"/>
<path d="M13.0527 1.37315C13.0527 1.13529 13.0501 0.921896 13.0531 0.708504C13.0595 0.304476 13.3506 0.00349422 13.7336 5.93357e-05C14.1261 -0.00337555 14.421 0.300612 14.4266 0.716662C14.4292 0.924043 14.427 1.13142 14.427 1.37358C14.737 1.37358 15.041 1.37358 15.345 1.37358C16.2132 1.37401 16.9835 2.00345 17.1509 2.85316C17.1685 2.94375 17.1741 3.03778 17.1741 3.1301C17.1754 5.04075 17.1754 6.95097 17.1745 8.86163C17.1745 9.30344 16.8963 9.61129 16.4987 9.61687C16.0908 9.62246 15.8019 9.31203 15.8014 8.86163C15.8001 6.95827 15.8006 5.05492 15.8001 3.15156C15.8001 2.79047 15.7546 2.74711 15.3914 2.74754C15.078 2.74754 14.765 2.74754 14.427 2.74754C14.427 2.97767 14.4288 3.19021 14.4266 3.40274C14.4223 3.80935 14.1372 4.11419 13.7577 4.12149C13.3618 4.12879 13.0617 3.82995 13.054 3.41562C13.0497 3.20223 13.0531 2.98841 13.0531 2.74754C12.8277 2.74754 12.6156 2.74925 12.4039 2.74711C11.9853 2.74238 11.6791 2.45214 11.6787 2.06185C11.6783 1.67027 11.9836 1.37788 12.4013 1.37315C12.6083 1.37101 12.8152 1.37315 13.0527 1.37315Z" fill="#4C4C4C"/>
<path d="M8.58614 5.49544C10.0593 5.49587 11.532 5.49415 13.0051 5.4963C13.5393 5.49715 13.887 5.97589 13.6887 6.44089C13.5637 6.73372 13.3289 6.87025 13.0094 6.87025C11.5221 6.86896 10.0348 6.87025 8.5475 6.87025C7.1173 6.87025 5.6871 6.87068 4.25732 6.86982C4.16458 6.86982 4.06969 6.8724 3.97996 6.85351C3.63346 6.78052 3.40375 6.45935 3.43853 6.10942C3.47245 5.76679 3.76442 5.49844 4.12422 5.49715C5.25387 5.49329 6.38395 5.49544 7.5136 5.49544C7.87083 5.49501 8.22848 5.49501 8.58614 5.49544Z" fill="#4C4C4C"/>
<path d="M7.57048 10.9912C8.70013 10.9912 9.82977 10.9886 10.959 10.9925C11.4974 10.9942 11.837 11.5047 11.6116 11.9701C11.4764 12.2492 11.2407 12.3669 10.9324 12.3664C9.41673 12.3639 7.90108 12.3656 6.38544 12.3656C5.65639 12.3656 4.9269 12.3664 4.19785 12.3651C3.74402 12.3643 3.43402 12.0826 3.43531 11.676C3.43659 11.2698 3.74702 10.992 4.203 10.9916C5.32578 10.9907 6.44813 10.9912 7.57048 10.9912Z" fill="#4C4C4C"/>
<path d="M6.86013 9.6176C5.96663 9.61803 5.07313 9.61846 4.17963 9.6176C3.74597 9.61717 3.43598 9.32992 3.43555 8.93105C3.43512 8.53088 3.74125 8.2445 4.17791 8.24407C5.97221 8.24278 7.76651 8.24278 9.56037 8.24407C9.99703 8.2445 10.304 8.53045 10.3045 8.92933C10.3049 9.32864 9.99746 9.61588 9.56166 9.61674C8.66172 9.61846 7.76092 9.61717 6.86013 9.6176Z" fill="#4C4C4C"/>
<path d="M9.61762 1.37298C9.61762 1.13382 9.61462 0.920433 9.61805 0.70747C9.62449 0.30473 9.9156 0.00374813 10.2977 -0.000116109C10.6897 -0.00398035 10.9894 0.299577 10.9911 0.71391C10.9946 1.61385 10.9942 2.51422 10.9911 3.41459C10.9899 3.81604 10.6932 4.11917 10.3123 4.12131C9.9259 4.12346 9.62878 3.82892 9.61891 3.42833C9.61376 3.20892 9.61805 2.98909 9.61805 2.74736C9.38705 2.74736 9.17452 2.74951 8.96242 2.74693C8.54679 2.74178 8.24152 2.44767 8.24366 2.05695C8.24581 1.66666 8.55152 1.37727 8.96886 1.37298C9.17538 1.37126 9.3819 1.37298 9.61762 1.37298Z" fill="#4C4C4C"/>
<path d="M6.18286 1.37315C6.18286 1.14001 6.18028 0.927478 6.18329 0.714944C6.18887 0.300612 6.48556 -0.00337555 6.87713 5.9336e-05C7.26012 0.00349422 7.55423 0.303617 7.55595 0.706787C7.55982 1.61403 7.55982 2.52126 7.55595 3.4285C7.55423 3.81579 7.25669 4.11548 6.88486 4.12106C6.49801 4.12664 6.19531 3.83339 6.18457 3.43537C6.17856 3.21511 6.18372 2.99485 6.18372 2.74711C5.9583 2.74711 5.74663 2.74883 5.53495 2.74668C5.11633 2.74238 4.81105 2.45342 4.80933 2.064C4.80762 1.67285 5.11246 1.37831 5.52722 1.37272C5.73418 1.37101 5.94113 1.37315 6.18286 1.37315Z" fill="#4C4C4C"/>
</g>
<defs>
<clipPath id="clip0">
<rect width="22" height="21.9768" fill="white"/>
</clipPath>
</defs>
</svg>
