<svg width="24" height="24" viewBox="0 0 24 24" fill="none" xmlns="http://www.w3.org/2000/svg">
<path d="M14.9095 6.35121C15.6111 6.35121 16.3127 6.61825 16.8468 7.15237C17.9149 8.22051 17.9149 9.95854 16.8468 11.0267C15.7786 12.0949 14.0406 12.0949 12.9724 11.0267C11.9042 9.95854 11.9042 8.22051 12.9724 7.15237C13.5064 6.6183 14.208 6.35121 14.9095 6.35121ZM13.4693 10.5298C13.8664 10.9269 14.3879 11.1254 14.9095 11.1254C15.4311 11.1254 15.9528 10.9268 16.3498 10.5298C17.144 9.73563 17.144 8.44341 16.3498 7.64929C15.5557 6.85507 14.2634 6.85511 13.4693 7.64929C12.6751 8.44341 12.6751 9.73563 13.4693 10.5298Z" fill="#4C4C4C"/>
<path d="M11.7204 12.2786C10.4131 10.9713 10.0352 9.02709 10.7575 7.32551C10.8333 7.14688 11.0397 7.06363 11.2182 7.13938C11.3969 7.21523 11.4802 7.42145 11.4044 7.60009C10.7945 9.03665 11.1137 10.678 12.2173 11.7817C13.7018 13.2662 16.1173 13.2661 17.6017 11.7817C19.0862 10.2972 19.0862 7.88179 17.6017 6.3973C16.8885 5.68418 15.9405 5.28817 14.932 5.28222C14.9244 5.28217 14.9168 5.28217 14.9091 5.28217C13.9101 5.28217 12.9671 5.66563 12.2519 6.36324C12.1129 6.49878 11.8905 6.49597 11.755 6.35706C11.6195 6.21816 11.6223 5.99567 11.7613 5.86019C12.6086 5.03364 13.7256 4.57945 14.909 4.57949C14.918 4.57949 14.9271 4.57949 14.9362 4.57959C16.1307 4.58657 17.2539 5.05571 18.0987 5.90048C19.8571 7.65893 19.8571 10.5201 18.0987 12.2786C16.34 14.0371 13.4789 14.037 11.7204 12.2786V12.2786Z" fill="#4C4C4C"/>
<path d="M23.3236 10.6671H22.0734C21.8877 11.5143 21.5574 12.3125 21.0913 13.0404L21.9745 13.9237C22.1017 14.0508 22.1717 14.2198 22.1717 14.3996C22.1717 14.5793 22.1017 14.7483 21.9746 14.8753L20.6952 16.1547C20.5681 16.2818 20.3991 16.3519 20.2194 16.3519C20.0396 16.3519 19.8707 16.2819 19.7435 16.1548L18.8602 15.2714C18.1323 15.7375 17.3342 16.0678 16.4869 16.2535V17.5038C16.4869 17.8748 16.1851 18.1767 15.814 18.1767H14.0047C13.7957 18.1767 13.6086 18.0808 13.4851 17.9308H13.2555C13.1058 18.5859 12.8498 19.2046 12.4936 19.772L13.1694 20.4478C13.4077 20.6861 13.4077 21.0739 13.1694 21.3122L12.1354 22.3463C12.0199 22.4617 11.8664 22.5253 11.7031 22.5253C11.5399 22.5253 11.3864 22.4617 11.271 22.3462L10.5951 21.6705C10.0278 22.0266 9.40907 22.2826 8.7539 22.4324V23.3888C8.75394 23.7258 8.47979 24 8.14271 24H6.68039C6.34336 24 6.06916 23.7258 6.06916 23.3888V22.4323C5.41403 22.2826 4.79526 22.0265 4.22792 21.6704L3.55223 22.3462C3.4368 22.4616 3.28332 22.5252 3.12001 22.5252C2.95669 22.5252 2.80317 22.4616 2.68774 22.3462L1.65379 21.3122C1.41552 21.0739 1.41552 20.6861 1.65379 20.4478L2.32958 19.772C1.97344 19.2046 1.71741 18.5859 1.56769 17.9307H0.61123C0.274203 17.9307 0 17.6565 0 17.3195V15.8572C0 15.5202 0.274203 15.246 0.61123 15.246H1.56769C1.71741 14.5908 1.97344 13.972 2.32958 13.4047L1.65379 12.7289C1.41548 12.4906 1.41548 12.1029 1.65379 11.8645L2.68778 10.8305C2.9261 10.5922 3.31382 10.5921 3.55223 10.8305L4.22802 11.5063C4.7953 11.1502 5.41398 10.8941 6.0692 10.7444V10.5145C5.91859 10.391 5.82227 10.2036 5.82227 9.99408V8.1847C5.82227 7.81366 6.12411 7.51182 6.49515 7.51182H7.74539C7.9311 6.66456 8.26143 5.86632 8.72747 5.13848L7.84419 4.25515C7.71705 4.12805 7.64706 3.95907 7.64706 3.77932C7.64706 3.59956 7.71705 3.43058 7.84415 3.30352L9.12358 2.02414C9.25068 1.89704 9.41961 1.827 9.59937 1.827C9.77913 1.827 9.94806 1.897 10.0752 2.0241L10.9585 2.90747C11.6864 2.44133 12.4847 2.111 13.3318 1.92539V0.675144C13.3318 0.304105 13.6337 0.00226192 14.0047 0.00226192H15.814C16.1851 0.00226192 16.4869 0.304105 16.4869 0.675144V1.92553C17.3342 2.11119 18.1324 2.44151 18.8603 2.90761L19.7436 2.02424C19.8707 1.89718 20.0396 1.82714 20.2194 1.82714C20.3991 1.82714 20.5681 1.89714 20.6952 2.02424L21.9745 3.30362C22.1017 3.43072 22.1717 3.5997 22.1717 3.77946C22.1717 3.95921 22.1017 4.1282 21.9746 4.25525L21.0913 5.13862C21.5573 5.86641 21.8876 6.66471 22.0734 7.51196H23.3236C23.6946 7.51196 23.9965 7.8138 23.9965 8.18484V9.99422C23.9965 10.3652 23.6946 10.6671 23.3236 10.6671V10.6671ZM6.28841 11.4156C5.66603 11.5501 5.08028 11.7924 4.54734 12.1361C4.30639 12.2913 3.98511 12.2574 3.78314 12.0554L3.12001 11.3922L2.21536 12.2968L2.87855 12.96C3.08051 13.1621 3.11443 13.4834 2.95922 13.7242C2.61559 14.2571 2.3732 14.8429 2.23874 15.4654C2.17817 15.7455 1.92692 15.9488 1.64129 15.9488H0.702725V17.2281H1.64133C1.92692 17.2281 2.17821 17.4314 2.23884 17.7116C2.37324 18.334 2.61564 18.9197 2.95927 19.4527C3.11448 19.6934 3.08056 20.0148 2.8786 20.2168L2.21541 20.88L3.12005 21.7846L3.78319 21.1215C3.98516 20.9194 4.30639 20.8855 4.54743 21.0408C5.08038 21.3844 5.66612 21.6268 6.28841 21.7612C6.56856 21.8217 6.77193 22.073 6.77193 22.3587V23.2973H8.05126V22.3587C8.05126 22.073 8.25463 21.8217 8.53479 21.7612C9.15707 21.6268 9.74282 21.3844 10.2758 21.0408C10.5166 20.8856 10.838 20.9194 11.04 21.1215L11.7032 21.7846L12.6078 20.88L11.9447 20.2169C11.7426 20.0148 11.7087 19.6935 11.864 19.4527C12.2077 18.9196 12.45 18.3338 12.5844 17.7116C12.6449 17.4314 12.8962 17.2281 13.1819 17.2281H13.3319V16.2535C12.4847 16.0679 11.6865 15.7375 10.9586 15.2714L10.0752 16.1548C10.0647 16.1653 10.0536 16.1747 10.0425 16.1844C10.1658 16.9938 9.91677 17.8495 9.29476 18.4715C8.55891 19.2074 7.45329 19.4474 6.47814 19.0831C6.29637 19.0152 6.20403 18.8128 6.27201 18.631C6.33989 18.4492 6.54233 18.3569 6.7241 18.4248C7.442 18.6931 8.25609 18.5164 8.79789 17.9746C9.25255 17.5199 9.43573 16.8958 9.34948 16.3037C9.26595 16.2703 9.18916 16.2203 9.12362 16.1548L7.84424 14.8754C7.77856 14.8098 7.72848 14.7328 7.69508 14.6491C7.60199 14.6356 7.50745 14.628 7.41164 14.628C6.88797 14.628 6.39569 14.8319 6.02545 15.2022C5.40668 15.8209 5.2733 16.7853 5.70107 17.5472C5.79603 17.7165 5.73588 17.9307 5.56666 18.0256C5.39754 18.1206 5.1833 18.0604 5.08829 17.8912C4.50705 16.8558 4.68807 15.5457 5.52848 14.7052C6.04765 14.1861 6.72967 13.9265 7.4116 13.9265C7.54605 13.9265 7.68037 13.9371 7.81356 13.9574C7.82353 13.946 7.83333 13.9345 7.84415 13.9237L8.72747 13.0403C8.26143 12.3125 7.93105 11.5142 7.74539 10.667H6.77193V10.8181C6.77193 11.1038 6.56861 11.3551 6.28841 11.4156ZM23.2938 8.21468H22.0491C21.7346 8.21468 21.458 7.99075 21.3913 7.68216C21.2228 6.90232 20.9191 6.16825 20.4885 5.50043C20.3175 5.23527 20.3548 4.88138 20.5772 4.65903L21.4566 3.7795L20.2194 2.54229L19.3399 3.42186C19.1176 3.64416 18.7637 3.6815 18.4986 3.51055C17.8307 3.07992 17.0966 2.7762 16.3168 2.60773C16.0082 2.54107 15.7843 2.26443 15.7843 1.94993V0.70522H14.0346V1.94993C14.0346 2.26438 13.8107 2.54102 13.5021 2.60773C12.7223 2.77615 11.9883 3.07992 11.3203 3.51055C11.0552 3.68145 10.7013 3.6442 10.4789 3.42186L9.59946 2.54233L8.36224 3.77955L9.24168 4.65908C9.46412 4.88147 9.50141 5.23531 9.33041 5.50048C8.89983 6.16835 8.59606 6.90237 8.4276 7.68225C8.36089 7.99079 8.08429 8.21478 7.7698 8.21478H6.52509V9.96447H7.7698C8.08429 9.96447 8.36089 10.1884 8.4276 10.497C8.59606 11.2768 8.89978 12.0109 9.33037 12.6787C9.50141 12.9439 9.46412 13.2978 9.24173 13.5201L8.36224 14.3996L9.59946 15.6369L10.4789 14.7573C10.7012 14.535 11.0551 14.4977 11.3203 14.6686C11.9883 15.0992 12.7223 15.403 13.5021 15.5714C13.8107 15.6381 14.0346 15.9147 14.0346 16.2292V17.474H15.7843V16.2293C15.7843 15.9148 16.0082 15.6381 16.3168 15.5715C17.0966 15.403 17.8306 15.0993 18.4986 14.6687C18.7637 14.4977 19.1175 14.5349 19.34 14.7574L20.2194 15.6369L21.4566 14.3997L20.5772 13.52C20.3547 13.2976 20.3174 12.9438 20.4884 12.6787C20.919 12.0108 21.2228 11.2767 21.3912 10.4969C21.458 10.1883 21.7345 9.96433 22.049 9.96433H23.2938V8.21468H23.2938Z" fill="#4C4C4C"/>
</svg>
