<svg width="25" height="24" viewBox="0 0 25 24" fill="none" xmlns="http://www.w3.org/2000/svg">
<g clip-path="url(#clip0)">
<path d="M3.74818 3.74739C3.38666 3.74739 3.05777 3.74567 2.72931 3.74782C2.43691 3.74954 2.37552 3.80922 2.37509 4.10032C2.37337 5.08742 2.37466 6.07495 2.37466 7.06205C2.37466 10.1526 2.37466 13.2431 2.37466 16.3341C2.37466 16.7742 2.39956 16.7999 2.83021 16.7999C6.04955 16.7999 9.2689 16.8012 12.4887 16.7995C13.9764 16.7987 15.4646 16.7922 16.9523 16.7884C17.0077 16.7884 17.0631 16.7884 17.1824 16.7884C16.8608 16.4706 16.5719 16.1984 16.2984 15.9116C15.9304 15.5256 16.094 14.9056 16.5994 14.7562C16.8501 14.6819 17.0876 14.727 17.2756 14.9133C17.9776 15.6076 18.6783 16.3032 19.3696 17.0078C19.6435 17.2868 19.638 17.6934 19.3619 17.9742C18.6745 18.6728 17.9815 19.3662 17.2825 20.0532C17.0008 20.3297 16.5663 20.3125 16.2992 20.039C16.0318 19.7651 16.0322 19.3461 16.3057 19.0545C16.4427 18.9085 16.5878 18.7699 16.7295 18.6286C16.8647 18.4933 17.0008 18.3585 17.1743 18.1859C17.0648 18.1859 17.0047 18.1859 16.9446 18.1859C12.2229 18.1825 7.50122 18.1791 2.77954 18.1756C1.84568 18.1752 1.00156 17.3422 1.00113 16.4109C0.999845 12.3187 0.999415 8.22648 1.00113 4.13424C1.00156 3.21112 1.83967 2.37773 2.76237 2.37387C3.08267 2.37258 3.4034 2.37344 3.74732 2.37344C3.74732 2.14502 3.74518 1.93248 3.74775 1.72038C3.7529 1.30347 4.04573 0.998624 4.4373 0.999913C4.82931 1.0012 5.11999 1.30519 5.12128 1.7251C5.12385 2.61946 5.12385 3.51382 5.12128 4.40775C5.11999 4.81177 4.82759 5.11662 4.44718 5.12091C4.05174 5.12564 3.75591 4.82637 3.74861 4.40989C3.74518 4.19736 3.74818 3.98397 3.74818 3.74739Z" fill="#4C4C4C"/>
<path d="M23.0002 17.5055C22.9835 20.1607 20.8714 22.5806 18.2498 22.9322C15.9518 23.2405 13.5238 21.9361 12.5392 19.8649C12.3589 19.4853 12.4422 19.1251 12.7578 18.9203C13.1326 18.6773 13.5693 18.8082 13.7754 19.2337C14.0403 19.7811 14.3795 20.2736 14.8496 20.6635C16.0815 21.6849 17.4722 21.8494 18.9397 21.3277C20.3644 20.8211 21.2433 19.7966 21.5185 18.2973C21.7555 17.0053 21.512 15.8083 20.6396 14.804C19.6619 13.6787 18.3837 13.2484 16.9213 13.4107C15.4641 13.5722 14.4551 14.3918 13.8084 15.6821C13.6822 15.9337 13.5212 16.126 13.2284 16.1659C12.9544 16.2033 12.735 16.096 12.5749 15.8804C12.4066 15.6537 12.3967 15.4047 12.5174 15.1509C12.8943 14.3609 13.4302 13.6963 14.1343 13.1793C17.9084 10.4082 22.2892 12.8702 22.9294 16.7159C22.9732 16.9757 22.9779 17.2419 23.0002 17.5055Z" fill="#4C4C4C"/>
<path d="M14.0527 2.37315C14.0527 2.13529 14.0501 1.9219 14.0531 1.7085C14.0595 1.30448 14.3506 1.00349 14.7336 1.00006C15.1261 0.996624 15.421 1.30061 15.4266 1.71666C15.4292 1.92404 15.427 2.13142 15.427 2.37358C15.737 2.37358 16.041 2.37358 16.345 2.37358C17.2132 2.37401 17.9835 3.00345 18.1509 3.85316C18.1685 3.94375 18.1741 4.03778 18.1741 4.1301C18.1754 6.04075 18.1754 7.95097 18.1745 9.86163C18.1745 10.3034 17.8963 10.6113 17.4987 10.6169C17.0908 10.6225 16.8019 10.312 16.8014 9.86163C16.8001 7.95827 16.8006 6.05492 16.8001 4.15156C16.8001 3.79047 16.7546 3.74711 16.3914 3.74754C16.078 3.74754 15.765 3.74754 15.427 3.74754C15.427 3.97767 15.4288 4.19021 15.4266 4.40274C15.4223 4.80935 15.1372 5.11419 14.7577 5.12149C14.3618 5.12879 14.0617 4.82995 14.054 4.41562C14.0497 4.20223 14.0531 3.98841 14.0531 3.74754C13.8277 3.74754 13.6156 3.74925 13.4039 3.74711C12.9853 3.74238 12.6791 3.45214 12.6787 3.06185C12.6783 2.67027 12.9836 2.37788 13.4013 2.37315C13.6083 2.37101 13.8152 2.37315 14.0527 2.37315Z" fill="#4C4C4C"/>
<path d="M9.58614 6.49544C11.0593 6.49587 12.532 6.49415 14.0051 6.4963C14.5393 6.49715 14.887 6.97589 14.6887 7.44089C14.5637 7.73372 14.3289 7.87025 14.0094 7.87025C12.5221 7.86896 11.0348 7.87025 9.5475 7.87025C8.1173 7.87025 6.6871 7.87068 5.25732 7.86982C5.16458 7.86982 5.06969 7.8724 4.97996 7.85351C4.63346 7.78052 4.40375 7.45935 4.43853 7.10942C4.47245 6.76679 4.76442 6.49844 5.12422 6.49715C6.25387 6.49329 7.38395 6.49544 8.5136 6.49544C8.87083 6.49501 9.22848 6.49501 9.58614 6.49544Z" fill="#4C4C4C"/>
<path d="M8.57048 11.9912C9.70013 11.9912 10.8298 11.9886 11.959 11.9925C12.4974 11.9942 12.837 12.5047 12.6116 12.9701C12.4764 13.2492 12.2407 13.3669 11.9324 13.3664C10.4167 13.3639 8.90108 13.3656 7.38544 13.3656C6.65639 13.3656 5.9269 13.3664 5.19785 13.3651C4.74402 13.3643 4.43402 13.0826 4.43531 12.676C4.43659 12.2698 4.74702 11.992 5.203 11.9916C6.32578 11.9907 7.44813 11.9912 8.57048 11.9912Z" fill="#4C4C4C"/>
<path d="M7.86013 10.6176C6.96663 10.618 6.07313 10.6185 5.17963 10.6176C4.74597 10.6172 4.43598 10.3299 4.43555 9.93105C4.43512 9.53088 4.74125 9.2445 5.17791 9.24407C6.97221 9.24278 8.76651 9.24278 10.5604 9.24407C10.997 9.2445 11.304 9.53045 11.3045 9.92933C11.3049 10.3286 10.9975 10.6159 10.5617 10.6167C9.66172 10.6185 8.76092 10.6172 7.86013 10.6176Z" fill="#4C4C4C"/>
<path d="M10.6176 2.37298C10.6176 2.13382 10.6146 1.92043 10.6181 1.70747C10.6245 1.30473 10.9156 1.00375 11.2977 0.999884C11.6897 0.99602 11.9894 1.29958 11.9911 1.71391C11.9946 2.61385 11.9942 3.51422 11.9911 4.41459C11.9899 4.81604 11.6932 5.11917 11.3123 5.12131C10.9259 5.12346 10.6288 4.82892 10.6189 4.42833C10.6138 4.20892 10.6181 3.98909 10.6181 3.74736C10.3871 3.74736 10.1745 3.74951 9.96242 3.74693C9.54679 3.74178 9.24152 3.44767 9.24366 3.05695C9.24581 2.66666 9.55152 2.37727 9.96886 2.37298C10.1754 2.37126 10.3819 2.37298 10.6176 2.37298Z" fill="#4C4C4C"/>
<path d="M7.18286 2.37315C7.18286 2.14001 7.18028 1.92748 7.18329 1.71494C7.18887 1.30061 7.48556 0.996624 7.87713 1.00006C8.26012 1.00349 8.55423 1.30362 8.55595 1.70679C8.55982 2.61403 8.55982 3.52126 8.55595 4.4285C8.55423 4.81579 8.25669 5.11548 7.88486 5.12106C7.49801 5.12664 7.19531 4.83339 7.18457 4.43537C7.17856 4.21511 7.18372 3.99485 7.18372 3.74711C6.9583 3.74711 6.74663 3.74883 6.53495 3.74668C6.11633 3.74238 5.81105 3.45342 5.80933 3.064C5.80762 2.67285 6.11246 2.37831 6.52722 2.37272C6.73418 2.37101 6.94113 2.37315 7.18286 2.37315Z" fill="#4C4C4C"/>
</g>
<defs>
<clipPath id="clip0">
<rect width="22" height="21.9768" fill="white" transform="translate(1 1)"/>
</clipPath>
</defs>
</svg>
