<svg width="27" height="27" viewBox="0 0 27 27" fill="none" xmlns="http://www.w3.org/2000/svg">
<g clip-path="url(#clip0)">
<path d="M15.2707 13.4551C14.6852 13.3862 14.1178 13.1279 13.6686 12.6787C12.6074 11.6175 12.6074 9.89689 13.6686 8.83571C14.165 8.33927 14.8057 8.07518 15.4557 8.04322C15.9992 7.29898 16.7505 6.71632 17.6243 6.38045C15.8391 5.55094 13.651 5.87251 12.1782 7.34533C10.5249 8.99866 10.3224 11.5532 11.5704 13.4276L3.09901 21.8989C2.72644 22.2715 2.72644 22.8755 3.09901 23.2481C3.47157 23.6206 4.07565 23.6206 4.44816 23.2481L5.57035 22.1259L6.42712 22.9827C6.79969 23.3552 7.40371 23.3552 7.77628 22.9827C8.14885 22.6101 8.14885 22.0061 7.77628 21.6335L6.91951 20.7767L7.94556 19.7507L8.80233 20.6074C9.1749 20.98 9.77897 20.98 10.1515 20.6074C10.5241 20.2349 10.5241 19.6309 10.1515 19.2583L9.29471 18.4015L12.9195 14.7768C14.234 15.6522 15.8829 15.813 17.3212 15.2613C16.4762 14.8679 15.7641 14.2376 15.2707 13.4551Z" fill="#F6E080"/>
<path d="M13.8977 8.63195C14.3547 8.26713 14.9018 8.07054 15.4559 8.04327C15.9994 7.29903 16.7506 6.71637 17.6245 6.38051C17.137 6.15396 16.6194 6.01395 16.0945 5.95911C15.1197 6.60679 14.3486 7.5365 13.8977 8.63195Z" fill="#ECCD61"/>
<path d="M17.3212 15.2613C16.4762 14.868 15.7641 14.2377 15.2707 13.4552C14.7269 13.3912 14.1987 13.1635 13.7664 12.7715C14.1485 13.8984 14.862 14.8722 15.7908 15.5774C16.311 15.5557 16.8285 15.4503 17.3212 15.2613Z" fill="#ECCD61"/>
<path d="M19.3547 6.06055C16.6898 6.06055 14.5295 8.22086 14.5295 10.8857C14.5295 13.0718 15.9835 14.918 17.9771 15.5109V25.0969L19.3574 26.5782L20.8527 25.0969V23.7892L19.5792 22.8015L20.8527 21.8138L19.5792 20.8262L20.8527 19.8385L19.5792 18.8509L20.8527 17.8632V15.4734C22.7841 14.8431 24.1798 13.0275 24.1798 10.8856C24.1798 8.22086 22.0195 6.06055 19.3547 6.06055ZM19.3836 10.876C18.6359 10.876 18.0297 10.2699 18.0297 9.52219C18.0297 8.77447 18.6358 8.16829 19.3836 8.16829C20.1313 8.16829 20.7374 8.77442 20.7374 9.52219C20.7374 10.2699 20.1313 10.876 19.3836 10.876Z" fill="#ECB85E"/>
<path d="M19.3548 6.06055C19.1947 6.06055 19.0363 6.06856 18.8802 6.0838C21.3223 6.32227 23.2307 8.38102 23.2307 10.8857C23.2307 12.9634 21.9174 14.734 20.0757 15.4136C19.9723 15.4517 19.9036 15.5501 19.9036 15.6604V17.8632L18.8987 18.6425C18.7626 18.7481 18.7626 18.9537 18.8987 19.0593L19.9036 19.8386L18.8987 20.6179C18.7626 20.7234 18.7626 20.929 18.8987 21.0346L19.9036 21.8139L18.8987 22.5932C18.7626 22.6988 18.7626 22.9043 18.8987 23.0099L19.9036 23.7892V25.097L18.9019 26.0893L19.3576 26.5782L20.8528 25.097V23.7892L19.5793 22.8015L20.8528 21.8139L19.5793 20.8262L20.8528 19.8386L19.5793 18.8509L20.8528 17.8632V15.4734C22.7842 14.8431 24.1799 13.0275 24.1799 10.8857C24.18 8.22086 22.0196 6.06055 19.3548 6.06055Z" fill="#EAA949"/>
<path d="M17.5896 15.8018V20.1108C17.5896 20.3297 17.767 20.5071 17.9859 20.5071C18.2047 20.5071 18.3822 20.3297 18.3822 20.1108V15.5154C18.3822 15.34 18.2669 15.1854 18.0988 15.1355C17.2014 14.8686 16.394 14.3082 15.8255 13.5575C15.2382 12.7821 14.9277 11.8565 14.9277 10.8809C14.9277 8.43349 16.9188 6.4424 19.3662 6.4424C19.8235 6.4424 20.271 6.51201 20.6957 6.64501C20.5761 7.10142 20.3883 7.53379 20.1418 7.92919C19.9152 7.82204 19.6621 7.76181 19.3952 7.76181C18.4287 7.76181 17.6423 8.54814 17.6423 9.51471C17.6423 10.4812 18.4286 11.2675 19.3952 11.2675C20.3618 11.2675 21.1481 10.4812 21.1481 9.51471C21.1481 9.10285 21.005 8.72406 20.7663 8.42453C21.0589 7.97196 21.2842 7.47605 21.4329 6.95181C21.9509 7.2245 22.4161 7.60061 22.7989 8.06694C22.9377 8.23611 23.1875 8.26063 23.3567 8.12178C23.5258 7.98293 23.5504 7.73323 23.4115 7.56401C22.9105 6.95366 22.2897 6.47394 21.5968 6.1474C21.6254 5.92112 21.6409 5.69157 21.6409 5.45933C21.6409 2.44909 19.1918 0 16.1815 0C13.1711 0 10.7221 2.44909 10.7221 5.45938C10.7221 6.27866 10.9081 7.09103 11.2606 7.82467C10.1546 9.46487 10.0567 11.6294 11.0639 13.3698L7.42765 17.006C7.27288 17.1609 7.27288 17.4117 7.42765 17.5666C7.58243 17.7213 7.83334 17.7213 7.98811 17.5666L11.8465 13.7081C11.9801 13.5746 12.0008 13.3654 11.8962 13.2083C10.73 11.4569 10.9653 9.10406 12.4556 7.61384C13.5536 6.51586 15.141 6.08718 16.6158 6.43328C16.0933 6.75754 15.6318 7.17098 15.253 7.65255C14.5489 7.7297 13.8926 8.04268 13.3885 8.54671C12.1724 9.76287 12.1724 11.7417 13.3885 12.9579C13.8438 13.4131 14.4116 13.7087 15.0397 13.8207C15.0893 13.8934 15.1401 13.9655 15.1936 14.0361C15.5116 14.4559 15.8934 14.8245 16.3196 15.1303C15.2201 15.3121 14.0789 15.0768 13.1377 14.4501C12.9805 14.3454 12.7713 14.3661 12.6379 14.4996L9.00594 18.1316C8.85117 18.2863 8.85117 18.5372 9.00594 18.692L9.8644 19.5505C10.0815 19.7588 10.0815 20.1336 9.86435 20.3419C9.65605 20.559 9.28121 20.559 9.07297 20.3419L8.2145 19.4834C8.05973 19.3287 7.80882 19.3287 7.65404 19.4834L6.62593 20.5115C6.47242 20.6591 6.47242 20.9244 6.62593 21.072L7.48434 21.9304C7.70256 22.1486 7.70256 22.5037 7.4844 22.7218C7.26618 22.9401 6.91117 22.94 6.69301 22.7218L5.83455 21.8633C5.67977 21.7086 5.42886 21.7086 5.27409 21.8633L4.14963 22.9878C3.93142 23.206 3.57641 23.2059 3.35825 22.9878C3.14003 22.7696 3.14003 22.4145 3.35825 22.1964L6.86719 18.6874C7.02197 18.5326 7.02197 18.2817 6.86719 18.1269C6.71242 17.9722 6.46151 17.9722 6.30673 18.1269L2.79773 21.6359C2.27055 22.1631 2.27055 23.021 2.79773 23.5483C3.32497 24.0754 4.1828 24.0754 4.71004 23.5483L5.55426 22.704L6.13255 23.2823C6.65974 23.8095 7.51762 23.8095 8.04486 23.2823C8.57204 22.7551 8.57204 21.8972 8.04486 21.3699L7.46662 20.7917L7.93427 20.3241L8.51251 20.9023C9.01586 21.4269 9.92152 21.4269 10.4249 20.9023C10.9494 20.399 10.9495 19.4933 10.4249 18.99L9.84663 18.4117L12.9762 15.2822C14.2869 16.0404 15.875 16.1926 17.3144 15.6921C17.4052 15.731 17.4967 15.7682 17.5896 15.8018ZM19.3952 8.55441C19.4817 8.55441 19.5652 8.56696 19.6449 8.58848C19.3025 8.96759 18.8959 9.29238 18.4365 9.54577C18.4362 9.53532 18.4349 9.52515 18.4349 9.51465C18.4349 8.9852 18.8657 8.55441 19.3952 8.55441ZM20.3555 9.51476C20.3555 10.0442 19.9247 10.475 19.3952 10.475C19.1646 10.475 18.9529 10.3932 18.7872 10.2573C19.3484 9.95261 19.8438 9.55758 20.2571 9.09394C20.3194 9.22119 20.3555 9.36367 20.3555 9.51476ZM11.8952 7.05333C11.8704 7.07806 11.847 7.10364 11.8228 7.12879C11.6204 6.5987 11.5146 6.03107 11.5146 5.45943C11.5146 2.88615 13.6081 0.79265 16.1814 0.79265C18.7547 0.79265 20.8482 2.88615 20.8482 5.45943C20.8482 5.59338 20.8419 5.72621 20.8306 5.858C20.3607 5.72142 19.8684 5.64986 19.3661 5.64986C18.7642 5.64986 18.1859 5.75237 17.6472 5.94032C15.6952 5.10817 13.4034 5.54507 11.8952 7.05333ZM14.646 8.6274C14.4812 8.97112 14.353 9.33551 14.2662 9.71552C14.0691 9.62671 13.8782 9.52488 13.6949 9.40918C13.7699 9.30324 13.8541 9.20194 13.9489 9.10712C14.1522 8.90383 14.3888 8.7422 14.646 8.6274ZM13.949 12.3973C13.3358 11.7841 13.1377 10.9109 13.3537 10.1292C13.6072 10.283 13.8724 10.4157 14.1475 10.5261C14.1396 10.6434 14.1352 10.7617 14.1352 10.8809C14.1352 11.5508 14.2603 12.2004 14.5009 12.807C14.3 12.7 14.1145 12.5629 13.949 12.3973Z" fill="black"/>
<path d="M24.2681 9.05064C24.1915 8.84556 23.9632 8.74157 23.7582 8.81814C23.5531 8.89471 23.449 9.123 23.5256 9.32808C23.7108 9.82384 23.8047 10.3463 23.8047 10.8809C23.8047 12.8078 22.5748 14.5037 20.7443 15.1011C20.5812 15.1543 20.4709 15.3063 20.4709 15.4778V17.6783L19.3483 18.5488C19.1458 18.6976 19.1459 19.0264 19.3483 19.1752L20.2205 19.8516L19.3482 20.5281C19.1458 20.6768 19.1458 21.0056 19.3482 21.1544L20.2205 21.8308L19.3482 22.5072C19.1458 22.656 19.1458 22.9848 19.3482 23.1336L20.4708 24.0042V24.9552L19.3803 26.0355L18.3822 24.9645V21.696C18.3822 21.4771 18.2047 21.2997 17.9859 21.2997C17.7671 21.2997 17.5896 21.4771 17.5896 21.696V25.1205C17.5896 25.2207 17.6276 25.3173 17.696 25.3907L19.0791 26.8749C19.2241 27.037 19.4965 27.0424 19.6479 26.8863L21.1462 25.402C21.2213 25.3276 21.2636 25.2262 21.2636 25.1205V23.8101C21.2636 23.6876 21.2069 23.572 21.1101 23.4969L20.2379 22.8205L21.1101 22.1441C21.3125 21.9953 21.3125 21.6665 21.1101 21.5177L20.2379 20.8413L21.1101 20.1648C21.3125 20.0161 21.3125 19.6873 21.1101 19.5385L20.2379 18.8621L21.1101 18.1857C21.2069 18.1106 21.2636 17.995 21.2636 17.8725V15.757C23.2693 14.9788 24.5974 13.0546 24.5974 10.8809C24.5973 10.2513 24.4866 9.63547 24.2681 9.05064Z" fill="black"/>
</g>
<defs>
<clipPath id="clip0">
<rect width="27" height="27" fill="white"/>
</clipPath>
</defs>
</svg>
