<svg width="18" height="18" viewBox="0 0 18 18" fill="none" xmlns="http://www.w3.org/2000/svg">
<path d="M15.3643 2.63571C13.7357 1.00714 11.4857 0 9 0C6.51429 0 4.26429 1.00714 2.63571 2.63571C1.00714 4.26429 0 6.51429 0 9C0 11.4857 1.00714 13.7357 2.63571 15.3643C4.26429 16.9929 6.51429 18 9 18C11.4857 18 13.7357 16.9929 15.3643 15.3643C16.9929 13.7357 18 11.4857 18 9C18 6.51429 16.9929 4.26429 15.3643 2.63571ZM14.5929 14.5929C13.1571 16.0286 11.1857 16.9071 9 16.9071C6.81429 16.9071 4.84286 16.0286 3.40714 14.5929C1.99286 13.1571 1.09286 11.1857 1.09286 9C1.09286 6.81429 1.97143 4.84286 3.40714 3.40714C4.84286 1.97143 6.81429 1.09286 9 1.09286C11.1857 1.09286 13.1571 1.97143 14.5929 3.40714C16.0286 4.84286 16.9071 6.81429 16.9071 9C16.9071 11.1857 16.0071 13.1571 14.5929 14.5929Z" fill="black"/>
<path d="M13.9932 8.35632C13.9503 8.31346 13.886 8.22775 13.8218 8.14203C13.8003 8.1206 13.8003 8.1206 13.7789 8.09918C13.7146 8.03489 13.6503 7.99203 13.5646 7.94918L10.3932 6.12775C10.3932 6.12775 10.3718 6.12775 10.3718 6.10632L7.17891 4.26347C6.90033 4.09204 6.57891 4.07061 6.27891 4.1349C5.97891 4.22061 5.72176 4.41347 5.55033 4.69204C5.48605 4.77775 5.46462 4.88489 5.42176 4.97061C5.40033 5.03489 5.40033 5.12061 5.37891 5.20632C5.37891 5.22775 5.37891 5.27061 5.37891 5.29204V8.99917V12.6849C5.37891 13.0063 5.50748 13.3063 5.72176 13.5206C5.93605 13.7349 6.23605 13.8635 6.55748 13.8635C6.66462 13.8635 6.79319 13.842 6.90033 13.7992C7.00748 13.7563 7.11462 13.7135 7.20033 13.6492L10.3503 11.8277L10.3932 11.8063L13.5646 9.98489C13.586 9.98489 13.586 9.96346 13.6075 9.96346C13.8646 9.79203 14.0575 9.53489 14.1218 9.25632C14.2075 8.95632 14.1646 8.63489 13.9932 8.35632ZM13.0718 9.0206C13.0718 9.04203 13.0503 9.06346 13.0289 9.06346H13.0075L9.85748 10.9063L9.83605 10.9277L6.68605 12.7492C6.66462 12.7492 6.66462 12.7706 6.64319 12.7706C6.64319 12.7706 6.62176 12.7706 6.62176 12.792H6.60033C6.57891 12.792 6.55748 12.7706 6.53605 12.7706C6.51462 12.7492 6.51462 12.7277 6.51462 12.7063V8.99917V5.31347V5.29204V5.27061C6.53605 5.24918 6.55748 5.22775 6.57891 5.22775C6.60033 5.22775 6.62176 5.22775 6.64319 5.22775L9.81462 7.04918L9.83605 7.07061L13.0289 8.91346L13.0503 8.93489L13.0718 8.95632C13.0718 8.97775 13.0718 8.99917 13.0718 9.0206Z" fill="black"/>
</svg>
