<svg width="24" height="24" viewBox="0 0 24 24" fill="none" xmlns="http://www.w3.org/2000/svg">
<path d="M11.598 13.4167C7.89977 13.4167 4.88965 10.4075 4.88965 6.70833C4.88965 3.00917 7.89977 0 11.598 0C15.2962 0 18.3063 3.00917 18.3063 6.70833C18.3063 10.4075 15.2962 13.4167 11.598 13.4167ZM11.598 0.958333C8.42686 0.958333 5.84798 3.53817 5.84798 6.70833C5.84798 9.8785 8.42686 12.4583 11.598 12.4583C14.7691 12.4583 17.348 9.87946 17.348 6.70833C17.348 3.53721 14.7691 0.958333 11.598 0.958333Z" fill="#4C4C4C"/>
<path d="M13.6709 10.5417C13.5914 10.5417 13.5118 10.5216 13.439 10.4823L11.598 9.46451L9.75706 10.4823C9.59606 10.5714 9.39864 10.5599 9.24914 10.4545C9.09964 10.3491 9.02298 10.167 9.05269 9.98584L9.40919 7.79701L7.90173 6.25122C7.77619 6.1228 7.73306 5.93497 7.7896 5.76439C7.8471 5.5938 7.99469 5.47018 8.17198 5.44334L10.2362 5.12709L11.1649 3.15101C11.322 2.81368 11.874 2.81368 12.0312 3.15101L12.9598 5.12709L15.0241 5.44334C15.2023 5.47018 15.3499 5.59476 15.4064 5.76439C15.463 5.93497 15.4199 6.1228 15.2943 6.25122L13.7869 7.79701L14.1434 9.98584C14.1731 10.167 14.0964 10.3491 13.9469 10.4545C13.8645 10.5129 13.7686 10.5417 13.6709 10.5417V10.5417ZM11.598 8.43814C11.6776 8.43814 11.7581 8.45826 11.8299 8.49755L13.0394 9.16647L12.8026 7.71268C12.7787 7.56222 12.8256 7.40984 12.933 7.30059L13.9584 6.2493L12.5631 6.03559C12.4049 6.01259 12.2689 5.91101 12.2018 5.7663L11.598 4.48214L10.9943 5.7663C10.9272 5.91101 10.7911 6.01259 10.633 6.03655L9.23764 6.2493L10.2631 7.30059C10.3694 7.40889 10.4174 7.56222 10.3934 7.71268L10.1567 9.16647L11.3661 8.49755C11.438 8.45826 11.5185 8.43814 11.598 8.43814V8.43814Z" fill="#4C4C4C"/>
<path d="M7.45307 23C7.44732 23 7.44253 23 7.43678 23C7.25949 22.9943 7.10041 22.8917 7.02278 22.7327L5.64087 19.9247L2.50999 20.1241C2.33174 20.1289 2.16595 20.0484 2.07203 19.8989C1.97812 19.7494 1.9762 19.5596 2.06532 19.4063L6.89532 11.0343C7.02661 10.8052 7.31891 10.7266 7.54986 10.8589C7.77891 10.9911 7.85749 11.2844 7.72524 11.5134L3.34278 19.1111L5.89961 18.9482C6.09128 18.9386 6.27528 19.0411 6.35961 19.2146L7.48661 21.505L11.1494 15.1704C11.2835 14.9414 11.5768 14.8647 11.8039 14.9951C12.0329 15.1283 12.1115 15.4206 11.9793 15.6506L7.86803 22.7614C7.78274 22.909 7.62366 23 7.45307 23V23Z" fill="#4C4C4C"/>
<path d="M15.6754 23C15.5049 23 15.3458 22.909 15.2605 22.7604L9.66094 13.0209C9.52965 12.7909 9.61111 12.4986 9.84111 12.3673C10.0673 12.2379 10.3634 12.3175 10.4937 12.5475L11.9811 15.1724L15.6429 21.506L16.7804 19.2108C16.8667 19.0383 17.0535 18.9357 17.2404 18.9453L19.7972 19.1082L15.4282 11.5345C15.2959 11.3055 15.3745 11.0122 15.6045 10.88C15.8336 10.7468 16.1268 10.8254 16.26 11.0554L21.0747 19.4044C21.1629 19.5577 21.16 19.7465 21.0661 19.8969C20.9721 20.0474 20.8064 20.1289 20.6281 20.1221L17.4963 19.9219L16.1048 22.7317C16.0262 22.8898 15.8671 22.9914 15.6898 22.9971C15.686 23 15.6802 23 15.6754 23V23Z" fill="#4C4C4C"/>
</svg>
