<svg width="24" height="24" viewBox="0 0 24 24" fill="none" xmlns="http://www.w3.org/2000/svg">
<path d="M22.7384 16.9391C22.5544 16.4783 22.0318 16.2538 21.571 16.4377C21.1102 16.6217 20.8857 17.1443 21.0697 17.6051C21.3035 18.191 21.2269 18.86 20.8645 19.3948C20.502 19.9298 19.9216 20.2367 19.2721 20.2367H3.73159C3.02313 20.2367 2.394 19.867 2.04859 19.2477C1.70265 18.6274 1.71891 17.8964 2.09208 17.2921L9.86232 4.71158C10.2161 4.13874 10.829 3.79674 11.5018 3.79674C12.1747 3.79674 12.7875 4.13874 13.1414 4.71158L18.8881 14.016C19.1488 14.4381 19.7024 14.5691 20.1245 14.3082C20.5466 14.0475 20.6775 13.494 20.4167 13.0718L14.6699 3.76741C13.9864 2.66071 12.8021 2 11.5018 2C10.2015 2 9.0172 2.66076 8.33367 3.76741L0.563428 16.348C-0.156941 17.5144 -0.188296 18.9256 0.479469 20.1229C1.14669 21.3192 2.36242 22.0334 3.73159 22.0334H19.2721C20.5271 22.0334 21.6497 21.4389 22.3519 20.4026C23.0489 19.3739 23.1934 18.0791 22.7384 16.9391Z" fill="#4C4C4C"/>
<path d="M11.5022 18.4849C11.9984 18.4849 12.4006 18.0827 12.4006 17.5865C12.4006 17.0904 11.9984 16.6882 11.5022 16.6882H11.5018C11.0056 16.6882 10.6036 17.0904 10.6036 17.5865C10.6036 18.0827 11.006 18.4849 11.5022 18.4849Z" fill="#4C4C4C"/>
<path d="M12.4002 14.4423V7.83933C12.4002 7.34317 11.998 6.94098 11.5019 6.94098C11.0057 6.94098 10.6035 7.34317 10.6035 7.83933V14.4423C10.6035 14.9384 11.0057 15.3406 11.5019 15.3406C11.998 15.3406 12.4002 14.9384 12.4002 14.4423Z" fill="#4C4C4C"/>
</svg>
