<svg width="64" height="64" viewBox="0 0 64 64" fill="none" xmlns="http://www.w3.org/2000/svg">
<g clip-path="url(#clip0)">
<path d="M63.2326 52.0484L37.2401 5.90662C35.0237 1.87683 28.9789 1.87683 26.7624 5.90662L0.769951 52.0484C-1.4464 56.0782 1.37448 61.1156 6.00879 61.1156H57.7923C62.6281 60.9141 65.449 56.0782 63.2326 52.0484Z" fill="#E24C4B"/>
<path d="M32.0012 8.9292L57.9938 55.071H6.00879L32.0012 8.9292Z" fill="white"/>
<path d="M27.7702 30.0858L29.3821 40.7649C29.5836 41.9738 30.5911 42.9812 32.0016 42.9812C33.2105 42.9812 34.4195 41.9738 34.621 40.7649L36.233 30.0858C36.6359 27.4664 34.621 25.25 32.0016 25.25C29.382 25.2499 27.5686 27.4664 27.7702 30.0858Z" fill="#3F4448"/>
<path d="M32.001 50.0337C33.3364 50.0337 34.4189 48.9511 34.4189 47.6157C34.4189 46.2803 33.3364 45.1978 32.001 45.1978C30.6656 45.1978 29.583 46.2803 29.583 47.6157C29.583 48.9511 30.6656 50.0337 32.001 50.0337Z" fill="#3F4448"/>
</g>
<defs>
<clipPath id="clip0">
<rect width="64" height="64" fill="white"/>
</clipPath>
</defs>
</svg>
