<svg width="24" height="24" viewBox="0 0 24 24" fill="none" xmlns="http://www.w3.org/2000/svg">
<path d="M18.8358 11.576C21.0905 9.54896 21.2752 6.07795 19.2482 3.8232C17.3891 1.75524 14.2774 1.40392 12.004 3.00539C9.52582 1.25642 6.09905 1.84759 4.35007 4.32575C2.74524 6.59969 3.09513 9.71465 5.16443 11.5759C2.59327 12.9313 0.988538 15.6033 1.00019 18.5098V20.8669C1.00019 21.3009 1.35196 21.6526 1.78591 21.6526H22.2144C22.6483 21.6526 23.0001 21.3009 23.0001 20.8669V18.5098C23.0117 15.6033 21.407 12.9313 18.8358 11.576ZM15.1429 3.58132C17.3095 3.57893 19.0679 5.33338 19.0704 7.50001C19.0721 9.04522 18.1666 10.4475 16.7576 11.0817C16.6971 11.1092 16.6366 11.1343 16.5753 11.1603C16.3814 11.2385 16.1814 11.3007 15.9774 11.3465C15.9381 11.3552 15.8988 11.3599 15.8587 11.3677C15.6307 11.4114 15.3994 11.4348 15.1673 11.4377C15.0628 11.4377 14.9575 11.4298 14.853 11.4204C14.8137 11.4204 14.7744 11.4204 14.7351 11.4125C14.2886 11.3599 13.8541 11.2319 13.4505 11.0338C13.4356 11.0267 13.4183 11.0275 13.4033 11.0212C13.3248 10.9835 13.2462 10.9505 13.1763 10.9081C13.1826 10.9002 13.1865 10.8916 13.1928 10.8837C13.5531 10.4208 13.8371 9.90332 14.0342 9.35082L14.0586 9.2848C14.1482 9.02091 14.2178 8.75067 14.2668 8.47628C14.2739 8.43623 14.2794 8.3977 14.2857 8.35451C14.3311 8.0752 14.355 7.79285 14.3572 7.50986C14.3549 7.22742 14.331 6.94558 14.2857 6.66677C14.2794 6.62594 14.2739 6.58818 14.2668 6.545C14.2178 6.27066 14.1482 6.00037 14.0586 5.73649L14.0342 5.67047C13.8371 5.11797 13.553 4.60051 13.1928 4.13755C13.1865 4.12968 13.1825 4.12107 13.1763 4.1132C13.7732 3.76497 14.4519 3.58137 15.1429 3.58132ZM4.92872 7.50991C4.92315 5.34586 6.67291 3.58703 8.83696 3.58146C9.85135 3.57884 10.8273 3.96974 11.5593 4.67191C11.6049 4.71592 11.6497 4.75989 11.6937 4.80547C11.8286 4.94685 11.9531 5.09785 12.0661 5.25723C12.1007 5.30594 12.1321 5.35783 12.1643 5.4081C12.2741 5.5771 12.3705 5.75444 12.4527 5.93845C12.4723 5.98325 12.4872 6.02883 12.5045 6.07358C12.5873 6.27711 12.6525 6.48741 12.6994 6.70213C12.7049 6.7257 12.7065 6.74927 12.7112 6.77362C12.8107 7.26149 12.8107 7.76445 12.7112 8.25231C12.7065 8.27666 12.7049 8.30024 12.6994 8.32381C12.6526 8.53853 12.5874 8.74883 12.5045 8.95236C12.4872 8.99715 12.4723 9.04273 12.4527 9.08748C12.3704 9.27122 12.274 9.44828 12.1643 9.61705C12.1321 9.66733 12.1007 9.71921 12.0661 9.76792C11.9531 9.92735 11.8286 10.0783 11.6937 10.2197C11.6497 10.2653 11.6049 10.3093 11.5593 10.3532C11.2412 10.6564 10.8744 10.9039 10.4743 11.0855C10.4107 11.1146 10.3462 11.1413 10.281 11.1641C10.0916 11.2393 9.89674 11.2997 9.69804 11.3448C9.64855 11.3558 9.59745 11.3621 9.54718 11.3707C9.33384 11.4105 9.11751 11.4322 8.90053 11.436H8.81412C8.59714 11.4323 8.38081 11.4105 8.16747 11.3707C8.1172 11.3621 8.0661 11.3558 8.01661 11.3448C7.81791 11.2997 7.62299 11.2393 7.43363 11.1641C7.3684 11.1382 7.30399 11.1115 7.24037 11.0855C5.83465 10.4508 4.93052 9.05222 4.92872 7.50991ZM15.1429 20.0812H2.57159V18.5098C2.56008 15.8473 4.2376 13.4702 6.74997 12.5887C8.09869 13.1503 9.61577 13.1503 10.9645 12.5887C11.2269 12.6846 11.4825 12.7977 11.7298 12.9274C11.8933 13.0115 12.0441 13.1073 12.2013 13.2039C12.3034 13.2676 12.4071 13.3297 12.5053 13.3996C12.657 13.5072 12.8 13.6243 12.9406 13.7445C13.031 13.8231 13.1205 13.9016 13.2054 13.9802C13.335 14.1028 13.4568 14.2324 13.5739 14.3652C13.6579 14.4611 13.7396 14.5585 13.8175 14.6591C13.9204 14.7911 14.0186 14.9263 14.1097 15.0653C14.1883 15.1832 14.2583 15.3057 14.3274 15.4283C14.406 15.5634 14.4782 15.6986 14.5442 15.8392C14.6102 15.9799 14.6684 16.1339 14.7249 16.284C14.7744 16.4144 14.8271 16.544 14.8679 16.6768C14.9229 16.8591 14.9614 17.0476 14.9999 17.2362C15.0235 17.3478 15.0541 17.457 15.0714 17.5701C15.1179 17.8812 15.1418 18.1953 15.1429 18.5098V20.0812H15.1429ZM21.4286 20.0812H16.7144V18.5098C16.7144 18.2639 16.7002 18.0203 16.6782 17.7791C16.6719 17.7084 16.661 17.6385 16.6531 17.5678C16.6319 17.3941 16.6075 17.2221 16.5745 17.0515C16.5604 16.9788 16.5455 16.9057 16.5297 16.8323C16.492 16.6574 16.4483 16.484 16.3985 16.3122C16.382 16.2556 16.3671 16.1982 16.3498 16.1425C16.1298 15.4392 15.811 14.7707 15.403 14.157L15.3724 14.1122C15.2373 13.9116 15.0929 13.7175 14.9394 13.53L14.934 13.5229C14.7768 13.3281 14.6063 13.1387 14.4272 12.9596C14.4374 12.9596 14.4484 12.9596 14.4594 12.9596C14.6811 12.9887 14.9044 13.0045 15.1281 13.0067H15.1713C15.3783 13.0049 15.5849 12.9915 15.7904 12.9667C15.8548 12.9588 15.9185 12.947 15.9829 12.9368C16.15 12.9111 16.315 12.8779 16.4779 12.837C16.5243 12.8252 16.5714 12.8142 16.6186 12.8009C16.8323 12.7427 17.0423 12.6713 17.2471 12.5872C19.7613 13.4677 21.4404 15.846 21.4287 18.5099V20.0812H21.4286Z" fill="#4C4C4C"/>
</svg>
