<svg width="24" height="24" viewBox="0 0 24 24" fill="none" xmlns="http://www.w3.org/2000/svg">
<path d="M22.0833 12H1.91667C1.41067 12 1 11.5903 1 11.0834C1 10.5764 1.41067 10.1667 1.91667 10.1667H22.0833C22.5893 10.1667 23 10.5764 23 11.0834C23 11.5903 22.5893 12 22.0833 12Z" fill="#4C4C4C"/>
<path d="M5.58333 1H3.75C2.23383 1 1 2.23383 1 3.75V5.58333C1 6.09025 1.41067 6.5 1.91667 6.5C2.42267 6.5 2.83333 6.09025 2.83333 5.58333V3.75C2.83333 3.244 3.24492 2.83333 3.75 2.83333H5.58333C6.08933 2.83333 6.5 2.42358 6.5 1.91667C6.5 1.40975 6.08933 1 5.58333 1Z" fill="#4C4C4C"/>
<path d="M5.58333 21.1667H3.75C3.24492 21.1667 2.83333 20.756 2.83333 20.25V18.4167C2.83333 17.9098 2.42267 17.5 1.91667 17.5C1.41067 17.5 1 17.9098 1 18.4167V20.25C1 21.7662 2.23383 23 3.75 23H5.58333C6.08933 23 6.5 22.5903 6.5 22.0833C6.5 21.5764 6.08933 21.1667 5.58333 21.1667Z" fill="#4C4C4C"/>
<path d="M20.25 1H18.4167C17.9107 1 17.5 1.40975 17.5 1.91667C17.5 2.42358 17.9107 2.83333 18.4167 2.83333H20.25C20.7551 2.83333 21.1667 3.244 21.1667 3.75V5.58333C21.1667 6.09025 21.5773 6.5 22.0833 6.5C22.5893 6.5 23 6.09025 23 5.58333V3.75C23 2.23383 21.7662 1 20.25 1Z" fill="#4C4C4C"/>
<path d="M22.0833 17.5C21.5773 17.5 21.1667 17.9098 21.1667 18.4167V20.25C21.1667 20.756 20.7551 21.1667 20.25 21.1667H18.4167C17.9107 21.1667 17.5 21.5764 17.5 22.0833C17.5 22.5903 17.9107 23 18.4167 23H20.25C21.7662 23 23 21.7662 23 20.25V18.4167C23 17.9098 22.5893 17.5 22.0833 17.5Z" fill="#4C4C4C"/>
<path d="M19.2875 10.625C19.3068 10.4261 19.3333 10.229 19.3333 10.0273C19.3333 6.566 16.4908 3.75 12.9964 3.75C9.50209 3.75 6.66042 6.566 6.66042 10.0301C6.66042 10.2354 6.61367 10.4334 6.54492 10.625H19.2875Z" fill="#4C4C4C"/>
<path d="M4.86016 13.375L4.82533 13.43C4.72175 13.5941 4.66675 13.782 4.66675 13.9727C4.66675 14.5328 5.12416 14.9883 5.68608 14.9883H6.6605V16.6026C6.6605 17.5257 7.41675 18.2764 8.34533 18.2764C8.52866 18.2764 8.70283 18.2489 8.83575 18.2012L9.98342 17.8575V19.5625C9.98342 19.942 10.2914 20.25 10.6709 20.25H16.6522C17.0317 20.25 17.3397 19.942 17.3397 19.5625V16.2579C17.3397 15.3165 17.6302 14.409 18.1793 13.6372C18.2389 13.5538 18.2811 13.4621 18.3361 13.3759H4.86016V13.375Z" fill="#4C4C4C"/>
</svg>
