<svg width="24" height="24" viewBox="0 0 24 24" fill="none" xmlns="http://www.w3.org/2000/svg">
<path d="M12.3652 10.8568C12.8212 11.5316 12.9123 12.2551 12.7725 13.0028C12.6266 13.787 12.1524 14.3646 11.4898 14.7841C11.35 14.8692 11.3196 14.9421 11.3621 15.0941C11.6843 16.3039 12.0004 17.5137 12.3044 18.7235C12.347 18.8998 12.4078 18.9666 12.5901 19.0031C13.6844 19.228 14.3775 20.1399 14.268 21.1856C14.1343 22.4683 12.888 23.2769 11.6661 22.9121C10.6083 22.596 9.93348 21.4044 10.3651 20.3345C10.5049 19.9758 10.8332 19.6962 11.0642 19.374C11.1189 19.301 11.1858 19.1855 11.1676 19.1065C10.8575 17.8724 10.5353 16.6443 10.2192 15.4102C10.1827 15.2522 10.1219 15.2035 9.96387 15.1914C8.20695 15.0576 6.96068 13.5196 7.368 11.7626C7.71452 10.255 9.29515 9.3005 10.7359 9.71998C10.9487 9.78077 11.1433 9.8902 11.356 9.95099C11.4411 9.97531 11.5871 9.96923 11.6357 9.90844C12.6084 8.88711 13.575 7.8597 14.5477 6.8323C15.0827 6.273 15.6237 5.71978 16.1526 5.17872C15.721 4.23034 15.8912 3.20902 16.6815 2.57677C17.4901 1.92628 18.8093 2.05394 19.4598 2.8625C20.3595 3.96893 19.9279 5.46445 18.7242 6.01767C18.2318 6.2426 17.715 6.21828 17.2104 6.06022C17.0402 6.00551 16.9612 6.04198 16.8518 6.15749C15.7818 7.28217 14.7118 8.39468 13.6419 9.51328C13.2224 9.95707 12.809 10.3948 12.3652 10.8568ZM10.0551 10.8264C9.1918 10.8264 8.46836 11.5438 8.46836 12.401C8.46836 13.2946 9.19788 14.0059 10.0976 13.9998C10.9609 13.9937 11.6722 13.2703 11.6722 12.407C11.6661 11.5377 10.9426 10.8264 10.0551 10.8264ZM13.3865 21.0093C13.4048 20.3953 12.9245 19.8846 12.2679 19.8542C11.6661 19.8238 11.1189 20.377 11.1068 20.985C11.0946 21.5504 11.6478 22.1279 12.2132 22.1461C12.8272 22.1704 13.3744 21.6415 13.3865 21.0093ZM17.9339 3.04487C17.2834 3.0388 16.791 3.51298 16.791 4.15131C16.791 4.8018 17.2895 5.30031 17.94 5.30031C18.5418 5.29423 19.0464 4.80788 19.0585 4.21211C19.0768 3.55554 18.5904 3.05703 17.9339 3.04487Z" fill="#4C4C4C" stroke="#4C4C4C" stroke-width="0.5"/>
<path d="M5.77576 2.31921C5.81832 3.06089 5.10096 3.64451 4.47479 3.63843C3.86078 3.63843 3.14949 3.13384 3.16165 2.30706C3.16165 1.55322 3.75135 1 4.48695 1C5.21647 1 5.8244 1.65657 5.77576 2.31921Z" fill="#4C4C4C" stroke="#4C4C4C" stroke-width="0.5"/>
<path d="M3.31318 17.3313C2.61406 17.3313 2.00004 16.7234 2.00004 16.0182C1.99397 15.3008 2.60798 14.6868 3.32534 14.6929C4.0123 14.6929 4.64455 15.3191 4.65063 16.006C4.65063 16.7112 4.03054 17.3313 3.31318 17.3313Z" fill="#4C4C4C" stroke="#4C4C4C" stroke-width="0.5"/>
<path d="M19.4269 18.5505C19.4269 17.8392 20.0106 17.2617 20.7218 17.2617C21.5 17.2617 22.0532 17.821 22.0411 18.6052C22.035 19.3226 21.4635 19.8697 20.7401 19.8818C20.0592 19.894 19.3662 19.2374 19.4269 18.5505Z" fill="#4C4C4C" stroke="#4C4C4C" stroke-width="0.5"/>
<path d="M5.62333 15.3616C5.45919 15.3616 5.30113 15.2765 5.2221 15.1184C5.10659 14.8935 5.18562 14.6199 5.41056 14.5044L6.46836 13.9451C6.6933 13.8296 6.96686 13.9086 7.08237 14.1336C7.19788 14.3585 7.11885 14.6321 6.89391 14.7476L5.83611 15.3069C5.76924 15.3434 5.69629 15.3616 5.62333 15.3616Z" fill="#4C4C4C" stroke="#4C4C4C" stroke-width="0.5"/>
<path d="M8.27982 9.58018C8.11568 9.58018 7.95154 9.48899 7.8725 9.33093L7.33144 8.26704C7.21594 8.04211 7.30713 7.76854 7.53206 7.65303C7.757 7.53752 8.03057 7.62871 8.14607 7.85365L8.68713 8.91753C8.80264 9.14247 8.71145 9.41604 8.48652 9.53154C8.41964 9.56802 8.35277 9.58018 8.27982 9.58018Z" fill="#4C4C4C" stroke="#4C4C4C" stroke-width="0.5"/>
<path d="M6.48319 6.46192C6.31905 6.46192 6.15491 6.37073 6.07587 6.21267L5.53481 5.14879C5.41931 4.92385 5.5105 4.65028 5.73543 4.53478C5.96037 4.41927 6.23394 4.51046 6.34944 4.73539L6.8905 5.79928C7.00601 6.02421 6.91482 6.29778 6.68989 6.41329C6.62301 6.44976 6.55614 6.46192 6.48319 6.46192Z" fill="#4C4C4C" stroke="#4C4C4C" stroke-width="0.5"/>
<path d="M15.101 15.2806C15.022 15.2806 14.9429 15.2624 14.876 15.2198L13.8426 14.6241C13.6237 14.4964 13.5508 14.2168 13.6784 14.004C13.8061 13.7851 14.0857 13.7122 14.2985 13.8398L15.332 14.4356C15.5509 14.5633 15.6238 14.8429 15.4961 15.0557C15.411 15.1955 15.259 15.2806 15.101 15.2806Z" fill="#4C4C4C" stroke="#4C4C4C" stroke-width="0.5"/>
<path d="M17.7393 16.8005C17.6603 16.8005 17.5813 16.7822 17.5144 16.7397L16.4809 16.1439C16.2621 16.0163 16.1891 15.7366 16.3168 15.5238C16.4445 15.305 16.7241 15.232 16.9369 15.3597L17.9704 15.9555C18.1892 16.0831 18.2622 16.3628 18.1345 16.5756C18.0494 16.7215 17.8974 16.8005 17.7393 16.8005Z" fill="#4C4C4C" stroke="#4C4C4C" stroke-width="0.5"/>
</svg>
