<svg width="24" height="24" viewBox="0 0 24 24" fill="none" xmlns="http://www.w3.org/2000/svg">
<path d="M4.22113 18.5601C3.88513 18.5601 3.56213 18.644 3.27557 18.8015C1.76605 16.8664 0.9375 14.4626 0.9375 12C0.9375 5.90002 5.90002 0.9375 12 0.9375C12.7416 0.9375 13.4828 1.01129 14.2031 1.15686C14.4565 1.20813 14.7041 1.04407 14.7554 0.790283C14.8066 0.536499 14.6426 0.289307 14.3888 0.237854C13.6075 0.0800171 12.8038 0 12 0C8.79474 0 5.78119 1.24823 3.51471 3.51471C1.24823 5.78119 0 8.79474 0 12C0 14.6962 0.915527 17.3275 2.58234 19.4368C2.36774 19.7574 2.25238 20.1343 2.25238 20.5289C2.25238 21.0547 2.45728 21.5491 2.82916 21.9208C3.20087 22.2927 3.69525 22.4976 4.22113 22.4976C4.74701 22.4976 5.24139 22.2927 5.61328 21.9208C5.98517 21.5491 6.18988 21.0546 6.18988 20.5287C6.18988 20.003 5.98517 19.5084 5.61328 19.1367C5.24139 18.7648 4.74701 18.5601 4.22113 18.5601V18.5601ZM4.95026 21.258C4.75562 21.4528 4.49652 21.5601 4.22113 21.5601C3.94574 21.5601 3.68683 21.4528 3.492 21.258C3.29718 21.0632 3.18988 20.8043 3.18988 20.5289C3.18988 20.2533 3.29718 19.9944 3.492 19.7996C3.68665 19.6047 3.94574 19.4976 4.22113 19.4976C4.49652 19.4976 4.75543 19.6049 4.95026 19.7996C5.14508 19.9944 5.25238 20.2533 5.25238 20.5289C5.25238 20.8043 5.14508 21.0632 4.95026 21.258V21.258Z" fill="#4C4C4C"/>
<path d="M21.4173 4.56262C21.9268 3.79816 21.845 2.75299 21.171 2.07898C20.7991 1.70728 20.3047 1.50238 19.7788 1.50238C19.253 1.50238 18.7586 1.70728 18.3867 2.07898C18.0148 2.45087 17.8101 2.94525 17.8101 3.47113C17.8101 3.99701 18.0148 4.49139 18.3867 4.86328C18.7586 5.23517 19.253 5.43988 19.7788 5.43988C20.1148 5.43988 20.4378 5.35602 20.7244 5.19855C22.2339 7.13379 23.0625 9.53741 23.0625 12C23.0625 18.1 18.0999 23.0625 12 23.0625C11.2657 23.0625 10.5315 22.9902 9.81789 22.8474C9.56411 22.7966 9.3171 22.9612 9.2662 23.215C9.21548 23.469 9.38009 23.7158 9.63387 23.7667C10.4079 23.9214 11.204 24 12 24C15.2052 24 18.2188 22.7518 20.4853 20.4853C22.7517 18.2188 24 15.2053 24 12C24 9.30359 23.0843 6.67218 21.4173 4.56262V4.56262ZM19.0497 4.20044C18.8549 4.00562 18.7476 3.7467 18.7476 3.47113C18.7476 3.19574 18.8549 2.93683 19.0497 2.742C19.2443 2.54718 19.5034 2.43988 19.7788 2.43988C20.0542 2.43988 20.3133 2.54718 20.5081 2.742C20.9101 3.1441 20.9101 3.79834 20.5081 4.20044C20.3133 4.39508 20.0542 4.50238 19.7788 4.50238C19.5033 4.50238 19.2443 4.39508 19.0497 4.20044Z" fill="#4C4C4C"/>
<path d="M10.0658 20.0625C10.0658 20.3214 10.2758 20.5312 10.5345 20.5312H13.4655C13.7244 20.5312 13.9343 20.3214 13.9343 20.0625V19.1537C14.5506 18.9879 15.1398 18.7436 15.6935 18.4246L16.3351 19.0662C16.423 19.1541 16.5422 19.2036 16.6667 19.2036C16.7909 19.2036 16.9103 19.1541 16.9982 19.066L19.0698 16.9929C19.2527 16.8098 19.2527 16.513 19.0698 16.3301L18.429 15.6892C18.7479 15.1355 18.9922 14.5463 19.1581 13.9299H20.0634C20.3223 13.9299 20.5321 13.7201 20.5321 13.4612V10.5302C20.5321 10.2713 20.3223 10.0615 20.0634 10.0615H19.1579C18.992 9.44531 18.7479 8.85608 18.429 8.30237L19.0663 7.66498C19.1542 7.57709 19.2037 7.4577 19.2037 7.33337C19.2035 7.20905 19.1541 7.08966 19.0662 7.00177L16.9929 4.93011C16.8099 4.74719 16.5131 4.74719 16.33 4.9303L15.6935 5.56696C15.1398 5.24799 14.5506 5.00372 13.9343 4.83783V3.9375C13.9343 3.67859 13.7244 3.46875 13.4655 3.46875H10.5345C10.2758 3.46875 10.0658 3.67859 10.0658 3.9375V4.83801C9.44965 5.00372 8.86041 5.24799 8.3067 5.56696L7.67004 4.9303C7.48712 4.74738 7.19031 4.74719 7.0072 4.93011L4.93408 7.00195C4.84601 7.08984 4.79657 7.20905 4.79657 7.33337C4.79657 7.4577 4.84601 7.57709 4.9339 7.66498L5.57129 8.30237C5.25232 8.85608 5.00806 9.44513 4.84216 10.0615H3.93854C3.67963 10.0615 3.46979 10.2713 3.46979 10.53L3.46814 13.461C3.46796 13.5853 3.5174 13.7047 3.60529 13.7926C3.69318 13.8805 3.81238 13.9299 3.93689 13.9299H4.84216C5.00806 14.5463 5.25232 15.1355 5.57129 15.6892L4.93042 16.3301C4.7475 16.513 4.74731 16.8098 4.93042 16.9929L7.00208 19.066C7.08997 19.1539 7.20917 19.2036 7.3335 19.2036H7.33368C7.45801 19.2036 7.57721 19.1541 7.6651 19.0662L8.30652 18.4246C8.86041 18.7436 9.44965 18.9879 10.0658 19.1537V20.0625ZM8.49036 17.4388C8.30487 17.3188 8.06079 17.3448 7.90442 17.501L7.33368 18.0718L5.92468 16.6617L6.49487 16.0913C6.65106 15.9351 6.67706 15.691 6.55713 15.5056C6.13214 14.8478 5.83331 14.127 5.66925 13.3627C5.62274 13.1468 5.43195 12.9924 5.21094 12.9924H4.40582L4.40692 10.999H5.21094C5.43195 10.999 5.62274 10.8448 5.66925 10.6287C5.83331 9.86462 6.13214 9.14374 6.55713 8.48602C6.67706 8.30054 6.65106 8.05646 6.49487 7.90027L5.92835 7.33356L7.33844 5.92456L7.90442 6.49072C8.06079 6.64691 8.30469 6.67273 8.49036 6.55298C9.14789 6.12799 9.86878 5.82916 10.6331 5.6651C10.8489 5.61859 11.0033 5.42761 11.0033 5.20679V4.40625H12.9968V5.2066C12.9968 5.42761 13.1509 5.61859 13.367 5.66492C14.1311 5.82916 14.8522 6.12781 15.5097 6.5528C15.6952 6.67273 15.9393 6.64691 16.0955 6.49054L16.6616 5.92456L18.0717 7.33356L17.5052 7.90009C17.3488 8.05646 17.323 8.30054 17.4429 8.48602C17.8679 9.14374 18.1666 9.86462 18.3308 10.6287C18.3771 10.8448 18.5681 10.999 18.7891 10.999H19.5946V12.9924H18.7891C18.5681 12.9924 18.3773 13.1468 18.3308 13.3627C18.1667 14.1268 17.8679 14.8478 17.4429 15.5054C17.323 15.691 17.349 15.9351 17.5052 16.0913L18.0754 16.6615L16.6664 18.0716L16.0956 17.501C15.9393 17.3447 15.6952 17.3188 15.5097 17.4388C14.852 17.8638 14.1311 18.1624 13.367 18.3267C13.1509 18.3732 12.9968 18.564 12.9968 18.785V19.5938H11.0033V18.785C11.0033 18.5641 10.8489 18.3732 10.6331 18.3267C9.86896 18.1626 9.14807 17.8638 8.49036 17.4388V17.4388Z" fill="#4C4C4C"/>
<path d="M15.8732 12C15.8732 9.86426 14.1357 8.12677 12 8.12677C9.86426 8.12677 8.12677 9.86426 8.12677 12C8.12677 14.1357 9.86426 15.8732 12 15.8732C14.1357 15.8732 15.8732 14.1357 15.8732 12ZM9.06427 12C9.06427 10.3812 10.3812 9.06427 12 9.06427C13.6188 9.06427 14.9357 10.3813 14.9357 12C14.9357 13.6187 13.6188 14.9357 12 14.9357C10.3812 14.9357 9.06427 13.6188 9.06427 12Z" fill="#4C4C4C"/>
<path d="M16.316 1.77283C16.4395 1.77283 16.5603 1.72266 16.6475 1.6355C16.7346 1.54779 16.7848 1.42694 16.7848 1.30353C16.7848 1.18085 16.7348 1.05981 16.6475 0.972107C16.5603 0.884949 16.4395 0.834778 16.316 0.834778C16.1923 0.834778 16.072 0.884949 15.9848 0.972107C15.8975 1.05981 15.8473 1.1803 15.8473 1.30353C15.8473 1.42731 15.8975 1.54779 15.9848 1.6355C16.072 1.72266 16.1923 1.77283 16.316 1.77283Z" fill="#4C4C4C"/>
<path d="M7.70447 22.2356C7.58124 22.2356 7.46021 22.2858 7.37305 22.3729C7.28589 22.4601 7.23572 22.5811 7.23572 22.7043C7.23572 22.8281 7.28589 22.9486 7.37305 23.0358C7.46021 23.1229 7.58124 23.1731 7.70447 23.1731C7.8277 23.1731 7.94873 23.1229 8.03589 23.0358C8.12305 22.9486 8.17322 22.8276 8.17322 22.7043C8.17322 22.5811 8.12305 22.4601 8.03589 22.3729C7.94873 22.2858 7.8277 22.2356 7.70447 22.2356Z" fill="#4C4C4C"/>
</svg>
