<svg width="50" height="84" viewBox="0 0 50 84" fill="none" xmlns="http://www.w3.org/2000/svg">
<path d="M37.0204 17.0673C36.2777 16.9798 35.558 16.6522 34.9882 16.0824C33.6421 14.7363 33.6421 12.5538 34.9882 11.2078C35.6179 10.578 36.4306 10.243 37.2551 10.2025C37.9445 9.25846 38.8974 8.51937 40.0059 8.09334C37.7414 7.04113 34.9659 7.44904 33.0977 9.31726C31.0005 11.4144 30.7436 14.6548 32.3266 17.0323L21.581 27.778C21.1084 28.2506 21.1084 29.0167 21.581 29.4893C22.0536 29.9619 22.8198 29.9619 23.2924 29.4893L24.7158 28.0659L25.8026 29.1527C26.2752 29.6252 27.0414 29.6252 27.514 29.1527C27.9866 28.6801 27.9866 27.9139 27.514 27.4413L26.4272 26.3545L27.7287 25.053L28.8155 26.1398C29.2881 26.6124 30.0543 26.6124 30.5268 26.1398C30.9994 25.6672 30.9994 24.901 30.5268 24.4284L29.44 23.3416L34.0379 18.7438C35.7054 19.8542 37.797 20.0583 39.6214 19.3584C38.5496 18.8594 37.6463 18.0599 37.0204 17.0673Z" fill="#F6E080"/>
<path d="M35.2788 10.949C35.8585 10.4862 36.5524 10.2369 37.2553 10.2023C37.9447 9.25824 38.8977 8.51916 40.0061 8.09313C39.3877 7.80576 38.7312 7.62816 38.0654 7.55859C36.8288 8.38016 35.8508 9.55946 35.2788 10.949Z" fill="#ECCD61"/>
<path d="M39.6215 19.3581C38.5497 18.8592 37.6464 18.0597 37.0205 17.0671C36.3307 16.9859 35.6607 16.6971 35.1123 16.1998C35.597 17.6293 36.5021 18.8645 37.6802 19.759C38.3401 19.7315 38.9965 19.5979 39.6215 19.3581Z" fill="#ECCD61"/>
<path d="M42.2013 7.6875C38.821 7.6875 36.0808 10.4278 36.0808 13.808C36.0808 16.581 37.9251 18.9229 40.4539 19.675V31.8345L42.2048 33.7134L44.1015 31.8345V30.1756L42.4861 28.9228L44.1015 27.67L42.4861 26.4172L44.1015 25.1644L42.4861 23.9115L44.1015 22.6587V19.6273C46.5514 18.8278 48.3218 16.5248 48.3218 13.808C48.3219 10.4278 45.5816 7.6875 42.2013 7.6875ZM42.238 13.7958C41.2895 13.7958 40.5206 13.0269 40.5206 12.0785C40.5206 11.13 41.2895 10.3611 42.238 10.3611C43.1864 10.3611 43.9553 11.1299 43.9553 12.0785C43.9553 13.0269 43.1864 13.7958 42.238 13.7958Z" fill="#ECB85E"/>
<path d="M42.2007 7.6875C41.9976 7.6875 41.7967 7.69767 41.5987 7.717C44.6964 8.01948 47.1172 10.6309 47.1172 13.808C47.1172 16.4435 45.4513 18.6895 43.1152 19.5515C42.9839 19.5999 42.8968 19.7247 42.8968 19.8646V22.6588L41.6222 23.6473C41.4495 23.7812 41.4495 24.042 41.6222 24.1759L42.8968 25.1644L41.6222 26.153C41.4495 26.2869 41.4495 26.5476 41.6222 26.6815L42.8968 27.6701L41.6222 28.6586C41.4495 28.7925 41.4495 29.0532 41.6222 29.1872L42.8968 30.1757V31.8345L41.6262 33.0932L42.2042 33.7135L44.1008 31.8345V30.1757L42.4855 28.9229L44.1008 27.6701L42.4855 26.4172L44.1008 25.1644L42.4855 23.9116L44.1008 22.6588V19.6274C46.5508 18.8279 48.3212 16.5249 48.3212 13.808C48.3212 10.4278 45.5809 7.6875 42.2007 7.6875Z" fill="#EAA949"/>
<path d="M39.9617 20.044V25.5098C39.9617 25.7875 40.1868 26.0125 40.4644 26.0125C40.742 26.0125 40.9671 25.7875 40.9671 25.5098V19.6807C40.9671 19.4583 40.821 19.2622 40.6077 19.1989C39.4693 18.8603 38.4452 18.1495 37.7241 17.1972C36.9791 16.2136 36.5853 15.0395 36.5853 13.802C36.5853 10.6976 39.1109 8.17196 42.2154 8.17196C42.7953 8.17196 43.363 8.26026 43.9018 8.42896C43.7501 9.00791 43.5118 9.55635 43.1992 10.0579C42.9117 9.92198 42.5906 9.84559 42.2521 9.84559C41.0261 9.84559 40.0286 10.843 40.0286 12.0691C40.0286 13.2951 41.026 14.2925 42.2521 14.2925C43.4782 14.2925 44.4756 13.2951 44.4756 12.0691C44.4756 11.5466 44.294 11.0662 43.9914 10.6862C44.3625 10.1122 44.6482 9.4831 44.8369 8.81813C45.4939 9.16403 46.0841 9.6411 46.5696 10.2326C46.7457 10.4472 47.0625 10.4783 47.2771 10.3022C47.4917 10.1261 47.5228 9.80934 47.3467 9.59468C46.7112 8.82048 45.9237 8.21196 45.0448 7.79777C45.081 7.51074 45.1007 7.21956 45.1007 6.92496C45.1007 3.10659 41.9941 0 38.1756 0C34.3571 0 31.2506 3.10659 31.2506 6.92503C31.2506 7.96426 31.4865 8.99473 31.9337 9.92533C30.5307 12.0059 30.4066 14.7515 31.6841 16.9591L27.0717 21.5716C26.8754 21.768 26.8754 22.0862 27.0717 22.2826C27.268 22.4788 27.5863 22.4788 27.7826 22.2826L32.6769 17.3883C32.8463 17.2189 32.8726 16.9536 32.7398 16.7542C31.2607 14.5326 31.5591 11.5482 33.4495 9.65789C34.8422 8.26514 36.8558 7.72138 38.7266 8.16039C38.0638 8.5717 37.4783 9.09614 36.9978 9.70699C36.1048 9.80485 35.2723 10.2019 34.6329 10.8412C33.0902 12.3839 33.0902 14.8939 34.6329 16.4366C35.2103 17.014 35.9306 17.389 36.7272 17.531C36.7902 17.6233 36.8547 17.7147 36.9226 17.8044C37.3259 18.3368 37.8102 18.8044 38.3508 19.1923C36.9562 19.4229 35.5085 19.1243 34.3147 18.3294C34.1153 18.1967 33.85 18.2229 33.6807 18.3923L29.0737 22.9992C28.8774 23.1956 28.8774 23.5138 29.0737 23.7102L30.1626 24.7992C30.438 25.0634 30.438 25.5388 30.1626 25.803C29.8983 26.0783 29.4229 26.0784 29.1587 25.8029L28.0698 24.714C27.8735 24.5178 27.5552 24.5178 27.3589 24.714L26.0547 26.0181C25.86 26.2054 25.86 26.5418 26.0547 26.7291L27.1436 27.8179C27.4204 28.0947 27.4204 28.5451 27.1437 28.8218C26.8669 29.0987 26.4166 29.0986 26.1398 28.8218L25.0509 27.7328C24.8546 27.5366 24.5363 27.5366 24.34 27.7328L22.9136 29.1592C22.6368 29.436 22.1865 29.4359 21.9098 29.1592C21.633 28.8824 21.633 28.4321 21.9098 28.1553L26.3608 23.7043C26.5571 23.508 26.5571 23.1898 26.3608 22.9934C26.1644 22.7971 25.8462 22.7971 25.6498 22.9934L21.1988 27.4444C20.5301 28.1131 20.5301 29.2013 21.1988 29.8702C21.8676 30.5388 22.9557 30.5388 23.6245 29.8702L24.6954 28.7993L25.4289 29.5328C26.0976 30.2015 27.1858 30.2015 27.8546 29.5328C28.5233 28.864 28.5233 27.7758 27.8546 27.107L27.1211 26.3736L27.7143 25.7804L28.4478 26.5138C29.0863 27.1793 30.2351 27.1792 30.8736 26.5139C31.5389 25.8755 31.539 24.7265 30.8736 24.0882L30.1401 23.3546L34.1098 19.3849C35.7724 20.3467 37.7869 20.5398 39.6127 19.9048C39.7278 19.9543 39.8439 20.0014 39.9617 20.044ZM42.2521 10.851C42.3618 10.851 42.4677 10.8669 42.5689 10.8942C42.1346 11.3751 41.6187 11.7871 41.036 12.1085C41.0356 12.0952 41.034 12.0823 41.034 12.069C41.034 11.3974 41.5804 10.851 42.2521 10.851ZM43.4702 12.0691C43.4702 12.7407 42.9238 13.2872 42.2521 13.2872C41.9597 13.2872 41.691 13.1834 41.4808 13.011C42.1927 12.6245 42.8211 12.1235 43.3454 11.5353C43.4244 11.6968 43.4702 11.8775 43.4702 12.0691ZM32.7386 8.9469C32.7072 8.97827 32.6774 9.01072 32.6468 9.04262C32.39 8.37023 32.2559 7.6502 32.2559 6.9251C32.2559 3.66098 34.9114 1.00545 38.1755 1.00545C41.4396 1.00545 44.0952 3.66098 44.0952 6.9251C44.0952 7.095 44.0871 7.2635 44.0729 7.43067C43.4768 7.25742 42.8524 7.16664 42.2152 7.16664C41.4517 7.16664 40.7181 7.29668 40.0348 7.53508C37.5588 6.47953 34.6517 7.03373 32.7386 8.9469ZM36.228 10.9436C36.0189 11.3796 35.8563 11.8418 35.7461 12.3238C35.4962 12.2111 35.254 12.082 35.0214 11.9352C35.1166 11.8008 35.2235 11.6723 35.3437 11.5521C35.6016 11.2942 35.9016 11.0892 36.228 10.9436ZM35.3438 15.7256C34.5659 14.9477 34.3147 13.8401 34.5887 12.8485C34.9103 13.0437 35.2467 13.2119 35.5956 13.352C35.5855 13.5008 35.58 13.6508 35.58 13.8021C35.58 14.6518 35.7387 15.4757 36.0439 16.2452C35.789 16.1095 35.5538 15.9355 35.3438 15.7256Z" fill="black"/>
<path d="M48.4333 11.4804C48.3362 11.2203 48.0466 11.0884 47.7865 11.1855C47.5264 11.2826 47.3944 11.5722 47.4915 11.8323C47.7264 12.4612 47.8456 13.1239 47.8456 13.8021C47.8456 16.2463 46.2855 18.3975 43.9635 19.1552C43.7567 19.2227 43.6167 19.4155 43.6167 19.633V22.4242L42.1928 23.5286C41.936 23.7173 41.936 24.1343 42.1928 24.323L43.2991 25.181L42.1927 26.0391C41.936 26.2278 41.936 26.6449 42.1927 26.8336L43.2991 27.6916L42.1927 28.5496C41.9359 28.7383 41.936 29.1554 42.1927 29.3441L43.6167 30.4484V31.6548L42.2334 33.0251L40.9673 31.6665V27.5206C40.9673 27.2429 40.7422 27.0179 40.4646 27.0179C40.187 27.0179 39.9619 27.2429 39.9619 27.5206V31.8645C39.9619 31.9916 40.0101 32.1141 40.0968 32.2072L41.8513 34.0899C42.0352 34.2954 42.3807 34.3024 42.5728 34.1043L44.4733 32.2216C44.5686 32.1272 44.6222 31.9986 44.6222 31.8645V30.2023C44.6222 30.0469 44.5504 29.9003 44.4275 29.805L43.3211 28.947L44.4275 28.089C44.6843 27.9003 44.6843 27.4832 44.4275 27.2945L43.3211 26.4365L44.4275 25.5784C44.6843 25.3897 44.6843 24.9726 44.4275 24.7839L43.3211 23.9259L44.4275 23.0679C44.5504 22.9726 44.6222 22.826 44.6222 22.6706V19.9872C47.1664 19 48.851 16.5592 48.851 13.8021C48.851 13.0034 48.7105 12.2222 48.4333 11.4804Z" fill="black"/>
<g clip-path="url(#clip0)">
<path d="M49.0073 52.4551V78.6273C49.0073 79.9699 48.4356 81.1784 47.5235 82.0249C46.6961 82.792 45.5889 83.2611 44.3723 83.2611H5.37283C4.1563 83.2611 3.04909 82.792 2.22276 82.0256C1.31065 81.1784 0.739014 79.9699 0.739014 78.6273V52.4551H49.0073Z" fill="#FEC970"/>
<path d="M25.0703 83.2613H5.37282C2.81375 83.2613 0.739014 81.1865 0.739014 78.6274V52.2996L5.88601 56.7413L6.20712 57.0082V70.2169C6.20712 74.7106 8.02034 78.9698 12.1546 80.7329C15.9693 82.3598 22.7553 83.2613 25.0703 83.2613Z" fill="#FBA028"/>
<path d="M49.0069 52.455L30.4538 37.0072C27.2202 34.3145 22.5253 34.3145 19.2917 37.0072L0.739014 52.455L6.20713 57.008L19.2917 67.9028C22.5257 70.5959 27.2206 70.5959 30.4534 67.9028L43.5392 57.008L49.0073 52.455" fill="#FBA028"/>
<path d="M43.5391 42.8144V57.0081L30.4533 67.9029C27.2205 70.596 22.5256 70.596 19.2916 67.9029L6.20703 57.0081V42.8144C6.20703 39.8552 8.60669 37.4556 11.567 37.4556H38.1803C41.1402 37.4556 43.5391 39.8552 43.5391 42.8144Z" fill="#BFDADD"/>
<path d="M43.5391 42.8144V53.7574L30.4533 64.6523C27.2205 67.3453 22.5256 67.3453 19.2916 64.6523L6.20703 53.7574V42.8144C6.20703 39.8552 8.60669 37.4556 11.567 37.4556H38.1803C41.1402 37.4556 43.5391 39.8552 43.5391 42.8144Z" fill="#E4F5F7"/>
<path d="M44.5079 80.2536C44.7197 80.2536 44.93 80.1632 45.0762 79.9875C45.3373 79.674 45.2948 79.2082 44.9813 78.9471L33.2008 69.1389C32.8873 68.8778 32.4215 68.9203 32.1604 69.2338C31.8992 69.5473 31.9418 70.0134 32.2553 70.2746L44.0357 80.0828C44.1739 80.1978 44.3413 80.2536 44.5079 80.2536Z" fill="black"/>
<path d="M16.5455 69.1389L4.76505 78.9471C4.45152 79.2082 4.40901 79.674 4.67015 79.9875C4.81591 80.1632 5.02619 80.2536 5.23837 80.2536C5.40501 80.2536 5.5724 80.1978 5.71056 80.0828L17.491 70.2742C17.8045 70.0134 17.847 69.5473 17.5859 69.2338C17.3251 68.9203 16.859 68.8778 16.5455 69.1389Z" fill="black"/>
<path d="M49.7459 52.4569C49.7459 52.2376 49.6484 52.0295 49.4799 51.8891L44.2778 47.5578V42.8162C44.2778 39.4539 41.5426 36.7188 38.1804 36.7188H31.2589L30.9264 36.4417C27.4191 33.5201 22.3272 33.5201 18.8188 36.4417L18.4863 36.7188H16.9927C16.5846 36.7188 16.254 37.0494 16.254 37.4574C16.254 37.8654 16.5846 38.1964 16.9927 38.1964H38.1804C40.7277 38.1964 42.8002 40.2689 42.8002 42.8162V47.9002V47.9006V56.6637L29.9805 67.3373C27.0214 69.8026 22.725 69.8022 19.7643 67.3369L6.94617 56.6637V47.9009C6.94617 47.9006 6.94617 47.9002 6.94617 47.9002V42.8162C6.94617 40.2689 9.01901 38.1964 11.5671 38.1964H14.0373C14.4454 38.1964 14.7764 37.8654 14.7764 37.4574C14.7764 37.0494 14.4454 36.7188 14.0373 36.7188H11.5671C8.20445 36.7188 5.46849 39.4539 5.46849 42.8162V47.5578L0.26646 51.8895C0.0994479 52.0284 0.00227743 52.2341 0.000759144 52.4513C0.000759144 52.4535 0 52.455 0 52.4573V78.6292C0 81.5918 2.41028 84.0017 5.37284 84.0017H38.467C38.875 84.0017 39.2056 83.671 39.2056 83.263C39.2056 82.855 38.875 82.5244 38.467 82.5244H5.37284C3.22484 82.5244 1.47767 80.7768 1.47767 78.6292V54.0333L5.73685 57.58C5.73723 57.58 5.73723 57.58 5.73723 57.5804L18.8188 68.4726C20.5736 69.9336 22.7227 70.6639 24.873 70.6635C27.0225 70.6635 29.1728 69.9332 30.926 68.4726L44.0061 57.5823C44.0083 57.5804 44.0102 57.5789 44.0121 57.577L48.2679 54.0337V78.6288C48.2679 80.7764 46.5207 82.524 44.3727 82.524H41.4223C41.0143 82.524 40.6837 82.8546 40.6837 83.2626C40.6837 83.6707 41.0143 84.0017 41.4223 84.0017H44.3727C47.3353 84.0017 49.7456 81.5914 49.7456 78.6288V52.463C49.7456 52.4611 49.7459 52.4592 49.7459 52.4569ZM28.7222 36.7188H21.0237C23.4162 35.3997 26.3302 35.3997 28.7222 36.7188ZM5.46849 49.4807V55.4335L1.89368 52.4573L5.46849 49.4807ZM44.2778 55.4332V49.4807L47.8526 52.4569L44.2778 55.4332Z" fill="black"/>
<path d="M35.7088 54.7152H14.0379C13.6298 54.7152 13.2988 55.0458 13.2988 55.4539C13.2988 55.8619 13.6298 56.1929 14.0379 56.1929H35.7088C36.1169 56.1929 36.4479 55.8619 36.4479 55.4539C36.4479 55.0458 36.1169 54.7152 35.7088 54.7152Z" fill="black"/>
<path d="M35.7088 59.0059H14.0379C13.6298 59.0059 13.2988 59.3368 13.2988 59.7449C13.2988 60.1529 13.6298 60.4835 14.0379 60.4835H35.7088C36.1169 60.4835 36.4479 60.1529 36.4479 59.7449C36.4479 59.3368 36.1169 59.0059 35.7088 59.0059Z" fill="black"/>
<path d="M35.7088 46.1334H14.0379C13.6298 46.1334 13.2988 46.4644 13.2988 46.8725C13.2988 47.2801 13.6298 47.6111 14.0379 47.6111H35.7088C36.1169 47.6111 36.4479 47.2801 36.4479 46.8725C36.4479 46.4644 36.1169 46.1334 35.7088 46.1334Z" fill="black"/>
<path d="M35.7088 50.4244H30.2911C29.8831 50.4244 29.5525 50.755 29.5525 51.1631C29.5525 51.5711 29.8831 51.9017 30.2911 51.9017H35.7088C36.1168 51.9017 36.4474 51.5711 36.4474 51.1631C36.4474 50.755 36.1168 50.4244 35.7088 50.4244Z" fill="black"/>
<path d="M14.0379 51.9017H27.8285C28.2366 51.9017 28.5672 51.5711 28.5672 51.1631C28.5672 50.755 28.2366 50.4244 27.8285 50.4244H14.0379C13.6298 50.4244 13.2988 50.755 13.2988 51.1631C13.2988 51.5711 13.6298 51.9017 14.0379 51.9017Z" fill="black"/>
</g>
<defs>
<clipPath id="clip0">
<rect width="49.7514" height="49.7514" fill="white" transform="translate(0 34.2485)"/>
</clipPath>
</defs>
</svg>
