<svg width="177" height="160" viewBox="0 0 177 160" fill="none" xmlns="http://www.w3.org/2000/svg">
<circle r="80" transform="matrix(1 0 0 -1 80 80)" fill="#F3F3F3"/>
<path d="M35.8125 81.8125H95.8125V76.1875C95.8125 75.1516 94.9734 74.3125 93.9375 74.3125H37.6875C36.6516 74.3125 35.8125 75.1516 35.8125 76.1875V81.8125Z" fill="#EF6662"/>
<path d="M37.6875 121.188H93.9375C94.9734 121.188 95.8125 120.348 95.8125 119.312V81.8125H35.8125V119.312C35.8125 120.348 36.6516 121.188 37.6875 121.188Z" fill="#E6E5E4"/>
<path d="M45.1875 70.5625H35.8125C35.295 70.5625 34.875 70.1434 34.875 69.625C34.875 69.1066 35.295 68.6875 35.8125 68.6875H44.5116L47.1103 60.8913C47.2303 60.5312 47.5556 60.28 47.9334 60.2528C48.3066 60.2266 48.6684 60.4291 48.8381 60.7684L51.6131 66.3194L54.6187 58.0553C54.7537 57.6841 55.1063 57.4375 55.5 57.4375H55.5131C55.9116 57.4431 56.2631 57.7 56.3897 58.0788L58.9884 65.875H66.75C67.2675 65.875 67.6875 66.2941 67.6875 66.8125C67.6875 67.3309 67.2675 67.75 66.75 67.75H58.3125C57.9084 67.75 57.5503 67.4922 57.4228 67.1088L55.4616 61.2241L52.6313 69.0081C52.5028 69.3597 52.1784 69.6025 51.8044 69.6231C51.4322 69.6475 51.0797 69.4422 50.9119 69.1066L48.1744 63.6306L46.0781 69.9213C45.9487 70.3047 45.5916 70.5625 45.1875 70.5625Z" fill="#6EBAED"/>
<path d="M114.544 67.7739C114.113 78.8683 106.265 88.0614 95.8125 90.5308V76.187C95.8125 75.1511 94.9734 74.312 93.9375 74.312H66.9937C66.225 71.9495 65.8125 69.4277 65.8125 66.812C65.8125 53.672 76.2084 42.9611 89.2247 42.4558C89.7516 42.4352 90.1875 42.8711 90.1875 43.3989V65.8745C90.1875 66.392 90.6075 66.812 91.125 66.812H113.602C114.128 66.812 114.564 67.248 114.544 67.7739Z" fill="#C9C7C6"/>
<path d="M120.187 61.1875C120.187 47.7147 109.285 36.8125 95.8125 36.8125V60.25C95.8125 60.7675 96.2325 61.1875 96.75 61.1875H120.187Z" fill="#F2BE07"/>
<path d="M42.375 81.8125H44.25V121.188H42.375V81.8125Z" fill="#C9C7C6"/>
<path d="M48.9375 81.8125H50.8125V121.188H48.9375V81.8125Z" fill="#C9C7C6"/>
<path d="M55.5 81.8125H57.375V121.188H55.5V81.8125Z" fill="#C9C7C6"/>
<path d="M62.0625 81.8125H63.9375V121.188H62.0625V81.8125Z" fill="#C9C7C6"/>
<path d="M68.625 81.8125H70.5V121.188H68.625V81.8125Z" fill="#C9C7C6"/>
<path d="M75.1875 81.8125H77.0625V121.188H75.1875V81.8125Z" fill="#C9C7C6"/>
<path d="M81.75 81.8125H83.625V121.188H81.75V81.8125Z" fill="#C9C7C6"/>
<path d="M88.3125 81.8125H90.1875V121.188H88.3125V81.8125Z" fill="#C9C7C6"/>
<path d="M35.8125 87.4375H95.8125V89.3125H35.8125V87.4375Z" fill="#C9C7C6"/>
<path d="M35.8125 94H95.8125V95.875H35.8125V94Z" fill="#C9C7C6"/>
<path d="M35.8125 100.562H95.8125V102.438H35.8125V100.562Z" fill="#C9C7C6"/>
<path d="M35.8125 107.125H95.8125V109H35.8125V107.125Z" fill="#C9C7C6"/>
<path d="M35.8125 113.688H95.8125V115.562H35.8125V113.688Z" fill="#C9C7C6"/>
<path d="M97.6875 121.188H90.1875V109C90.1875 107.964 91.0266 107.125 92.0625 107.125H97.6875V121.188Z" fill="#3BA1E3"/>
<path d="M90.1875 121.188H82.6875V113.688C82.6875 112.652 83.5266 111.812 84.5625 111.812H90.1875V121.188Z" fill="#6EBAED"/>
<path d="M105.188 121.188H97.6875V99.625C97.6875 98.5891 98.5266 97.75 99.5625 97.75H105.188V121.188Z" fill="#6EBAED"/>
<path d="M112.688 121.188H105.188V94C105.188 92.9641 106.027 92.125 107.062 92.125H110.812C111.848 92.125 112.688 92.9641 112.688 94V121.188Z" fill="#3BA1E3"/>
<path d="M120.187 121.188H112.688V103.375H118.312C119.348 103.375 120.187 104.214 120.187 105.25V121.188Z" fill="#6EBAED"/>
<path d="M38.6249 63.9921C38.4786 63.9921 38.3296 63.9584 38.1908 63.8852C37.7324 63.6443 37.5552 63.078 37.7961 62.6196L48.1086 42.949C48.3486 42.4896 48.9149 42.3115 49.3743 42.5534C49.8327 42.7943 50.0099 43.3605 49.7689 43.819L39.4564 63.4896C39.2886 63.8102 38.9624 63.9921 38.6249 63.9921Z" fill="#316596"/>
<path d="M59.2498 53.6796C59.0463 53.6796 58.8419 53.6139 58.6704 53.4789C58.2635 53.1583 58.1932 52.5686 58.5129 52.1627L68.8254 39.0527C69.146 38.6449 69.7357 38.5774 70.1416 38.8952C70.5485 39.2158 70.6188 39.8055 70.2991 40.2114L59.9866 53.3214C59.8019 53.5568 59.5263 53.6796 59.2498 53.6796Z" fill="#316596"/>
<path d="M59.235 53.6869C59.01 53.6869 58.7841 53.6063 58.6041 53.4422L48.3197 44.0672C47.9372 43.7185 47.9091 43.125 48.2588 42.7425C48.6085 42.3619 49.201 42.3328 49.5835 42.6816L59.8678 52.0566C60.2503 52.4053 60.2785 52.9988 59.9288 53.3813C59.7432 53.5838 59.49 53.6869 59.235 53.6869Z" fill="#316596"/>
<path d="M38.625 65.875C40.1783 65.875 41.4375 64.6158 41.4375 63.0625C41.4375 61.5092 40.1783 60.25 38.625 60.25C37.0717 60.25 35.8125 61.5092 35.8125 63.0625C35.8125 64.6158 37.0717 65.875 38.625 65.875Z" fill="#6EBAED"/>
<path d="M48.9375 46.1875C50.4908 46.1875 51.75 44.9283 51.75 43.375C51.75 41.8217 50.4908 40.5625 48.9375 40.5625C47.3842 40.5625 46.125 41.8217 46.125 43.375C46.125 44.9283 47.3842 46.1875 48.9375 46.1875Z" fill="#6EBAED"/>
<path d="M59.25 55.5625C60.8033 55.5625 62.0625 54.3033 62.0625 52.75C62.0625 51.1967 60.8033 49.9375 59.25 49.9375C57.6967 49.9375 56.4375 51.1967 56.4375 52.75C56.4375 54.3033 57.6967 55.5625 59.25 55.5625Z" fill="#6EBAED"/>
<path d="M69.5625 42.4375C71.1158 42.4375 72.375 41.1783 72.375 39.625C72.375 38.0717 71.1158 36.8125 69.5625 36.8125C68.0092 36.8125 66.75 38.0717 66.75 39.625C66.75 41.1783 68.0092 42.4375 69.5625 42.4375Z" fill="#6EBAED"/>
<path d="M101.438 56.5002C101.198 56.5002 100.958 56.4084 100.775 56.2255C100.409 55.859 100.409 55.2665 100.775 54.8999L108.275 47.3999C108.642 47.0334 109.234 47.0334 109.601 47.3999C109.968 47.7665 109.968 48.359 109.601 48.7255L102.101 56.2255C101.918 56.4084 101.678 56.5002 101.438 56.5002Z" fill="#316596"/>
<path d="M102.375 49.9375C102.893 49.9375 103.312 49.5178 103.312 49C103.312 48.4822 102.893 48.0625 102.375 48.0625C101.857 48.0625 101.438 48.4822 101.438 49C101.438 49.5178 101.857 49.9375 102.375 49.9375Z" fill="#316596"/>
<path d="M108 55.5625C108.518 55.5625 108.937 55.1428 108.937 54.625C108.937 54.1072 108.518 53.6875 108 53.6875C107.482 53.6875 107.062 54.1072 107.062 54.625C107.062 55.1428 107.482 55.5625 108 55.5625Z" fill="#316596"/>
<path d="M80.8125 60.25H78.9375C77.9034 60.25 77.0625 59.4091 77.0625 58.375C77.0625 57.3409 77.9034 56.5 78.9375 56.5H80.8125C81.8466 56.5 82.6875 57.3409 82.6875 58.375C82.6875 58.8934 83.1075 59.3125 83.625 59.3125C84.1425 59.3125 84.5625 58.8934 84.5625 58.375C84.5625 56.3069 82.8806 54.625 80.8125 54.625V53.6875C80.8125 53.1691 80.3925 52.75 79.875 52.75C79.3575 52.75 78.9375 53.1691 78.9375 53.6875V54.625C76.8694 54.625 75.1875 56.3069 75.1875 58.375C75.1875 60.4431 76.8694 62.125 78.9375 62.125H80.8125C81.8466 62.125 82.6875 62.9659 82.6875 64C82.6875 65.0341 81.8466 65.875 80.8125 65.875H78.9375C77.9034 65.875 77.0625 65.0341 77.0625 64C77.0625 63.4816 76.6425 63.0625 76.125 63.0625C75.6075 63.0625 75.1875 63.4816 75.1875 64C75.1875 66.0681 76.8694 67.75 78.9375 67.75V68.6875C78.9375 69.2059 79.3575 69.625 79.875 69.625C80.3925 69.625 80.8125 69.2059 80.8125 68.6875V67.75C82.8806 67.75 84.5625 66.0681 84.5625 64C84.5625 61.9319 82.8806 60.25 80.8125 60.25Z" fill="#316596"/>
<path d="M62.0625 79C62.5803 79 63 78.5803 63 78.0625C63 77.5447 62.5803 77.125 62.0625 77.125C61.5447 77.125 61.125 77.5447 61.125 78.0625C61.125 78.5803 61.5447 79 62.0625 79Z" fill="#E05551"/>
<path d="M65.8125 79C66.3303 79 66.75 78.5803 66.75 78.0625C66.75 77.5447 66.3303 77.125 65.8125 77.125C65.2947 77.125 64.875 77.5447 64.875 78.0625C64.875 78.5803 65.2947 79 65.8125 79Z" fill="#E05551"/>
<path d="M69.5625 79C70.0803 79 70.5 78.5803 70.5 78.0625C70.5 77.5447 70.0803 77.125 69.5625 77.125C69.0447 77.125 68.625 77.5447 68.625 78.0625C68.625 78.5803 69.0447 79 69.5625 79Z" fill="#E05551"/>
<g clip-path="url(#clip0)">
<path d="M176.329 58.5421L153.585 18.168C151.646 14.6419 146.357 14.6419 144.417 18.168L121.674 58.5421C119.734 62.0681 122.203 66.4758 126.258 66.4758H171.568C175.8 66.2996 178.268 62.0681 176.329 58.5421Z" fill="#E24C4B"/>
<path d="M149.001 20.8125L171.745 61.1866H126.258L149.001 20.8125Z" fill="white"/>
<path d="M145.299 39.3251L146.709 48.6693C146.886 49.7271 147.767 50.6086 149.001 50.6086C150.059 50.6086 151.117 49.7271 151.293 48.6693L152.704 39.3251C153.056 37.0331 151.293 35.0938 149.001 35.0938C146.709 35.0936 145.123 37.0331 145.299 39.3251Z" fill="#3F4448"/>
<path d="M149.001 56.7803C150.169 56.7803 151.117 55.833 151.117 54.6645C151.117 53.4961 150.169 52.5488 149.001 52.5488C147.832 52.5488 146.885 53.4961 146.885 54.6645C146.885 55.833 147.832 56.7803 149.001 56.7803Z" fill="#3F4448"/>
</g>
<defs>
<clipPath id="clip0">
<rect width="56" height="56" fill="white" transform="translate(121 13)"/>
</clipPath>
</defs>
</svg>
