<svg width="15" height="8" viewBox="0 0 15 8" fill="none" xmlns="http://www.w3.org/2000/svg">
<path d="M7.00706 5.59229L12.3011 0.292287C12.4885 0.105121 12.7426 0 13.0076 0C13.2725 0 13.5266 0.105121 13.7141 0.292287C13.9003 0.481092 14.0047 0.73561 14.0047 1.00079C14.0047 1.26596 13.9003 1.52048 13.7141 1.70929L7.71406 7.70929C7.53183 7.89053 7.28682 7.99466 7.02986 8.00006C6.77291 8.00546 6.52373 7.91172 6.33406 7.73829L0.294057 1.71129C0.106152 1.52391 0.000376072 1.26956 1.00087e-06 1.0042C-0.00037407 0.738837 0.104682 0.484192 0.292057 0.296287C0.479433 0.108381 0.733779 0.00260572 0.999143 0.00223064C1.26451 0.00185557 1.51915 0.106911 1.70706 0.294287L7.00706 5.59229Z" fill="#9A9A9A"/>
</svg>
