<svg width="42" height="42" viewBox="0 0 42 42" fill="none" xmlns="http://www.w3.org/2000/svg">
<path d="M5.47139 26.9099C4.41091 26.6239 3.78265 25.5319 4.06937 24.4714C4.35609 23.4109 5.44736 22.7826 6.50784 23.0694C7.56832 23.3554 8.19659 24.4474 7.90987 25.5078C7.67394 26.3831 6.87551 26.9881 5.96872 26.9784C5.80064 26.9757 5.63393 26.953 5.47139 26.9099Z" fill="#21C393"/>
<path d="M6.69768 32.1262C7.73139 32.5124 8.25677 33.6634 7.87061 34.6971C7.48446 35.7308 6.33347 36.2562 5.29975 35.87C4.26604 35.4839 3.74067 34.3329 4.12682 33.2992C4.42038 32.5131 5.17283 31.9946 6.01178 32C6.24561 32.0028 6.47816 32.0453 6.69768 32.1262Z" fill="#FF0000"/>
<path d="M5.37283 8.53505C5.59235 8.61663 5.82482 8.65924 6.05873 8.66125C7.21246 8.67772 8.1604 7.75582 8.17688 6.60274C8.19336 5.44902 7.27145 4.50107 6.11837 4.48459C4.96529 4.46811 4.0167 5.39002 4.00023 6.5431C3.9872 7.43132 4.53806 8.23048 5.37283 8.53505Z" fill="#0071BC"/>
<path d="M7.0864 14.2796C6.10687 13.7089 4.85098 14.0395 4.27962 15.0191C3.70891 15.9986 4.03952 17.2545 5.01906 17.8258C5.99859 18.3966 7.25448 18.0659 7.82584 17.0864C8.00967 16.7709 8.10637 16.4114 8.105 16.0465C8.10565 15.3182 7.7174 14.6439 7.0864 14.2796Z" fill="#FFC700"/>
<path d="M13 24H23.9748V25.3719H13V24Z" fill="#29485A"/>
<path d="M13 15H23.9748V16.3719H13V15Z" fill="#29485A"/>
<path d="M13 5.80078H23.9748V7.17266H13V5.80078Z" fill="#29485A"/>
<path d="M13 33H23.9748V34.3719H13V33Z" fill="#29485A"/>
<path d="M29 24H34V25.3719H29V24Z" fill="#29485A"/>
<path d="M29 15H34V16.3719H29V15Z" fill="#29485A"/>
<path d="M29 5.80078H34V7.17266H29V5.80078Z" fill="#29485A"/>
<path d="M29 33H34V34.3719H29V33Z" fill="#29485A"/>
</svg>
