<svg width="25" height="25" viewBox="0 0 25 25" fill="none" xmlns="http://www.w3.org/2000/svg">
<path d="M12.5 24.0317C18.8688 24.0317 24.0317 18.8687 24.0317 12.4999C24.0317 6.13112 18.8688 0.968185 12.5 0.968185C6.1312 0.968185 0.968262 6.13112 0.968262 12.4999C0.968262 18.8687 6.1312 24.0317 12.5 24.0317Z" fill="#3C3B46"/>
<path d="M12.5 25C5.60806 25 0 19.3929 0 12.5C0 5.60806 5.60806 0 12.5 0C19.3929 0 25 5.60806 25 12.5C25 19.3929 19.3929 25 12.5 25ZM12.5 1.93647C6.67505 1.93647 1.93647 6.67505 1.93647 12.5C1.93647 18.325 6.67505 23.0635 12.5 23.0635C18.325 23.0635 23.0635 18.324 23.0635 12.5C23.0635 6.67505 18.325 1.93647 12.5 1.93647Z" fill="#3C3B46"/>
<path d="M17.3412 13.3723H7.65878C7.12431 13.3723 6.69052 12.9385 6.69052 12.4041C6.69052 11.8696 7.12431 11.4358 7.65878 11.4358H17.3412C17.8767 11.4358 18.3095 11.8696 18.3095 12.4041C18.3095 12.9385 17.8767 13.3723 17.3412 13.3723Z" fill="white"/>
<g clip-path="url(#clip0)">
<path d="M12.4999 24.0375C18.8717 24.0375 24.0371 18.8721 24.0371 12.5002C24.0371 6.12839 18.8717 0.962997 12.4999 0.962997C6.12801 0.962997 0.962616 6.12839 0.962616 12.5002C0.962616 18.8721 6.12801 24.0375 12.4999 24.0375Z" fill="#DF4934"/>
<path d="M12.5 25.0001C9.29747 25.0001 6.09491 23.7815 3.65668 21.3442C-1.21885 16.4687 -1.21885 8.534 3.65668 3.65749C8.53222 -1.21707 16.4679 -1.21804 21.3434 3.65749C26.2189 8.534 26.2189 16.4677 21.3434 21.3442C18.9051 23.7815 15.7016 25.0001 12.5 25.0001ZM5.02644 5.02724C0.90653 9.14812 0.90653 15.8536 5.02644 19.9745C9.14829 24.0944 15.8537 24.0953 19.9737 19.9745C24.0936 15.8536 24.0936 9.14812 19.9737 5.02724C15.8517 0.907339 9.14732 0.907339 5.02644 5.02724Z" fill="#DF4934"/>
<path d="M9.1372 16.8303C8.88919 16.8303 8.64124 16.7353 8.45232 16.5464C8.07355 16.1676 8.07355 15.5554 8.45232 15.1767L15.3011 8.32788C15.6799 7.94912 16.2921 7.94912 16.6708 8.32788C17.0496 8.70665 17.0496 9.31887 16.6708 9.69764L9.82207 16.5464C9.63218 16.7353 9.38515 16.8303 9.1372 16.8303Z" fill="white"/>
<path d="M15.9844 16.8303C15.7364 16.8303 15.4885 16.7353 15.2996 16.5464L8.45079 9.69764C8.07203 9.31887 8.07203 8.70665 8.45079 8.32788C8.82956 7.94912 9.44178 7.94912 9.82055 8.32788L16.6693 15.1767C17.0481 15.5554 17.0481 16.1676 16.6693 16.5464C16.4804 16.7353 16.2324 16.8303 15.9844 16.8303Z" fill="white"/>
</g>
<defs>
<clipPath id="clip0">
<rect width="25" height="25" fill="white"/>
</clipPath>
</defs>
</svg>
