<svg width="38" height="30" viewBox="0 0 38 30" fill="none" xmlns="http://www.w3.org/2000/svg">
<path d="M11.8871 16.7743C12.9165 16.7743 13.7743 15.9165 13.7743 14.8871C13.7743 13.8578 12.9165 13 11.8871 13C10.8578 13 10 13.8578 10 14.8871C10 15.9165 10.8578 16.7743 11.8871 16.7743Z" fill="black"/>
<path d="M19 16.7743C20.0294 16.7743 20.8871 15.9165 20.8871 14.8871C20.8871 13.8578 20.0294 13 19 13C17.9706 13 17.1129 13.8578 17.1129 14.8871C17.1129 15.9165 17.9706 16.7743 19 16.7743Z" fill="black"/>
<path d="M26.1129 16.7743C27.1422 16.7743 28 15.9165 28 14.8871C28 13.8578 27.1422 13 26.1129 13C25.0835 13 24.2257 13.8578 24.2257 14.8871C24.2257 15.9165 25.0835 16.7743 26.1129 16.7743Z" fill="black"/>
<rect x="0.5" y="0.5" width="37" height="28.7743" rx="3.5" stroke="#776FFF"/>
</svg>
