<svg width="177" height="160" viewBox="0 0 177 160" fill="none" xmlns="http://www.w3.org/2000/svg">
<circle r="80" transform="matrix(1 0 0 -1 84 80)" fill="#E0E0E0"/>
<path d="M4.86899 18.3034L5.88761 21.1677C5.93125 21.2904 6.01751 21.3875 6.12651 21.4365L8.67133 22.583C9.03093 22.745 9.03093 23.3178 8.67133 23.4798L6.12651 24.6263C6.01751 24.6755 5.93125 24.7726 5.88761 24.8953L4.86899 27.7596C4.72505 28.1643 4.21615 28.1643 4.07221 27.7596L3.05358 24.8953C3.00995 24.7726 2.92368 24.6755 2.81468 24.6263L0.269703 23.4801C-0.089901 23.3181 -0.089901 22.7454 0.269703 22.5834L2.81468 21.4367C2.92368 21.3875 3.00995 21.2904 3.05358 21.1679L4.07221 18.3036C4.21615 17.8988 4.72505 17.8988 4.86899 18.3034Z" fill="#474343"/>
<path d="M155.749 85.7629C165.146 85.7629 172.763 78.1458 172.763 68.7498C172.763 59.3537 165.146 51.7366 155.749 51.7366C146.353 51.7366 138.736 59.3537 138.736 68.7498C138.736 78.1458 146.353 85.7629 155.749 85.7629Z" fill="#F4858A"/>
<path d="M155.75 87.4986C145.411 87.4986 137 79.0876 137 68.7494C137 58.411 145.411 50 155.75 50C165.196 50 173.195 57.059 174.356 66.4201C174.474 67.3717 173.798 68.239 172.846 68.357C171.895 68.4752 171.027 67.799 170.909 66.8475C169.964 59.2228 163.446 53.4731 155.75 53.4731C147.326 53.4731 140.473 60.3261 140.473 68.7496C140.473 77.173 147.326 84.0259 155.75 84.0259C159.84 84.0259 163.684 82.4299 166.571 79.532C167.248 78.8527 168.348 78.8508 169.027 79.5276C169.706 80.2045 169.708 81.3042 169.031 81.9835C165.487 85.5399 160.77 87.4986 155.75 87.4986Z" fill="black"/>
<path d="M148.828 66.7674C147.869 66.7674 147.091 65.9898 147.091 65.0309V62.6675C147.091 61.7084 147.869 60.931 148.828 60.931C149.787 60.931 150.564 61.7084 150.564 62.6675V65.0309C150.564 65.99 149.787 66.7674 148.828 66.7674Z" fill="black"/>
<path d="M162.671 66.7675C161.712 66.7675 160.935 65.9899 160.935 65.0311V62.6676C160.935 61.7086 161.712 60.9312 162.671 60.9312C163.63 60.9312 164.407 61.7086 164.407 62.6676V65.0311C164.407 65.9901 163.63 66.7675 162.671 66.7675Z" fill="black"/>
<path d="M161.553 76.1786C160.991 76.1786 160.439 75.9054 160.104 75.4011C159.212 74.0549 157.717 73.2511 156.106 73.2511H155.393C153.782 73.2511 152.287 74.0549 151.395 75.4013C150.865 76.2008 149.787 76.419 148.988 75.8896C148.188 75.3598 147.97 74.2822 148.5 73.4829C150.037 71.1634 152.614 69.7784 155.393 69.7784H156.106C158.885 69.7784 161.462 71.1634 162.999 73.4831C163.529 74.2825 163.31 75.36 162.511 75.8896C162.216 76.085 161.883 76.1786 161.553 76.1786Z" fill="black"/>
<path d="M22.869 53.3034L23.8876 56.1677C23.9312 56.2904 24.0175 56.3875 24.1265 56.4365L26.6713 57.583C27.0309 57.745 27.0309 58.3178 26.6713 58.4798L24.1265 59.6263C24.0175 59.6755 23.9312 59.7726 23.8876 59.8953L22.869 62.7596C22.725 63.1643 22.2162 63.1643 22.0722 62.7596L21.0536 59.8953C21.0099 59.7726 20.9237 59.6755 20.8147 59.6263L18.2697 58.4801C17.9101 58.3181 17.9101 57.7454 18.2697 57.5834L20.8147 56.4367C20.9237 56.3875 21.0099 56.2904 21.0536 56.1679L22.0722 53.3036C22.2162 52.8988 22.725 52.8988 22.869 53.3034Z" fill="#7C7C7C"/>
<path d="M170.564 13.4091L171.937 17.2707C171.996 17.436 172.112 17.5671 172.259 17.6331L175.69 19.1788C176.174 19.3972 176.174 20.1694 175.69 20.3879L172.259 21.9336C172.112 21.9998 171.996 22.1307 171.937 22.2962L170.564 26.1578C170.37 26.7033 169.684 26.7033 169.49 26.1578L168.116 22.2962C168.057 22.1309 167.941 21.9998 167.794 21.9336L164.363 20.3879C163.879 20.1695 163.879 19.3973 164.363 19.1788L167.794 17.6331C167.941 17.5669 168.057 17.436 168.116 17.2707L169.49 13.4091C169.684 12.8636 170.37 12.8636 170.564 13.4091Z" fill="#656565"/>
<path d="M115.121 118L118.56 121.44C119.146 122.025 119.146 122.975 118.56 123.561C117.975 124.146 117.025 124.146 116.439 123.561L113 120.121L109.56 123.561C108.975 124.146 108.024 124.146 107.439 123.561C106.854 122.975 106.854 122.025 107.439 121.44L110.879 118L107.439 114.561C106.854 113.975 106.854 113.025 107.439 112.44C107.732 112.146 108.116 112 108.5 112C108.884 112 109.268 112.146 109.56 112.44L113 115.879L116.439 112.44C116.733 112.146 117.116 112 117.5 112C117.884 112 118.267 112.146 118.56 112.44C119.146 113.025 119.146 113.975 118.56 114.561L115.121 118Z" fill="black"/>
<path d="M50.4139 122L52.7069 124.293C53.0974 124.684 53.0974 125.317 52.7069 125.707C52.3164 126.098 51.6834 126.098 51.2929 125.707L48.9999 123.414L46.7069 125.707C46.3169 126.098 45.6829 126.098 45.2929 125.707C44.9024 125.317 44.9024 124.684 45.2929 124.293L47.5859 122L45.2929 119.707C44.9024 119.317 44.9024 118.684 45.2929 118.293C45.4879 118.098 45.7439 118 45.9999 118C46.2559 118 46.5119 118.098 46.7069 118.293L48.9999 120.586L51.2929 118.293C51.4884 118.098 51.7439 118 51.9999 118C52.2559 118 52.5114 118.098 52.7069 118.293C53.0974 118.684 53.0974 119.317 52.7069 119.707L50.4139 122Z" fill="black"/>
<g clip-path="url(#clip0)">
<path d="M39.2451 76.6751L39.2451 76.6881C39.2451 78.8162 40.9704 80.5413 43.0983 80.5413L117.902 80.5413C120.03 80.5413 121.755 78.8162 121.755 76.6881L121.755 76.6751C121.755 74.547 120.03 72.8219 117.902 72.8219L43.0983 72.8219C40.9704 72.8219 39.2451 74.5471 39.2451 76.6751Z" fill="#B5E8E0"/>
<path d="M39.2451 47.4L39.2451 47.413C39.2451 49.5411 40.9704 51.2662 43.0983 51.2662L117.902 51.2662C120.03 51.2662 121.755 49.5409 121.755 47.413L121.755 47.4C121.755 45.2718 120.03 43.5468 117.902 43.5468L43.0983 43.5468C40.9704 43.5468 39.2451 45.272 39.2451 47.4Z" fill="#B5E8E0"/>
<path d="M39.2451 18.1249L39.2451 18.1378C39.2451 20.266 40.9704 21.991 43.0983 21.991L117.902 21.991C120.03 21.991 121.755 20.2658 121.755 18.1378L121.755 18.1249C121.755 15.9967 120.03 14.2716 117.902 14.2716L43.0983 14.2716C40.9704 14.2715 39.2451 15.9967 39.2451 18.1249Z" fill="#B5E8E0"/>
<path d="M81.8597 71.2158L81.8597 82.5213C81.8597 85.449 84.2331 87.8223 87.1608 87.8223L107.628 87.8223C110.555 87.8223 112.929 85.449 112.929 82.5213L112.929 71.2158C112.929 68.2881 110.555 65.9147 107.628 65.9147L87.1608 65.9147C84.2331 65.9147 81.8597 68.2881 81.8597 71.2158Z" fill="#FFD88F"/>
<path d="M112.929 71.2158L112.929 77.8564C112.929 74.9288 110.555 72.5554 107.628 72.5554L87.1608 72.5554C84.2331 72.5554 81.8597 74.9288 81.8597 77.8564L81.8597 71.2158C81.8597 68.2881 84.2331 65.9148 87.1608 65.9148L107.628 65.9148C110.555 65.9148 112.929 68.2881 112.929 71.2158Z" fill="#FFC963"/>
<path d="M48.3363 41.7539L48.3363 53.0594C48.3363 55.9871 50.7096 58.3604 53.6373 58.3604L74.1042 58.3604C77.0319 58.3604 79.4053 55.9871 79.4053 53.0594L79.4053 41.7539C79.4053 38.8262 77.0319 36.4529 74.1042 36.4529L53.6373 36.4529C50.7096 36.4529 48.3363 38.8262 48.3363 41.7539Z" fill="#FF7893"/>
<path d="M79.4053 41.7538L79.4053 48.3944C79.4053 45.4667 77.0319 43.0933 74.1042 43.0933L53.6373 43.0933C50.7096 43.0933 48.3363 45.4667 48.3363 48.3944L48.3363 41.7538C48.3363 38.8261 50.7096 36.4527 53.6373 36.4527L74.1042 36.4527C77.0319 36.4527 79.4053 38.8261 79.4053 41.7538Z" fill="#FF5E7F"/>
<path d="M67.578 12.4786L67.578 23.7841C67.578 26.7118 69.9513 29.0851 72.879 29.0851L93.3459 29.0851C96.2736 29.0851 98.647 26.7118 98.647 23.7841L98.647 12.4786C98.647 9.55088 96.2736 7.17752 93.3459 7.17752L72.879 7.17752C69.9513 7.17752 67.578 9.55088 67.578 12.4786Z" fill="#FF9E5E"/>
<path d="M98.647 12.4786L98.647 19.1192C98.647 16.1915 96.2736 13.8182 93.3459 13.8182L72.879 13.8182C69.9513 13.8182 67.578 16.1915 67.578 19.1192L67.578 12.4786C67.578 9.55092 69.9513 7.17756 72.879 7.17756L93.3459 7.17756C96.2736 7.17756 98.647 9.55092 98.647 12.4786Z" fill="#FA8D46"/>
<path d="M114.174 71.2158L114.174 71.5769L117.902 71.5769C120.713 71.5769 123 73.8641 123 76.6882C123 79.4995 120.713 81.7865 117.902 81.7865L114.174 81.7865C114.364 85.6024 111.607 89.0674 107.627 89.0674L87.1605 89.0674C83.1758 89.0674 80.4349 85.6032 80.6144 81.7867L43.0983 81.7867C40.287 81.7867 38 79.4996 38 76.6754C38 73.8641 40.287 71.577 43.0983 71.577L80.6144 71.577C80.4847 67.8898 83.4192 64.6698 87.1605 64.6698L94.2796 64.6698C95.8458 64.6698 95.9204 67.173 94.2793 67.173C91.9074 67.173 89.5332 67.16 87.1605 67.16C84.9241 67.16 83.1046 68.9794 83.1046 71.2159L83.1046 82.5213C83.1046 84.7577 84.9241 86.5772 87.1605 86.5772L107.627 86.5772C109.864 86.5772 111.683 84.7578 111.683 82.5213L111.683 71.2158C111.683 68.9794 109.864 67.1599 107.627 67.1599C105.392 67.1599 103.155 67.1728 100.92 67.1728C99.3496 67.1728 99.2815 64.6696 100.919 64.6696L107.627 64.6696C111.237 64.6696 114.174 67.6063 114.174 71.2158ZM43.0983 74.0671C41.6603 74.0671 40.4902 75.237 40.4902 76.6882C40.4902 78.1263 41.6603 79.2963 43.0983 79.2963L80.6144 79.2963L80.6144 74.0671L43.0983 74.0671ZM117.902 79.2963C119.34 79.2963 120.51 78.1263 120.51 76.6752C120.51 75.237 119.34 74.0671 117.902 74.0671L114.174 74.0671L114.174 79.2963L117.902 79.2963Z" fill="black"/>
<path d="M80.6504 41.7539L80.6504 42.3017L117.902 42.3017C120.713 42.3017 123 44.5888 123 47.413C123 50.2243 120.713 52.5114 117.902 52.5114L80.6504 52.5114C80.8144 56.264 77.9628 59.6054 74.1042 59.6054L53.6373 59.6054C49.761 59.6054 46.9531 56.2655 47.091 52.5114L43.0982 52.5114C40.2869 52.5114 37.9998 50.2242 37.9998 47.4001C37.9998 44.5888 40.2869 42.3017 43.0982 42.3017L47.091 42.3017C46.927 38.5491 49.7786 35.2077 53.6373 35.2077L74.1044 35.2077C77.7139 35.2077 80.6504 38.1444 80.6504 41.7539ZM117.902 50.0213C119.34 50.0213 120.51 48.8512 120.51 47.4002C120.51 45.962 119.34 44.7921 117.902 44.7921L80.6504 44.7921L80.6504 50.0213L117.902 50.0213ZM43.0983 44.792C41.6603 44.792 40.4902 45.9619 40.4902 47.413C40.4902 48.8512 41.6603 50.0211 43.0983 50.0211L47.0912 50.0211L47.0912 44.792L43.0983 44.792ZM53.6373 37.698C51.4008 37.698 49.5813 39.5175 49.5813 41.7539L49.5813 53.0594C49.5813 55.2958 51.4008 57.1153 53.6373 57.1153L74.1044 57.1153C76.3408 57.1153 78.1603 55.2959 78.1603 53.0594L78.1603 41.7539C78.1603 39.5175 76.3408 37.698 74.1044 37.698L53.6373 37.698Z" fill="black"/>
<path d="M99.8921 12.4785L99.8921 13.0264L117.902 13.0264C120.713 13.0264 123 15.3134 123 18.1377C123 20.949 120.713 23.236 117.902 23.236L99.8921 23.236C100.056 26.9886 97.2043 30.33 93.3458 30.33L72.8791 30.33C69.0028 30.33 66.1948 26.9901 66.3327 23.236L43.0983 23.236C40.287 23.236 38 20.9488 38 18.1247C38 15.3134 40.287 13.0264 43.0983 13.0264L50.4512 13.0264C52.061 13.0264 52.061 15.5166 50.4512 15.5166L43.0983 15.5166C41.6603 15.5166 40.4902 16.6865 40.4902 18.1377C40.4902 19.5759 41.6603 20.7458 43.0983 20.7458L66.3327 20.7458L66.3327 15.5166L57.5898 15.5166C55.98 15.5166 55.98 13.0264 57.5898 13.0264L66.3327 13.0264C66.1687 9.27375 69.0204 5.93235 72.8791 5.93235L93.3458 5.93235C96.9553 5.93235 99.8921 8.869 99.8921 12.4785ZM117.902 20.7459C119.34 20.7459 120.51 19.5759 120.51 18.1249C120.51 16.6867 119.34 15.5168 117.902 15.5168L99.8921 15.5168L99.8921 20.7459L117.902 20.7459ZM72.8791 8.42259C70.6425 8.42259 68.823 10.2421 68.823 12.4785L68.823 23.784C68.823 26.0204 70.6425 27.8399 72.8791 27.8399L93.3458 27.8399C95.5824 27.8399 97.4019 26.0206 97.4019 23.784L97.4019 12.4785C97.4019 10.2421 95.5824 8.42259 93.3458 8.42259L72.8791 8.42259Z" fill="black"/>
<path d="M106.318 73.0087L106.318 80.7281C106.318 81.4157 105.761 81.9732 105.073 81.9732C104.385 81.9732 103.828 81.4157 103.828 80.7281L103.828 73.0087C103.828 72.321 104.385 71.7635 105.073 71.7635C105.761 71.7635 106.318 72.321 106.318 73.0087Z" fill="black"/>
<path d="M98.6392 73.0087L98.6392 80.7281C98.6392 81.4157 98.0818 81.9732 97.394 81.9732C96.7062 81.9732 96.1489 81.4157 96.1489 80.7281L96.1489 73.0087C96.1489 72.321 96.7062 71.7635 97.394 71.7635C98.0818 71.7635 98.6392 72.321 98.6392 73.0087Z" fill="black"/>
<path d="M90.96 73.0087L90.96 80.7281C90.96 81.4157 90.4026 81.9732 89.7148 81.9732C89.027 81.9732 88.4697 81.4157 88.4697 80.7281L88.4697 73.0087C88.4697 72.321 89.027 71.7635 89.7148 71.7635C90.4026 71.7635 90.96 72.321 90.96 73.0087Z" fill="black"/>
<path d="M72.7949 43.5468L72.7949 51.2662C72.7949 51.9538 72.2376 52.5113 71.5498 52.5113C70.862 52.5113 70.3047 51.9538 70.3047 51.2662L70.3047 43.5468C70.3047 42.8591 70.862 42.3017 71.5498 42.3017C72.2376 42.3017 72.7949 42.8591 72.7949 43.5468Z" fill="black"/>
<path d="M65.1162 43.5468L65.1162 51.2662C65.1162 51.9538 64.5589 52.5113 63.8711 52.5113C63.1833 52.5113 62.626 51.9538 62.626 51.2662L62.626 43.5468C62.626 42.8591 63.1833 42.3017 63.8711 42.3017C64.5589 42.3017 65.1162 42.8591 65.1162 43.5468Z" fill="black"/>
<path d="M57.437 43.5468L57.437 51.2662C57.437 51.9538 56.8797 52.5113 56.1919 52.5113C55.5041 52.5113 54.9468 51.9538 54.9468 51.2662L54.9468 43.5468C54.9468 42.8591 55.5041 42.3017 56.1919 42.3017C56.8797 42.3017 57.437 42.8591 57.437 43.5468Z" fill="black"/>
<path d="M92.0366 14.2717L92.0366 21.9911C92.0366 22.6787 91.4793 23.2362 90.7915 23.2362C90.1037 23.2362 89.5464 22.6787 89.5464 21.9911L89.5464 14.2717C89.5464 13.584 90.1037 13.0266 90.7915 13.0266C91.4793 13.0266 92.0366 13.584 92.0366 14.2717Z" fill="black"/>
<path d="M84.3574 14.2717L84.3574 21.9911C84.3574 22.6787 83.8001 23.2362 83.1123 23.2362C82.4245 23.2362 81.8672 22.6787 81.8672 21.9911L81.8672 14.2717C81.8672 13.584 82.4245 13.0266 83.1123 13.0266C83.8001 13.0266 84.3574 13.584 84.3574 14.2717Z" fill="black"/>
<path d="M76.6787 14.2717L76.6787 21.9911C76.6787 22.6787 76.1214 23.2362 75.4336 23.2362C74.7458 23.2362 74.1885 22.6787 74.1885 21.9911L74.1885 14.2717C74.1885 13.584 74.7458 13.0266 75.4336 13.0266C76.1214 13.0266 76.6787 13.584 76.6787 14.2717Z" fill="black"/>
</g>
<path d="M85.9492 119L93.9749 127.026C95.3417 128.393 95.3417 130.608 93.9749 131.975C92.6081 133.342 90.3925 133.342 89.0258 131.975L81 123.949L72.9742 131.975C71.6092 133.342 69.3901 133.342 68.0251 131.975C66.6583 130.608 66.6583 128.393 68.0251 127.026L76.0508 119L68.0251 110.974C66.6583 109.607 66.6583 107.392 68.0251 106.025C68.7076 105.341 69.6036 105 70.4997 105C71.3957 105 72.2917 105.341 72.9742 106.025L81 114.051L89.0258 106.025C89.71 105.341 90.6043 105 91.5003 105C92.3964 105 93.2906 105.341 93.9749 106.025C95.3417 107.392 95.3417 109.607 93.9749 110.974L85.9492 119Z" fill="black"/>
<defs>
<clipPath id="clip0">
<rect width="85" height="85" fill="white" transform="matrix(1.19249e-08 -1 -1 -1.19249e-08 123 90)"/>
</clipPath>
</defs>
</svg>
