<svg width="16" height="18" viewBox="0 0 16 18" fill="none" xmlns="http://www.w3.org/2000/svg">
<path d="M15.1111 0H0.888889C0.397569 0 0 0.402539 0 0.9V17.1C0 17.5975 0.397569 18 0.888889 18H15.1111C15.6024 18 16 17.5975 16 17.1V0.9C16 0.402539 15.6024 0 15.1111 0ZM14.2222 16.2H1.77778V1.8H14.2222V16.2Z" fill="#4C4C4C"/>
<path d="M8.88889 5.4001H12.4444C12.9358 5.4001 13.3333 4.99756 13.3333 4.5001C13.3333 4.00264 12.9358 3.6001 12.4444 3.6001H8.88889C8.39757 3.6001 8 4.00264 8 4.5001C8 4.99756 8.39757 5.4001 8.88889 5.4001Z" fill="#4C4C4C"/>
<path d="M8.88889 9.9001H12.4444C12.9358 9.9001 13.3333 9.49756 13.3333 9.0001C13.3333 8.50264 12.9358 8.1001 12.4444 8.1001H8.88889C8.39757 8.1001 8 8.50264 8 9.0001C8 9.49756 8.39757 9.9001 8.88889 9.9001Z" fill="#4C4C4C"/>
<path d="M8.88889 14.4001H12.4444C12.9358 14.4001 13.3333 13.9976 13.3333 13.5001C13.3333 13.0026 12.9358 12.6001 12.4444 12.6001H8.88889C8.39757 12.6001 8 13.0026 8 13.5001C8 13.9976 8.39757 14.4001 8.88889 14.4001Z" fill="#4C4C4C"/>
<path d="M3.81605 6.03652C3.98966 6.2123 4.2171 6.3002 4.44453 6.3002C4.67196 6.3002 4.89939 6.2123 5.073 6.03652L6.85078 4.23652C7.198 3.88496 7.198 3.31543 6.85078 2.96387C6.50355 2.6123 5.94105 2.6123 5.59383 2.96387L4.44453 4.12754L4.18411 3.86387C3.83689 3.5123 3.27439 3.5123 2.92716 3.86387C2.57994 4.21543 2.57994 4.78496 2.92716 5.13652L3.81605 6.03652Z" fill="#4C4C4C"/>
<path d="M3.81605 10.5365C3.98966 10.7123 4.2171 10.8002 4.44453 10.8002C4.67196 10.8002 4.89939 10.7123 5.073 10.5365L6.85078 8.73652C7.198 8.38496 7.198 7.81543 6.85078 7.46387C6.50355 7.1123 5.94105 7.1123 5.59383 7.46387L4.44453 8.62754L4.18411 8.36387C3.83689 8.0123 3.27439 8.0123 2.92716 8.36387C2.57994 8.71543 2.57994 9.28496 2.92716 9.63652L3.81605 10.5365Z" fill="#4C4C4C"/>
<path d="M3.81605 15.0365C3.98966 15.2123 4.2171 15.3002 4.44453 15.3002C4.67196 15.3002 4.89939 15.2123 5.073 15.0365L6.85078 13.2365C7.198 12.885 7.198 12.3154 6.85078 11.9639C6.50355 11.6123 5.94105 11.6123 5.59383 11.9639L4.44453 13.1275L4.18411 12.8639C3.83689 12.5123 3.27439 12.5123 2.92716 12.8639C2.57994 13.2154 2.57994 13.785 2.92716 14.1365L3.81605 15.0365Z" fill="#4C4C4C"/>
</svg>
