<svg width="25" height="25" viewBox="0 0 25 25" fill="none" xmlns="http://www.w3.org/2000/svg">
<path d="M12.4995 24.0317C18.8683 24.0317 24.0313 18.8688 24.0313 12.5C24.0313 6.1312 18.8683 0.968262 12.4995 0.968262C6.13071 0.968262 0.967773 6.1312 0.967773 12.5C0.967773 18.8688 6.13071 24.0317 12.4995 24.0317Z" fill="#C0C0C0"/>
<path d="M12.5 25C5.60806 25 0 19.3929 0 12.5C0 5.60806 5.60806 0 12.5 0C19.3929 0 25 5.60806 25 12.5C25 19.3929 19.3929 25 12.5 25ZM12.5 1.93647C6.67505 1.93647 1.93647 6.67505 1.93647 12.5C1.93647 18.325 6.67505 23.0635 12.5 23.0635C18.325 23.0635 23.0635 18.324 23.0635 12.5C23.0635 6.67505 18.325 1.93647 12.5 1.93647Z" fill="#C0C0C0"/>
<path d="M12.4995 18.2225C11.965 18.2225 11.5312 17.7896 11.5312 17.2542V7.57178C11.5312 7.0373 11.965 6.60352 12.4995 6.60352C13.034 6.60352 13.4678 7.0373 13.4678 7.57178V17.2542C13.4678 17.7896 13.034 18.2225 12.4995 18.2225Z" fill="#9B9B9B"/>
<path d="M17.3411 13.3813H7.65869C7.12422 13.3813 6.69043 12.9476 6.69043 12.4131C6.69043 11.8786 7.12422 11.4448 7.65869 11.4448H17.3411C17.8766 11.4448 18.3094 11.8786 18.3094 12.4131C18.3094 12.9476 17.8766 13.3813 17.3411 13.3813Z" fill="#9B9B9B"/>
</svg>
