<svg width="25" height="25" viewBox="0 0 25 25" fill="none" xmlns="http://www.w3.org/2000/svg">
<path d="M12.5 24.0317C18.8688 24.0317 24.0317 18.8688 24.0317 12.5C24.0317 6.1312 18.8688 0.968262 12.5 0.968262C6.13119 0.968262 0.968254 6.1312 0.968254 12.5C0.968254 18.8688 6.13119 24.0317 12.5 24.0317Z" fill="#776FFF"/>
<path d="M12.5 25C5.60806 25 0 19.3929 0 12.5C0 5.60806 5.60806 0 12.5 0C19.3929 0 25 5.60806 25 12.5C25 19.3929 19.3929 25 12.5 25ZM12.5 1.93647C6.67505 1.93647 1.93647 6.67505 1.93647 12.5C1.93647 18.325 6.67505 23.0635 12.5 23.0635C18.325 23.0635 23.0635 18.324 23.0635 12.5C23.0635 6.67505 18.325 1.93647 12.5 1.93647Z" fill="#776FFF"/>
<path d="M12.5 18.2225C11.9655 18.2225 11.5318 17.7896 11.5318 17.2542V7.57178C11.5318 7.0373 11.9655 6.60352 12.5 6.60352C13.0345 6.60352 13.4683 7.0373 13.4683 7.57178V17.2542C13.4683 17.7896 13.0345 18.2225 12.5 18.2225Z" fill="white"/>
<path d="M17.3412 13.3813H7.65881C7.12433 13.3813 6.69054 12.9476 6.69054 12.4131C6.69054 11.8786 7.12433 11.4448 7.65881 11.4448H17.3412C17.8767 11.4448 18.3095 11.8786 18.3095 12.4131C18.3095 12.9476 17.8767 13.3813 17.3412 13.3813Z" fill="white"/>
</svg>
