<svg width="21" height="16" viewBox="0 0 21 16" fill="none" xmlns="http://www.w3.org/2000/svg">
<rect width="21" height="16" fill="white"/>
<path d="M14.0001 4H10.0001C9.73084 4 9.48682 4.16199 9.38416 4.41138C9.28088 4.66077 9.33814 4.94739 9.52881 5.13806L11.0575 6.66675L8.19556 9.52869C7.93481 9.78943 7.93481 10.2107 8.19556 10.4713C8.32544 10.6013 8.49622 10.6667 8.66687 10.6667C8.83752 10.6667 9.00818 10.6013 9.13818 10.4713L12.0001 7.60937L13.5288 9.13806C13.6561 9.26538 13.8268 9.33337 14.0001 9.33337C14.0862 9.33337 14.1729 9.31738 14.2555 9.28271C14.5049 9.18005 14.6669 8.93603 14.6669 8.66675V4.66675C14.6669 4.2981 14.3688 4 14.0001 4Z" fill="#4C4C4C"/>
<rect x="3" y="11" width="5" height="5" rx="1" fill="#4C4C4C"/>
<path fill-rule="evenodd" clip-rule="evenodd" d="M5 0H17C18.1027 0 19 0.897339 19 2V14C19 15.1027 18.1027 16 17 16H12V14.6666H17C17.368 14.6666 17.6666 14.368 17.6666 14V2C17.6666 1.63196 17.368 1.33337 17 1.33337H5C4.63196 1.33337 4.33337 1.63196 4.33337 2V7H3V2C3 0.897339 3.89734 0 5 0Z" fill="#4C4C4C"/>
</svg>
