<svg width="18" height="18" viewBox="0 0 18 18" fill="none" xmlns="http://www.w3.org/2000/svg">
<path d="M12.3751 4.5H7.87514C7.57219 4.5 7.29767 4.68224 7.18218 4.9628C7.066 5.24336 7.1304 5.56581 7.34491 5.78032L9.06468 7.50009L5.845 10.7198C5.55167 11.0131 5.55167 11.487 5.845 11.7802C5.99112 11.9265 6.18324 12.0001 6.37523 12.0001C6.56722 12.0001 6.7592 11.9265 6.90546 11.7802L10.1251 8.56055L11.8449 10.2803C11.9881 10.4236 12.1801 10.5 12.3751 10.5C12.472 10.5 12.5695 10.4821 12.6624 10.4431C12.943 10.3276 13.1252 10.053 13.1252 9.75009V5.25009C13.1252 4.83536 12.7899 4.5 12.3751 4.5V4.5Z" fill="#4C4C4C"/>
<rect y="12.375" width="5.625" height="5.625" rx="1" fill="#4C4C4C"/>
<path fill-rule="evenodd" clip-rule="evenodd" d="M2.25 0H15.75C16.9905 0 18 1.00951 18 2.25V15.75C18 16.9905 16.9905 18 15.75 18H10.125V16.5H15.75C16.164 16.5 16.5 16.164 16.5 15.75V2.25C16.5 1.83595 16.164 1.50005 15.75 1.50005H2.25C1.83595 1.50005 1.50005 1.83595 1.50005 2.25V7.875H0V2.25C0 1.00951 1.00951 0 2.25 0Z" fill="#4C4C4C"/>
</svg>
