<svg width="33" height="34" viewBox="0 0 33 34" fill="none" xmlns="http://www.w3.org/2000/svg">
<path d="M2.2275 12.5826C2.2275 13.6374 2.18586 14.621 2.25173 15.5978C2.27218 15.906 2.5266 16.2483 2.76512 16.4823C3.4663 17.169 4.3689 17.5166 5.28361 17.8134C7.44999 18.5184 9.68603 18.7811 11.9546 18.819C12.1545 18.822 12.3544 18.8198 12.5793 18.8198C12.5793 19.2483 12.5793 19.63 12.5793 20.0593C8.97274 19.9442 5.43732 19.6429 2.23432 17.6915C2.23432 18.691 2.1957 19.683 2.25022 20.6689C2.27824 21.1754 2.70379 21.4957 3.09981 21.7759C4.1493 22.518 5.35327 22.8905 6.58298 23.1866C8.25717 23.5902 9.95938 23.7818 11.6805 23.8174C11.9698 23.8234 12.259 23.8181 12.5771 23.8181C12.5771 24.2467 12.5771 24.6276 12.5771 24.9994C11.969 24.9994 11.3655 25.0312 10.7658 24.9933C8.77208 24.8668 6.80333 24.5837 4.89819 23.9514C3.88807 23.6159 2.91884 23.1964 2.08742 22.5119C1.36504 21.9175 0.997794 21.18 1.00234 20.2115C1.02354 15.4411 1.02733 10.6707 1.00007 5.90024C0.994008 4.83863 1.40669 4.05113 2.21842 3.43476C3.35575 2.5723 4.67481 2.10661 6.0393 1.7689C9.08102 1.01623 12.1667 0.847371 15.2826 1.12678C17.2627 1.30397 19.2072 1.64244 21.0654 2.37542C21.89 2.70027 22.6745 3.10159 23.3279 3.71947C23.9284 4.28662 24.226 4.96205 24.2078 5.8071C24.1775 7.25792 24.1707 8.71025 24.2086 10.1603C24.2343 11.1485 23.8307 11.8905 23.0909 12.4819C22.0664 13.3005 20.87 13.7767 19.6199 14.1008C14.9842 15.301 10.3387 15.304 5.6978 14.1304C4.48248 13.8244 3.32849 13.3557 2.2275 12.5826ZM12.624 2.20808C10.107 2.2414 7.65292 2.47765 5.27906 3.26287C4.36587 3.565 3.47539 3.92392 2.74922 4.58269C2.04502 5.22102 2.01018 5.88737 2.75679 6.46815C3.3353 6.91793 3.99483 7.30259 4.67557 7.57367C6.8321 8.43462 9.10676 8.73145 11.4125 8.82156C14.2937 8.93438 17.137 8.70267 19.8993 7.8175C20.7784 7.53581 21.6348 7.19053 22.3504 6.58476C23.2068 5.86011 23.234 5.16499 22.3428 4.50016C21.7651 4.0693 21.107 3.70811 20.4331 3.45066C17.9116 2.48749 15.2652 2.24443 12.624 2.20808ZM2.22372 7.66302C2.22372 8.5429 2.24719 9.35918 2.21539 10.1739C2.19343 10.7335 2.41378 11.1439 2.81813 11.4922C3.52991 12.1063 4.37874 12.4577 5.25483 12.7477C7.25841 13.411 9.33014 13.6775 11.4291 13.7525C14.333 13.8563 17.2021 13.6412 19.9856 12.7394C20.8753 12.4509 21.7348 12.0874 22.445 11.4491C22.81 11.122 23.0145 10.7388 22.994 10.2224C22.9645 9.47957 22.9872 8.73372 22.9849 7.98938C22.9849 7.89852 22.966 7.80765 22.9531 7.6918C20.9988 8.99041 18.8187 9.47806 16.5842 9.7923C13.8938 10.1701 11.1997 10.1641 8.51235 9.77867C6.31947 9.46367 4.17354 8.97678 2.22372 7.66302Z" fill="#4C4C4C" stroke="#4C4C4C" stroke-width="0.5"/>
<path d="M31.3473 10.7302C30.9543 10.7302 30.5833 10.7302 30.188 10.7302C30.188 10.3394 30.188 9.96916 30.188 9.57617C30.5711 9.57617 30.9437 9.57617 31.3473 9.57617C31.3473 9.94342 31.3473 10.3145 31.3473 10.7302Z" fill="#4C4C4C"/>
<path d="M31.7871 11.1621C32.1816 11.1621 32.5526 11.1621 32.9456 11.1621C32.9456 11.5513 32.9456 11.9223 32.9456 12.3244C32.5655 12.3244 32.1869 12.3244 31.7871 12.3244C31.7871 11.9466 31.7871 11.5748 31.7871 11.1621Z" fill="#4C4C4C"/>
<path d="M31.3588 12.7656C31.3588 13.1594 31.3588 13.5289 31.3588 13.9226C30.9696 13.9226 30.5993 13.9226 30.1973 13.9226C30.1973 13.5456 30.1973 13.1669 30.1973 12.7656C30.5721 12.7656 30.9431 12.7656 31.3588 12.7656Z" fill="#4C4C4C"/>
<path d="M29.7457 11.1699C29.7457 11.5743 29.7457 11.9461 29.7457 12.3368C29.3618 12.3368 29.0014 12.3368 28.6084 12.3368C28.6084 11.9574 28.6084 11.5765 28.6084 11.1699C28.9741 11.1699 29.3452 11.1699 29.7457 11.1699Z" fill="#4C4C4C"/>
<path d="M11.7134 30.3716C11.7134 30.0338 11.7013 29.7219 11.7225 29.4114C11.7278 29.3365 11.8391 29.213 11.9088 29.2085C12.2306 29.1865 12.5554 29.1986 12.9015 29.1986C12.9015 29.6091 12.9015 29.9786 12.9015 30.3716C12.5176 30.3716 12.1458 30.3716 11.7134 30.3716Z" fill="#4C4C4C"/>
<path d="M11.2912 31.9777C10.9111 31.9777 10.5408 31.9777 10.1236 31.9777C10.1236 31.6377 10.1114 31.3137 10.1326 30.9926C10.1372 30.9207 10.2553 30.8033 10.3273 30.798C10.6377 30.776 10.9512 30.7889 11.2912 30.7889C11.2912 31.197 11.2912 31.5772 11.2912 31.9777Z" fill="#4C4C4C"/>
<path d="M13.3477 31.9756C13.3477 31.5811 13.3477 31.2093 13.3477 30.8125C13.7263 30.8125 14.0852 30.8125 14.4789 30.8125C14.4789 31.1934 14.4789 31.572 14.4789 31.9756C14.1056 31.9756 13.7376 31.9756 13.3477 31.9756Z" fill="#4C4C4C"/>
<path d="M12.9117 32.4219C12.9117 32.8172 12.9117 33.1678 12.9117 33.5524C12.5263 33.5524 12.1454 33.5524 11.7373 33.5524C11.7373 33.1829 11.7373 32.8134 11.7373 32.4219C12.1318 32.4219 12.5028 32.4219 12.9117 32.4219Z" fill="#4C4C4C"/>
<path d="M19.5553 10.2129C19.9839 10.2144 20.3262 10.5552 20.3247 10.9784C20.3232 11.3949 19.9688 11.7493 19.5538 11.75C19.1328 11.75 18.7913 11.4048 18.7905 10.9777C18.7898 10.5468 19.126 10.2106 19.5553 10.2129Z" fill="#4C4C4C"/>
<path d="M32.9984 30.8296C32.9583 31.5489 32.6145 32.1259 31.908 32.4356C31.2031 32.7446 30.5436 32.6189 29.9575 32.1183C29.9098 32.0775 29.8666 32.0313 29.8219 31.9866C27.3186 29.4863 24.8145 26.986 22.3111 24.4857C21.9144 24.0897 21.9144 23.8012 22.3081 23.4067C22.8192 22.894 23.3304 22.3814 23.843 21.8695C24.1731 21.5401 24.4965 21.5409 24.8274 21.8718C27.358 24.3986 29.8863 26.9269 32.4184 29.4522C32.7902 29.8225 32.9856 30.2609 32.9984 30.8296ZM25.1878 25.6987C25.2332 25.7298 25.2983 25.7608 25.3468 25.8085C27.124 27.5811 28.9004 29.356 30.6761 31.1294C30.7162 31.1696 30.7541 31.212 30.7987 31.2468C30.9562 31.3702 31.1334 31.4179 31.3303 31.3642C31.8066 31.2347 31.9361 30.6834 31.5718 30.3192C29.7614 28.508 27.9493 26.699 26.1373 24.8893C26.1086 24.8605 26.0737 24.837 26.0609 24.8272C25.7746 25.1134 25.499 25.3883 25.1878 25.6987ZM25.1484 23.9511C24.8713 23.6732 24.5972 23.3983 24.3427 23.1431C24.0762 23.4097 23.7983 23.6868 23.5484 23.9367C23.8104 24.201 24.0861 24.4789 24.3488 24.7439C24.61 24.4857 24.8857 24.2123 25.1484 23.9511Z" fill="#4C4C4C"/>
<path d="M32.9945 18.7036C32.9892 18.9641 32.8302 19.183 32.5682 19.2647C32.3403 19.3359 32.1071 19.3882 31.8776 19.4548C30.9773 19.7145 30.3943 20.2945 30.133 21.1949C30.0717 21.4061 30.0225 21.6204 29.9634 21.8324C29.8778 22.1376 29.6545 22.3186 29.369 22.3193C29.0835 22.3201 28.8586 22.1391 28.7731 21.8347C28.7049 21.5932 28.6504 21.3471 28.5747 21.1078C28.3142 20.2877 27.7705 19.7448 26.9505 19.4843C26.7173 19.4101 26.4772 19.3564 26.2417 19.2912C25.9245 19.2042 25.7397 18.98 25.7412 18.6885C25.7427 18.3962 25.9267 18.1789 26.2485 18.0911C26.4848 18.0267 26.7241 17.9722 26.9573 17.8972C27.7698 17.6375 28.3097 17.0984 28.5717 16.2874C28.6489 16.0489 28.7034 15.8028 28.7701 15.5605C28.8579 15.2432 29.082 15.0615 29.3758 15.0645C29.6598 15.0675 29.8801 15.2508 29.9657 15.5574C30.0293 15.7876 30.0838 16.0201 30.1535 16.248C30.4124 17.0931 30.9675 17.6473 31.8125 17.9063C32.0586 17.982 32.3108 18.0381 32.5569 18.113C32.8347 18.1978 33.0006 18.428 32.9945 18.7036ZM30.6055 18.69C30.0823 18.3705 29.6893 17.9638 29.3667 17.4565C29.0472 17.9752 28.6421 18.3697 28.134 18.693C28.6557 19.0096 29.0472 19.4177 29.3698 19.922C29.6908 19.4124 30.0846 19.0126 30.6055 18.69Z" fill="#4C4C4C"/>
<path d="M19.0865 15.0625C19.3546 15.0617 19.5802 15.223 19.6635 15.4926C19.7324 15.7145 19.7854 15.9409 19.8483 16.165C20.108 17.082 20.6963 17.6711 21.6133 17.9301C21.8185 17.9884 22.0268 18.0368 22.2327 18.0951C22.5371 18.1807 22.7166 18.4056 22.7158 18.6918C22.7151 18.978 22.5348 19.2007 22.2289 19.2862C21.9927 19.3521 21.7534 19.4066 21.5202 19.4793C20.6835 19.7398 20.1345 20.2918 19.8763 21.1293C19.8059 21.3572 19.7513 21.5904 19.6877 21.8198C19.6007 22.1356 19.375 22.3204 19.082 22.3173C18.7965 22.3143 18.5777 22.1333 18.4913 21.8252C18.427 21.595 18.3725 21.3625 18.3028 21.1346C18.0446 20.2888 17.4903 19.7345 16.6445 19.4763C16.4166 19.4066 16.1834 19.3521 15.9539 19.2877C15.6458 19.2022 15.4648 18.9826 15.461 18.6979C15.4572 18.4056 15.6427 18.1784 15.9577 18.0921C16.1576 18.0368 16.359 17.9876 16.5589 17.9323C17.4843 17.6726 18.0756 17.0797 18.3323 16.1529C18.3929 15.9348 18.4467 15.7152 18.5125 15.4987C18.5966 15.2268 18.8185 15.0633 19.0865 15.0625ZM17.853 18.6918C18.3793 19.0106 18.7692 19.4195 19.0911 19.9223C19.4129 19.4036 19.8165 19.0076 20.3238 18.6895C19.8021 18.367 19.4083 17.9619 19.088 17.4568C18.767 17.9725 18.3687 18.367 17.853 18.6918Z" fill="#4C4C4C"/>
<path d="M22.7172 28.9772C22.7134 29.2452 22.5506 29.4633 22.2772 29.5474C22.0311 29.6223 21.779 29.6791 21.5329 29.7548C20.6878 30.0138 20.1343 30.5696 19.8754 31.4146C19.8095 31.6305 19.755 31.8508 19.6959 32.0689C19.6035 32.4089 19.393 32.5944 19.0962 32.5959C18.7971 32.5982 18.579 32.4127 18.4882 32.0787C18.4253 31.8485 18.3708 31.6153 18.2989 31.3881C18.0399 30.5673 17.4962 30.0244 16.6769 29.7624C16.4437 29.6882 16.2044 29.6344 15.9682 29.5693C15.6479 29.4807 15.4646 29.2611 15.4639 28.9689C15.4639 28.6773 15.6486 28.4562 15.9674 28.3684C16.2037 28.3033 16.4429 28.2495 16.6762 28.1753C17.4955 27.9141 18.0391 27.3711 18.2981 26.5496C18.3715 26.3163 18.4268 26.0771 18.4919 25.8408C18.5805 25.522 18.8024 25.3395 19.0954 25.3418C19.3877 25.3441 19.6035 25.5273 19.6921 25.8499C19.7565 26.0862 19.811 26.3254 19.886 26.5587C20.1464 27.3704 20.6848 27.911 21.4965 28.173C21.7532 28.2556 22.0183 28.3124 22.2772 28.3903C22.5551 28.4736 22.721 28.7016 22.7172 28.9772ZM19.0894 27.7331C18.7676 28.2556 18.3617 28.6501 17.8544 28.9711C18.3791 29.2884 18.7691 29.6988 19.0932 30.2016C19.4112 29.6799 19.8193 29.2884 20.3214 28.9658C19.808 28.6463 19.412 28.248 19.0894 27.7331Z" fill="#4C4C4C"/>
</svg>
