<svg width="20" height="20" viewBox="0 0 20 20" fill="none" xmlns="http://www.w3.org/2000/svg">
<path d="M10 20C4.48578 20 0 15.5142 0 10C0 4.48578 4.48578 0 10 0C15.5142 0 20 4.48578 20 10C20 15.5142 15.5142 20 10 20ZM10 1.25C5.17502 1.25 1.25 5.17502 1.25 10C1.25 14.825 5.17502 18.75 10 18.75C14.825 18.75 18.75 14.825 18.75 10C18.75 5.17502 14.825 1.25 10 1.25Z" fill="#7D7D7D"/>
<path d="M6.90707 13.7183C6.74701 13.7183 6.58694 13.6576 6.46533 13.5351C6.22119 13.2909 6.22119 12.8951 6.46533 12.651L12.6528 6.46338C12.8971 6.21924 13.2929 6.21924 13.537 6.46338C13.7812 6.70752 13.7812 7.10333 13.537 7.34763L7.34943 13.5351C7.22614 13.6576 7.06622 13.7183 6.90707 13.7183Z" fill="#7D7D7D"/>
<path d="M13.0935 13.718C12.9336 13.718 12.7735 13.6573 12.6519 13.5348L6.46447 7.34808C6.22018 7.10394 6.22018 6.70812 6.46447 6.46398C6.70861 6.21969 7.10442 6.21969 7.34856 6.46398L13.536 12.6514C13.7803 12.8956 13.7803 13.2914 13.536 13.5355C13.4136 13.6573 13.2536 13.718 13.0935 13.718Z" fill="#7D7D7D"/>
</svg>
