<svg width="18" height="18" viewBox="0 0 18 18" fill="none" xmlns="http://www.w3.org/2000/svg">
<g clip-path="url(#clip0)">
<path d="M13.1235 1.4209H9.96582V0.0174885H13.1235V1.4209Z" fill="#7D7D7D"/>
<path d="M16.5611 2.86084V2.15915C16.5611 1.75204 16.2299 1.42087 15.8228 1.42087H15.1211V0.0174522H15.8228C17.0038 0.0174522 17.9645 0.978209 17.9645 2.15915V2.86084H16.5611Z" fill="#7D7D7D"/>
<path d="M8.00238 17.9824H4.84473V16.579H8.00238V17.9824Z" fill="#7D7D7D"/>
<path d="M13.1235 17.9824H9.96582V16.579H13.1235V17.9824Z" fill="#7D7D7D"/>
<path d="M2.14267 17.9824C0.961697 17.9824 0.000976562 17.0217 0.000976562 15.8407V15.139H1.40439V15.8407C1.40439 16.2478 1.7356 16.579 2.14267 16.579H2.84436V17.9824H2.14267Z" fill="#7D7D7D"/>
<path d="M15.8228 17.9824H15.1211V16.579H15.8228C16.2299 16.579 16.5611 16.2478 16.5611 15.8407V15.139H17.9645V15.8407C17.9645 17.0217 17.0038 17.9824 15.8228 17.9824Z" fill="#7D7D7D"/>
<path d="M1.40341 12.9639H0V9.80622H1.40341V12.9639Z" fill="#7D7D7D"/>
<path d="M18.0001 7.84277H16.5967V4.68513H18.0001V7.84277Z" fill="#7D7D7D"/>
<path d="M18.0001 12.9639H16.5967V9.80622H18.0001V12.9639Z" fill="#7D7D7D"/>
<path d="M9.29849 14.3672V12.9638H12.04L7.41263 8.12906C7.09312 8.32481 6.71765 8.43784 6.31627 8.43784H2.10607C0.945314 8.43784 0.000976562 7.4935 0.000976562 6.33274V2.12255C0.000976562 0.961788 0.945314 0.0174503 2.10607 0.0174503H6.31627C7.47703 0.0174503 8.42137 0.961788 8.42137 2.12255V6.33274C8.42137 6.57677 8.37915 6.81098 8.30247 7.02912L12.9824 11.9188V9.27991H14.3858V14.3672H9.29849ZM7.01796 2.12258C7.01796 1.73565 6.70317 1.4209 6.31627 1.4209H2.10607C1.71914 1.4209 1.40439 1.73569 1.40439 2.12258V6.33278C1.40439 6.71971 1.71918 7.03447 2.10607 7.03447H6.31627C6.7032 7.03447 7.01796 6.71968 7.01796 6.33278V2.12258Z" fill="#7D7D7D"/>
</g>
<defs>
<clipPath id="clip0">
<rect width="18" height="18" fill="white" transform="matrix(1 0 0 -1 0 18)"/>
</clipPath>
</defs>
</svg>
