<svg width="20" height="21" viewBox="0 0 20 21" fill="none" xmlns="http://www.w3.org/2000/svg">
<path d="M13.2987 10.1089L9.14578 7.08999C8.99337 6.97952 8.79105 6.96288 8.624 7.04873C8.45562 7.13392 8.35046 7.30696 8.35046 7.49397V13.5297C8.35046 13.7187 8.45562 13.8911 8.624 13.9763C8.69521 14.0122 8.77308 14.0302 8.85161 14.0302C8.9541 14.0302 9.05793 13.9976 9.14578 13.933L13.2987 10.9168C13.4298 10.8203 13.5064 10.6712 13.5064 10.5128C13.507 10.3518 13.4285 10.2034 13.2987 10.1089Z" fill="#4C4C4C"/>
<path d="M10.0003 0.501953C4.47639 0.501953 0 4.97834 0 10.5023C0 16.0242 4.47639 20.4993 10.0003 20.4993C15.5229 20.4993 20 16.0236 20 10.5023C20.0007 4.97834 15.5229 0.501953 10.0003 0.501953ZM10.0003 18.8308C5.40015 18.8308 1.67049 15.1031 1.67049 10.5023C1.67049 5.90344 5.40015 2.17112 10.0003 2.17112C14.5998 2.17112 18.3288 5.90277 18.3288 10.5023C18.3295 15.1031 14.5998 18.8308 10.0003 18.8308Z" fill="#4C4C4C"/>
</svg>
