<svg width="162" height="160" viewBox="0 0 162 160" fill="none" xmlns="http://www.w3.org/2000/svg">
<circle r="80" transform="matrix(1 0 0 -1 82 80)" fill="#E0E0E0"/>
<path d="M4.86899 18.3034L5.88761 21.1677C5.93125 21.2904 6.01751 21.3875 6.12651 21.4365L8.67133 22.583C9.03093 22.745 9.03093 23.3178 8.67133 23.4798L6.12651 24.6263C6.01751 24.6755 5.93125 24.7726 5.88761 24.8953L4.86899 27.7596C4.72505 28.1643 4.21615 28.1643 4.07221 27.7596L3.05358 24.8953C3.00995 24.7726 2.92368 24.6755 2.81468 24.6263L0.269703 23.4801C-0.089901 23.3181 -0.089901 22.7454 0.269703 22.5834L2.81468 21.4367C2.92368 21.3875 3.00995 21.2904 3.05358 21.1679L4.07221 18.3036C4.21615 17.8988 4.72505 17.8988 4.86899 18.3034Z" fill="#474343"/>
<path d="M46.7494 35.7629C56.1455 35.7629 63.7626 28.1458 63.7626 18.7498C63.7626 9.35367 56.1455 1.73663 46.7494 1.73663C37.3534 1.73663 29.7363 9.35367 29.7363 18.7498C29.7363 28.1458 37.3534 35.7629 46.7494 35.7629Z" fill="#F4858A"/>
<path d="M46.7496 37.4986C36.411 37.4986 28 29.0876 28 18.7494C28 8.41097 36.4111 0 46.7496 0C56.1956 0 64.1945 7.05898 65.3555 16.4201C65.4736 17.3717 64.7978 18.239 63.846 18.357C62.8951 18.4752 62.0271 17.799 61.9092 16.8475C60.9635 9.22275 54.4462 3.47305 46.7496 3.47305C38.3259 3.47305 31.4729 10.3261 31.4729 18.7496C31.4729 27.173 38.3259 34.0259 46.7496 34.0259C50.8404 34.0259 54.6835 32.4299 57.5714 29.532C58.2481 28.8527 59.3476 28.8508 60.0271 29.5276C60.7064 30.2045 60.7083 31.3042 60.0312 31.9835C56.4872 35.5399 51.7703 37.4986 46.7496 37.4986Z" fill="black"/>
<path d="M39.8282 16.7674C38.8692 16.7674 38.0918 15.9898 38.0918 15.0309V12.6675C38.0918 11.7084 38.8692 10.931 39.8282 10.931C40.7873 10.931 41.5647 11.7084 41.5647 12.6675V15.0309C41.5647 15.99 40.7873 16.7674 39.8282 16.7674Z" fill="black"/>
<path d="M53.671 16.7675C52.7121 16.7675 51.9346 15.9899 51.9346 15.0311V12.6676C51.9346 11.7086 52.7121 10.9312 53.671 10.9312C54.6299 10.9312 55.4075 11.7086 55.4075 12.6676V15.0311C55.4075 15.9901 54.63 16.7675 53.671 16.7675Z" fill="black"/>
<path d="M52.5538 26.1786C51.991 26.1786 51.439 25.9054 51.1048 25.4011C50.2126 24.0549 48.7178 23.2511 47.1061 23.2511H46.3938C44.7822 23.2511 43.2873 24.0549 42.3951 25.4013C41.8653 26.2008 40.7879 26.419 39.9884 25.8896C39.189 25.3598 38.9703 24.2822 39.5001 23.4829C41.0374 21.1634 43.6144 19.7784 46.3938 19.7784H47.1061C49.8856 19.7784 52.4626 21.1634 53.9997 23.4831C54.5295 24.2825 54.3109 25.36 53.5113 25.8896C53.2163 26.085 52.8832 26.1786 52.5538 26.1786Z" fill="black"/>
<path d="M112.564 22.4091L113.937 26.2707C113.996 26.436 114.112 26.5671 114.259 26.6331L117.69 28.1788C118.174 28.3972 118.174 29.1694 117.69 29.3879L114.259 30.9336C114.112 30.9998 113.996 31.1307 113.937 31.2962L112.564 35.1578C112.37 35.7033 111.684 35.7033 111.49 35.1578L110.116 31.2962C110.057 31.1309 109.941 30.9998 109.794 30.9336L106.363 29.3879C105.879 29.1695 105.879 28.3973 106.363 28.1788L109.794 26.6331C109.941 26.5669 110.057 26.436 110.116 26.2707L111.49 22.4091C111.684 21.8636 112.37 21.8636 112.564 22.4091Z" fill="#656565"/>
<g clip-path="url(#clip0)">
<path d="M118.958 117.06C118.175 117.863 117.366 118.641 116.532 119.392C115.782 120.226 115.003 121.034 114.2 121.818L133.566 141.184C134.756 142.374 136.315 142.969 137.875 142.969C138.524 142.969 139.174 142.864 139.797 142.657C140.5 140.538 140.01 138.111 138.324 136.426L118.958 117.06Z" fill="#4DBBEB"/>
<path d="M113.951 121.568C114.892 120.827 115.804 120.05 116.691 119.246C117.495 118.359 118.272 117.447 119.013 116.505L110.644 108.137C109.823 109.004 108.963 109.832 108.066 110.621C107.278 111.518 106.449 112.378 105.582 113.199L113.951 121.568Z" fill="#FFF5CD"/>
<path d="M87.9062 43.3939C69.1148 45.9774 54.5938 62.1353 54.5938 81.625C54.5938 101.117 69.118 117.277 87.9118 119.857C94.3261 118.974 100.244 116.509 105.255 112.87C108.56 110.471 111.471 107.56 113.87 104.255C118.491 97.8932 121.219 90.0706 121.219 81.625C121.219 62.1353 106.698 45.9774 87.9062 43.3939Z" fill="#C1EE92"/>
<path d="M82.625 51.1562C99.4257 51.1562 113.094 64.8243 113.094 81.625C113.094 98.4257 99.4257 112.094 82.625 112.094C65.8243 112.094 52.1562 98.4257 52.1562 81.625C52.1562 64.8243 65.8243 51.1562 82.625 51.1562Z" fill="white"/>
<path d="M143.62 131.13L116.506 104.017C120.924 97.364 123.25 89.6595 123.25 81.625C123.25 59.2241 105.026 41 82.625 41C60.2241 41 42 59.2241 42 81.625C42 104.026 60.2241 122.25 82.625 122.25C90.6595 122.25 98.364 119.924 105.017 115.506L112.511 123.001C112.513 123.002 112.514 123.003 112.515 123.005L132.13 142.62C133.666 144.155 135.706 145 137.875 145C140.044 145 142.084 144.155 143.619 142.62C145.154 141.086 146 139.046 146 136.875C146 134.704 145.154 132.664 143.62 131.13ZM108.323 113.067C110.426 111.347 112.348 109.425 114.067 107.323L119.83 113.086C118.077 115.155 116.155 117.077 114.086 118.83L108.323 113.067ZM46.0625 81.625C46.0625 61.4641 62.4641 45.0625 82.625 45.0625C102.786 45.0625 119.188 61.4641 119.188 81.625C119.188 89.3795 116.78 96.7919 112.226 103.062C109.948 106.201 107.201 108.948 104.062 111.226C97.7919 115.779 90.3795 118.188 82.625 118.188C62.4641 118.188 46.0625 101.786 46.0625 81.625ZM140.747 139.747C139.979 140.515 138.96 140.938 137.875 140.938C136.79 140.938 135.771 140.515 135.003 139.747L116.967 121.71C119.023 119.945 120.945 118.024 122.71 115.967L140.747 134.003C141.515 134.771 141.938 135.79 141.938 136.875C141.938 137.96 141.515 138.979 140.747 139.747Z" fill="black"/>
<path d="M115.125 81.625C115.125 63.704 100.546 49.125 82.625 49.125C64.704 49.125 50.125 63.704 50.125 81.625C50.125 99.546 64.704 114.125 82.625 114.125C100.546 114.125 115.125 99.546 115.125 81.625ZM82.625 110.062C66.9447 110.062 54.1875 97.3053 54.1875 81.625C54.1875 65.9447 66.9447 53.1875 82.625 53.1875C98.3053 53.1875 111.062 65.9447 111.062 81.625C111.062 97.3053 98.3053 110.062 82.625 110.062Z" fill="black"/>
<path d="M104.221 75.5305C105.268 75.1282 105.791 73.9531 105.388 72.9057C103.639 68.3528 100.594 64.4609 96.5803 61.6497C92.4726 58.7711 87.6468 57.25 82.625 57.25C81.5031 57.25 80.5938 58.1593 80.5938 59.2812C80.5938 60.4032 81.5031 61.3125 82.625 61.3125C90.973 61.3125 98.5973 66.5565 101.596 74.3625C101.907 75.1702 102.676 75.6661 103.493 75.6661C103.735 75.6661 103.981 75.6225 104.221 75.5305Z" fill="black"/>
<path d="M104.969 79.5938C103.848 79.5938 102.938 80.5038 102.938 81.625C102.938 82.7462 103.848 83.6562 104.969 83.6562C106.09 83.6562 107 82.7462 107 81.625C107 80.5038 106.09 79.5938 104.969 79.5938Z" fill="black"/>
<path d="M84.8579 82.5L90.3038 87.9459C91.2313 88.8734 91.2313 90.3767 90.3038 91.3042C89.3764 92.2316 87.873 92.2316 86.9456 91.3042L81.4997 85.8583L76.0538 91.3042C75.1276 92.2316 73.6218 92.2316 72.6956 91.3042C71.7681 90.3767 71.7681 88.8734 72.6956 87.9459L78.1414 82.5L72.6956 77.0542C71.7681 76.1267 71.7681 74.6234 72.6956 73.6959C73.1587 73.2316 73.7667 73 74.3747 73C74.9827 73 75.5907 73.2316 76.0538 73.6959L81.4997 79.1418L86.9456 73.6959C87.4099 73.2316 88.0167 73 88.6247 73C89.2327 73 89.8395 73.2316 90.3038 73.6959C91.2313 74.6234 91.2313 76.1267 90.3038 77.0542L84.8579 82.5Z" fill="black"/>
<path d="M55.869 133.303L56.8876 136.168C56.9312 136.29 57.0175 136.388 57.1265 136.437L59.6713 137.583C60.0309 137.745 60.0309 138.318 59.6713 138.48L57.1265 139.626C57.0175 139.675 56.9312 139.773 56.8876 139.895L55.869 142.76C55.725 143.164 55.2162 143.164 55.0722 142.76L54.0536 139.895C54.0099 139.773 53.9237 139.675 53.8147 139.626L51.2697 138.48C50.9101 138.318 50.9101 137.745 51.2697 137.583L53.8147 136.437C53.9237 136.388 54.0099 136.29 54.0536 136.168L55.0722 133.304C55.2162 132.899 55.725 132.899 55.869 133.303Z" fill="#474343"/>
</g>
<path d="M22.1787 70.462H31.5373V79.8205H22.1787V70.462Z" fill="#91DEF5"/>
<path d="M12.8203 89.179H22.1789V98.5376H12.8203V89.179Z" fill="#CFF1FB"/>
<path d="M3.46289 70.462H12.8209V79.8205H3.46289V70.462Z" fill="#F6838D"/>
<path d="M22.1787 107.896H31.5373V117.255H22.1787V107.896Z" fill="#F6838D"/>
<path d="M3.46289 107.896H12.8209V117.255H3.46289V107.896Z" fill="#91DEF5"/>
<path d="M31.5373 81.2831H22.1788C21.3715 81.2831 20.7168 80.6283 20.7168 79.8205V70.462C20.7168 69.6547 21.3715 69 22.1788 69H31.5373C32.3451 69 32.9998 69.6547 32.9998 70.462V79.8205C32.9998 80.6283 32.3451 81.2831 31.5373 81.2831ZM23.6413 78.3585H30.0753V71.9245H23.6413V78.3585Z" fill="black"/>
<path d="M22.1799 100H12.8213C12.0141 100 11.3594 99.3456 11.3594 98.5377V89.1792C11.3594 88.3719 12.0141 87.7172 12.8213 87.7172H22.1799C22.9877 87.7172 23.6424 88.3719 23.6424 89.1792V98.5377C23.6424 99.345 22.9877 100 22.1799 100ZM14.2839 97.0758H20.7179V90.6417H14.2839V97.0758Z" fill="black"/>
<path d="M12.8205 81.2831H3.46254C2.65472 81.2831 2 80.6283 2 79.8205V70.462C2 69.6547 2.65472 69 3.46254 69H12.8205C13.6283 69 14.2831 69.6547 14.2831 70.462V79.8205C14.2831 80.6283 13.6283 81.2831 12.8205 81.2831ZM4.92451 78.3585H11.3585V71.9245H4.92451V78.3585Z" fill="black"/>
<path d="M31.5373 118.717H22.1788C21.3715 118.717 20.7168 118.062 20.7168 117.255V107.896C20.7168 107.089 21.3715 106.434 22.1788 106.434H31.5373C32.3451 106.434 32.9998 107.089 32.9998 107.896V117.255C32.9998 118.062 32.3451 118.717 31.5373 118.717ZM23.6413 115.792H30.0753V109.358H23.6413V115.792Z" fill="black"/>
<path d="M12.8205 118.717H3.46254C2.65472 118.717 2 118.062 2 117.255V107.896C2 107.089 2.65472 106.434 3.46254 106.434H12.8205C13.6283 106.434 14.2831 107.089 14.2831 107.896V117.255C14.2831 118.062 13.6283 118.717 12.8205 118.717ZM4.92451 115.792H11.3585V109.358H4.92451V115.792Z" fill="black"/>
<path d="M149.575 41.6522H157.726V49.8032H149.575V41.6522Z" fill="#91DEF5"/>
<path d="M141.424 57.954H149.575V66.105H141.424V57.954Z" fill="#CFF1FB"/>
<path d="M133.273 41.6522H141.424V49.8032H133.273V41.6522Z" fill="#F6838D"/>
<path d="M149.575 74.256H157.726V82.4069H149.575V74.256Z" fill="#F6838D"/>
<path d="M133.273 74.256H141.424V82.4069H133.273V74.256Z" fill="#91DEF5"/>
<path d="M157.726 51.077H149.575C148.872 51.077 148.302 50.5067 148.302 49.8032V41.6522C148.302 40.9491 148.872 40.3789 149.575 40.3789H157.726C158.43 40.3789 159 40.9491 159 41.6522V49.8032C159 50.5067 158.43 51.077 157.726 51.077ZM150.849 48.5298H156.453V42.926H150.849V48.5298Z" fill="black"/>
<path d="M149.576 67.3789H141.425C140.722 67.3789 140.151 66.8087 140.151 66.1051V57.9542C140.151 57.2511 140.722 56.6809 141.425 56.6809H149.576C150.279 56.6809 150.849 57.2511 150.849 57.9542V66.1051C150.849 66.8082 150.279 67.3789 149.576 67.3789ZM142.699 64.8318H148.302V59.228H142.699V64.8318Z" fill="black"/>
<path d="M141.424 51.077H133.274C132.57 51.077 132 50.5067 132 49.8032V41.6522C132 40.9491 132.57 40.3789 133.274 40.3789H141.424C142.128 40.3789 142.698 40.9491 142.698 41.6522V49.8032C142.698 50.5067 142.128 51.077 141.424 51.077ZM134.547 48.5298H140.151V42.926H134.547V48.5298Z" fill="black"/>
<path d="M157.726 83.6801H149.575C148.872 83.6801 148.302 83.1099 148.302 82.4068V74.2559C148.302 73.5528 148.872 72.9821 149.575 72.9821H157.726C158.43 72.9821 159 73.5528 159 74.2559V82.4068C159 83.1099 158.43 83.6801 157.726 83.6801ZM150.849 81.133H156.453V75.5292H150.849V81.133Z" fill="black"/>
<path d="M141.424 83.6801H133.274C132.57 83.6801 132 83.1099 132 82.4068V74.2559C132 73.5528 132.57 72.9821 133.274 72.9821H141.424C142.128 72.9821 142.698 73.5528 142.698 74.2559V82.4068C142.698 83.1099 142.128 83.6801 141.424 83.6801ZM134.547 81.133H140.151V75.5292H134.547V81.133Z" fill="black"/>
<defs>
<clipPath id="clip0">
<rect width="104" height="104" fill="white" transform="translate(42 41)"/>
</clipPath>
</defs>
</svg>
