<svg width="42" height="42" viewBox="0 0 42 42" fill="none" xmlns="http://www.w3.org/2000/svg">
<g clip-path="url(#clip0)">
<path d="M24.3506 6L24.3506 10.1156L1.71499 10.1156L1.71499 6L24.3506 6Z" fill="#0071BC"/>
<path d="M18 6L18 10L2 10L2 6L18 6Z" fill="#21C393"/>
<path d="M9 6L9 10L2 10L2 6L9 6Z" fill="#FF0000"/>
<path d="M24.3506 14L24.3506 18.1156L1.71499 18.1156L1.71499 14L24.3506 14Z" fill="#0071BC"/>
<path d="M31.8958 22L31.8958 26.1156L1.71494 26.1156L1.71494 22L31.8958 22Z" fill="#0071BC"/>
<path d="M40.127 29L40.127 33.1156L1.71502 33.1156L1.71502 29L40.127 29Z" fill="#0071BC"/>
<path d="M16.8047 14L16.8047 18.1156L1.71433 18.1156L1.71433 14L16.8047 14Z" fill="#21C393"/>
<path d="M6 14L6 18L2 18L2 14L6 14Z" fill="#FF0000"/>
<path d="M18 22L18 26L2 26L2 22L18 22Z" fill="#21C393"/>
<path d="M6 22L6 26L2 26L2 22L6 22Z" fill="#FF0000"/>
<path d="M28 29L28 33L2 33L2 29L28 29Z" fill="#21C393"/>
<path d="M10 29L10 33L2 33L2 29L10 29Z" fill="#FF0000"/>
<path d="M40.4697 39.7837H2.05773C1.67913 39.7837 1.37183 39.4764 1.37183 39.0978V0.6859C1.37183 0.307301 1.67913 0 2.05773 0C2.43633 0 2.74363 0.307301 2.74363 0.6859V38.4118H40.4696C40.8482 38.4118 41.1555 38.7191 41.1555 39.0977C41.1555 39.4763 40.8483 39.7837 40.4697 39.7837Z" fill="#CDCDD6"/>
<path d="M2.05778 17.1472H0.6859C0.307301 17.1472 0 16.8399 0 16.4613C0 16.0827 0.307301 15.7754 0.6859 15.7754H2.05778C2.43638 15.7754 2.74368 16.0827 2.74368 16.4613C2.74368 16.8399 2.43638 17.1472 2.05778 17.1472Z" fill="#29485A"/>
<path d="M2.05778 9.60227H0.6859C0.307301 9.60227 0 9.29497 0 8.91637C0 8.53777 0.307301 8.23047 0.6859 8.23047H2.05778C2.43638 8.23047 2.74368 8.53777 2.74368 8.91637C2.74368 9.29497 2.43638 9.60227 2.05778 9.60227Z" fill="#29485A"/>
<path d="M2.05778 1.37188H0.6859C0.307301 1.37188 0 1.06458 0 0.6859C0 0.30722 0.307301 0 0.6859 0H2.05778C2.43638 0 2.74368 0.307301 2.74368 0.6859C2.74368 1.0645 2.43638 1.37188 2.05778 1.37188Z" fill="#29485A"/>
<path d="M2.05778 39.7839H0.6859C0.307301 39.7839 0 39.4766 0 39.098C0 38.7194 0.307301 38.4121 0.6859 38.4121H2.05778C2.43638 38.4121 2.74368 38.7194 2.74368 39.098C2.74368 39.4766 2.43638 39.7839 2.05778 39.7839Z" fill="#29485A"/>
<path d="M2.05778 32.2391H0.6859C0.307301 32.2391 0 31.9318 0 31.5532C0 31.1746 0.307301 30.8672 0.6859 30.8672H2.05778C2.43638 30.8672 2.74368 31.1745 2.74368 31.5531C2.74368 31.9317 2.43638 32.2391 2.05778 32.2391Z" fill="#29485A"/>
<path d="M2.05778 24.6941H0.6859C0.307301 24.6941 0 24.3868 0 24.0082C0 23.6296 0.307301 23.3223 0.6859 23.3223H2.05778C2.43638 23.3223 2.74368 23.6296 2.74368 24.0082C2.74368 24.3868 2.43638 24.6941 2.05778 24.6941Z" fill="#29485A"/>
<path d="M17.1483 41.1558C16.7697 41.1558 16.4624 40.8485 16.4624 40.4699V39.098C16.4624 38.7194 16.7697 38.4121 17.1483 38.4121C17.5269 38.4121 17.8342 38.7194 17.8342 39.098V40.4699C17.8343 40.8485 17.527 41.1558 17.1483 41.1558Z" fill="#29485A"/>
<path d="M9.74034 41.1558C9.36174 41.1558 9.05444 40.8485 9.05444 40.4699V39.098C9.05444 38.7194 9.36174 38.4121 9.74034 38.4121C10.1189 38.4121 10.4262 38.7194 10.4262 39.098V40.4699C10.4263 40.8485 10.119 41.1558 9.74034 41.1558Z" fill="#29485A"/>
<path d="M2.05773 41.1558C1.67913 41.1558 1.37183 40.8485 1.37183 40.4699V39.098C1.37183 38.7194 1.67913 38.4121 2.05773 38.4121C2.43633 38.4121 2.74363 38.7194 2.74363 39.098V40.4699C2.74363 40.8485 2.43633 41.1558 2.05773 41.1558Z" fill="#29485A"/>
<path d="M40.4698 41.1558C40.0912 41.1558 39.7839 40.8485 39.7839 40.4699V39.098C39.7839 38.7194 40.0912 38.4121 40.4698 38.4121C40.8484 38.4121 41.1557 38.7194 41.1557 39.098V40.4699C41.1557 40.8485 40.8484 41.1558 40.4698 41.1558Z" fill="#29485A"/>
<path d="M32.2384 41.1558C31.8598 41.1558 31.5525 40.8485 31.5525 40.4699V39.098C31.5525 38.7194 31.8598 38.4121 32.2384 38.4121C32.617 38.4121 32.9243 38.7194 32.9243 39.098V40.4699C32.9243 40.8485 32.617 41.1558 32.2384 41.1558Z" fill="#29485A"/>
<path d="M24.6935 41.1558C24.3149 41.1558 24.0076 40.8485 24.0076 40.4699V39.098C24.0076 38.7194 24.3149 38.4121 24.6935 38.4121C25.0721 38.4121 25.3794 38.7194 25.3794 39.098V40.4699C25.3794 40.8485 25.0721 41.1558 24.6935 41.1558Z" fill="#29485A"/>
</g>
<defs>
<clipPath id="clip0">
<rect width="41.1556" height="41.1556" fill="white"/>
</clipPath>
</defs>
</svg>
