<svg width="42" height="42" viewBox="0 0 42 42" fill="none" xmlns="http://www.w3.org/2000/svg">
<path d="M4 27H14.9748V28.3719H4V27Z" fill="#29485A"/>
<path d="M18 27H23V28.3719H18V27Z" fill="#776FFF"/>
<path d="M26 27H31V28.3719H26V27Z" fill="#F65E5F"/>
<path d="M33 27H38V28.3719H33V27Z" fill="#21C393"/>
<path d="M4 20H14.9748V21.3719H4V20Z" fill="#29485A"/>
<path d="M18 20H23V21.3719H18V20Z" fill="#776FFF"/>
<path d="M26 20H31V21.3719H26V20Z" fill="#F65E5F"/>
<path d="M33 20H38V21.3719H33V20Z" fill="#21C393"/>
<path d="M4 13H14.9748V14.3719H4V13Z" fill="#29485A"/>
<path d="M18 13H23V14.3719H18V13Z" fill="#776FFF"/>
<path d="M26 13H31V14.3719H26V13Z" fill="#F65E5F"/>
<path d="M33 13H38V14.3719H33V13Z" fill="#21C393"/>
<path d="M4 6H14.9748V7.37188H4V6Z" fill="#4C4C4C"/>
<path d="M18 6H23V7.37188H18V6Z" fill="#4C4C4C"/>
<path d="M26 6H31V7.37188H26V6Z" fill="#4C4C4C"/>
<path d="M33 6H38V7.37188H33V6Z" fill="#4C4C4C"/>
<path d="M4 34H14.9748V35.3719H4V34Z" fill="#29485A"/>
<path d="M18 34H23V35.3719H18V34Z" fill="#776FFF"/>
<path d="M26 34H31V35.3719H26V34Z" fill="#F65E5F"/>
<path d="M33 34H38V35.3719H33V34Z" fill="#21C393"/>
</svg>
