<svg width="25" height="30" viewBox="0 0 25 30" fill="none" xmlns="http://www.w3.org/2000/svg">
<path d="M1.66437 21.4411C4.44857 21.4411 7.13843 21.4411 9.87192 21.4411C9.87192 21.98 9.87192 22.4965 9.87192 23.0531C6.60659 23.0531 3.33772 23.0531 0.00989223 23.0531C0.00989223 21.5672 -0.0278436 20.0967 0.0440903 18.6333C0.057062 18.3644 0.470977 18.0401 0.771685 17.875C1.94268 17.2359 3.15258 16.6663 4.33065 16.0389C5.31768 15.513 6.28584 14.9529 7.24928 14.3856C7.4981 14.2394 7.71862 14.0272 7.91791 13.8137C8.35659 13.3444 8.37192 12.9694 7.97923 12.4481C7.81532 12.23 7.62192 12.0295 7.41909 11.8444C5.96154 10.5154 5.29763 8.81253 5.08654 6.89744C5.02876 6.37149 4.99928 5.84083 4.97098 5.31135C4.88725 3.75593 5.52051 2.53423 6.71862 1.5755C9.26225 -0.462235 13.6007 -0.534169 16.2127 1.41866C17.5476 2.4163 18.2988 3.69932 18.1585 5.40687C18.0889 6.24649 18.017 7.08965 17.8766 7.91984C17.6243 9.41984 16.912 10.6887 15.8189 11.7453C15.6078 11.9493 15.392 12.1545 15.2092 12.3845C14.7328 12.9871 14.7552 13.3998 15.3189 13.9257C15.6431 14.2276 16.0146 14.4788 16.4663 14.8314C15.6196 14.8314 14.8825 14.8491 14.149 14.8172C13.991 14.8102 13.7988 14.6569 13.695 14.5177C13.0547 13.6569 13.0665 12.5555 13.7222 11.6038C13.8884 11.3632 14.0806 11.1297 14.3012 10.9387C15.8601 9.59437 16.3342 7.81253 16.5205 5.84791C16.6903 4.06017 15.9038 2.93871 14.3696 2.2571C12.1656 1.27833 10.0087 1.40333 7.96744 2.72527C7.02404 3.33729 6.54173 4.2064 6.6172 5.3656C6.71862 6.90333 6.82357 8.43989 7.78701 9.73588C8.12428 10.1899 8.52758 10.5991 8.92263 11.0083C10.32 12.454 10.3118 14.1073 8.70211 15.3172C7.504 16.2182 6.13725 16.9022 4.82121 17.6404C3.91437 18.1486 2.97098 18.5932 2.03348 19.0437C1.74102 19.184 1.64197 19.3644 1.6573 19.684C1.68324 20.2477 1.66437 20.8137 1.66437 21.4411Z" fill="#4C4C4C"/>
<path d="M17.9364 15.5142C21.848 15.5201 25.0025 18.6816 25.0001 22.5932C24.9977 26.5189 21.8185 29.6828 17.894 29.6651C13.9824 29.6474 10.8362 26.4788 10.8492 22.5684C10.861 18.6545 14.0237 15.5071 17.9364 15.5142ZM17.5555 27.1651C19.7536 27.1687 21.4058 26.0826 22.1275 24.3974C22.8409 22.73 22.486 20.7382 21.2489 19.4635C20.9187 19.1227 20.5437 19.0779 20.243 19.342C19.9294 19.6179 19.9305 20.0118 20.2666 20.3762C20.9223 21.0896 21.2041 21.9246 21.1393 22.8892C21.0319 24.5047 19.6027 25.8184 17.9317 25.8231C16.2489 25.8279 14.8091 24.5 14.71 22.8679C14.651 21.9021 14.94 21.0708 15.598 20.3609C15.9199 20.013 15.9199 19.6262 15.6227 19.3514C15.3291 19.0802 14.9435 19.1179 14.6157 19.4517C14.5579 19.5106 14.4989 19.5708 14.4482 19.6356C13.2607 21.1274 12.993 22.7724 13.7878 24.5047C14.5815 26.2394 16.0178 27.0861 17.5555 27.1651ZM17.2796 20.8031C17.2796 21.3609 17.2772 21.9198 17.2808 22.4776C17.2843 22.9505 17.5331 23.2359 17.9376 23.2406C18.3468 23.2453 18.618 22.9646 18.6216 22.4977C18.6286 21.3809 18.6298 20.2642 18.6204 19.1486C18.6168 18.6993 18.315 18.3986 17.9211 18.4151C17.5355 18.4304 17.2843 18.7194 17.2808 19.1639C17.2772 19.7099 17.2796 20.2559 17.2796 20.8031Z" fill="#4C4C4C"/>
<path d="M17.5558 27.1651C16.0168 27.0861 14.5817 26.2406 13.7857 24.5036C12.9909 22.7712 13.2586 21.1262 14.4461 19.6344C14.498 19.5696 14.5558 19.5095 14.6135 19.4505C14.9414 19.1168 15.327 19.079 15.6206 19.3503C15.919 19.6262 15.919 20.0118 15.5959 20.3597C14.9378 21.0708 14.6489 21.901 14.7079 22.8668C14.8069 24.4988 16.2468 25.8267 17.9296 25.822C19.5994 25.8172 21.0298 24.5047 21.1371 22.888C21.2008 21.9234 20.9202 21.0885 20.2645 20.375C19.9284 20.0095 19.9272 19.6168 20.2409 19.3408C20.5416 19.0767 20.9166 19.1215 21.2468 19.4623C22.485 20.7382 22.84 22.7288 22.1253 24.3962C21.406 26.0826 19.7539 27.1687 17.5558 27.1651Z" fill="white"/>
<path d="M17.2796 20.8031C17.2796 20.2571 17.2761 19.7099 17.2808 19.164C17.2843 18.7194 17.5355 18.4305 17.9211 18.4151C18.315 18.3986 18.6169 18.6993 18.6204 19.1486C18.6287 20.2654 18.6287 21.3821 18.6216 22.4977C18.618 22.9647 18.3468 23.2453 17.9376 23.2406C17.5331 23.2359 17.2843 22.9505 17.2808 22.4776C17.2772 21.9198 17.2796 21.3609 17.2796 20.8031Z" fill="white"/>
</svg>
