<?xml version="1.0" encoding="utf-8"?>
<!-- Generator: Adobe Illustrator 21.0.0, SVG Export Plug-In . SVG Version: 6.00 Build 0)  -->
<svg version="1.1" id="Layer_1" xmlns="http://www.w3.org/2000/svg" xmlns:xlink="http://www.w3.org/1999/xlink" x="0px" y="0px"
	 viewBox="0 0 26.5 26" style="enable-background:new 0 0 26.5 26;" xml:space="preserve">
<style type="text/css">
	.st0{fill:#FFFFFF;}
</style>
<path class="st0" d="M9.8,13.3c0.9,0,1.7,0.6,2,1.4c0.3,0.9,0,1.9-0.9,2.3c-0.3,0.2-0.4,0.4-0.4,0.8c0,0.3,0,0.7,0,1
	c0,0.4-0.3,0.6-0.7,0.6c-0.4,0-0.6-0.2-0.7-0.6c0-0.1,0-0.2,0-0.3c0-0.7,0.1-1.3-0.7-1.8c-0.7-0.4-0.8-1.4-0.5-2.3
	C8.2,13.8,8.9,13.3,9.8,13.3z M10.4,15.4c0-0.4-0.3-0.7-0.7-0.7c-0.4,0-0.7,0.3-0.6,0.7c0,0.4,0.3,0.6,0.7,0.6
	C10.2,16.1,10.4,15.8,10.4,15.4z"/>
<path class="st0" d="M22.5,11.4c1.3,1.3,2.7,2.7,4,4c-2.3,2.3-4.6,4.6-6.9,6.9c-1.3-1.3-2.7-2.7-4-4C17.9,16,20.2,13.7,22.5,11.4z"
	/>
<path class="st0" d="M13.5,20.2c1.4,1.4,2.8,2.8,4.2,4.2c-1.3,0-2.7,0-4.2,0C13.5,23,13.5,21.6,13.5,20.2z"/>
<path class="st0" d="M12,21.6c-0.7,0-1.5,0-2.2,0c-2,0-4,0-5.9,0c-0.7,0-0.9-0.2-0.9-0.9c0-2.8,0-5.6,0-8.4c0-0.7,0.2-0.9,0.9-0.9
	c4,0,7.9,0,11.9,0c0.7,0,0.9,0.2,0.9,0.9c0,0.6,0,1.3,0,1.9H18c0-0.8,0-1.5,0-2.3c0-0.9-0.6-1.7-1.6-1.9c-0.1,0-0.3-0.1-0.5-0.1
	c0-0.4,0-0.8,0-1.2c0-0.8,0-1.7-0.1-2.5c-0.5-3.2-3.4-5.3-6.7-5c-3,0.2-5.4,2.9-5.5,6c0,0.8,0,1.7,0,2.5c0,0.3-0.1,0.4-0.4,0.5
	c-1.2,0.3-1.7,1-1.7,2.2c0,2.8,0,5.6,0,8.4c0,1.6,0.8,2.4,2.4,2.4c2.5,0,4.9,0,7.4,0c0.2,0,0.5,0,0.7,0V21.6z M5.5,4.8
	C6.6,2.9,8.8,2,10.9,2.5C13,3,14.5,4.9,14.5,7.1c0,0.9,0,1.8,0,2.8c-3.2,0-6.4,0-9.6,0C5.1,8.2,4.6,6.4,5.5,4.8z"/>
</svg>
