<svg width="25" height="26" viewBox="0 0 25 26" fill="none" xmlns="http://www.w3.org/2000/svg">
<g clip-path="url(#clip0)">
<path d="M1.58235 20.3907C4.23017 20.3907 6.78826 20.3907 9.38784 20.3907C9.38784 20.9032 9.38784 21.3944 9.38784 21.9238C6.28247 21.9238 3.17373 21.9238 0.00891936 21.9238C0.00891936 20.5107 -0.026968 19.1122 0.0414422 17.7205C0.0537785 17.4648 0.447418 17.1564 0.733395 16.9994C1.84702 16.3915 2.99766 15.8499 4.11802 15.2532C5.05669 14.753 5.97743 14.2203 6.89368 13.6809C7.13031 13.5419 7.34002 13.34 7.52955 13.137C7.94674 12.6906 7.96132 12.334 7.58787 11.8383C7.43199 11.6309 7.24806 11.4402 7.05517 11.2641C5.66902 10.0002 5.03763 8.38081 4.83688 6.55953C4.78193 6.05935 4.7539 5.55468 4.72698 5.05114C4.64736 3.57191 5.24959 2.41006 6.38901 1.49829C8.80804 -0.439622 12.934 -0.508032 15.418 1.34914C16.6875 2.29791 17.4019 3.51808 17.2685 5.14198C17.2023 5.94047 17.1339 6.74233 17.0004 7.53185C16.7604 8.95837 16.0831 10.1651 15.0435 11.1699C14.8427 11.3639 14.6375 11.5591 14.4637 11.7778C14.0106 12.3508 14.0319 12.7434 14.568 13.2435C14.8764 13.5306 15.2296 13.7695 15.6592 14.1048C14.8539 14.1048 14.153 14.1217 13.4554 14.0914C13.3052 14.0846 13.1224 13.9389 13.0237 13.8065C12.4147 12.9878 12.4259 11.9404 13.0495 11.0353C13.2076 10.8066 13.3904 10.5845 13.6001 10.4028C15.0827 9.12435 15.5335 7.42979 15.7107 5.56141C15.8722 3.86125 15.1242 2.79472 13.6652 2.14651C11.5691 1.21568 9.51794 1.33456 7.57666 2.59173C6.67947 3.17378 6.22079 4.00031 6.29256 5.10273C6.38901 6.56513 6.48882 8.02642 7.40507 9.25892C7.72581 9.69069 8.10936 10.0798 8.48505 10.469C9.81401 11.8439 9.80616 13.4162 8.27534 14.5669C7.13592 15.4237 5.83612 16.0741 4.58455 16.7762C3.72214 17.2596 2.82495 17.6824 1.93338 18.1108C1.65525 18.2442 1.56105 18.4158 1.57563 18.7197C1.6003 19.2558 1.58235 19.7941 1.58235 20.3907Z" fill="#4C4C4C"/>
<path d="M20.493 11.152C21.9531 12.6077 23.494 14.1452 25.0002 15.6469C22.4253 18.2162 19.829 20.8045 17.253 23.3739C15.7839 21.8924 14.2508 20.3459 12.7671 18.8498C15.2949 16.3321 17.8911 13.746 20.493 11.152Z" fill="#4C4C4C"/>
<path d="M11.0352 20.578C12.5222 22.0673 14.025 23.5723 15.5155 25.0673C14.071 25.0673 12.5738 25.0673 11.0352 25.0673C11.0352 23.5533 11.0352 22.0415 11.0352 20.578Z" fill="#4C4C4C"/>
</g>
<defs>
<clipPath id="clip0">
<rect width="25" height="25.0662" fill="white"/>
</clipPath>
</defs>
</svg>
