<svg width="14" height="14" viewBox="0 0 14 14" fill="none" xmlns="http://www.w3.org/2000/svg">
<g clip-path="url(#clip0)">
<path d="M11.4998 6.99998C11.2237 6.99998 10.9998 7.22384 10.9998 7.49999V12.4999C10.9998 12.776 10.776 12.9999 10.4998 12.9999H1.49998C1.22383 12.9999 0.999977 12.776 0.999977 12.4999V2.50004C0.999977 2.22389 1.22383 2.00004 1.49998 2.00004H7.4999C7.77605 2.00004 7.9999 1.77618 7.9999 1.50003C7.9999 1.22389 7.77605 1.00006 7.4999 1.00006H1.49998C0.671564 1.00006 0 1.67162 0 2.50004V12.4999C0 13.3283 0.671564 13.9999 1.49998 13.9999H10.4999C11.3283 13.9999 11.9998 13.3283 11.9998 12.4999V7.49996C11.9998 7.22384 11.776 6.99998 11.4998 6.99998Z" fill="#4C4C4C"/>
<path d="M13.4393 0.560806C13.0803 0.201748 12.5934 7.13877e-05 12.0857 0.000129981C11.5776 -0.00133484 11.0902 0.200694 10.7322 0.561128L4.14624 7.14651C4.0916 7.20156 4.05038 7.26847 4.02574 7.34201L3.02576 10.342C2.93849 10.604 3.08014 10.8871 3.34214 10.9743C3.39297 10.9913 3.4462 10.9999 3.49975 11C3.55342 10.9999 3.60677 10.9913 3.65775 10.9745L6.65771 9.9745C6.73139 9.94989 6.79834 9.90847 6.85321 9.85351L13.4391 3.2676C14.1866 2.52018 14.1867 1.30831 13.4393 0.560806Z" fill="#4C4C4C"/>
</g>
<defs>
<clipPath id="clip0">
<rect width="14" height="14" fill="white"/>
</clipPath>
</defs>
</svg>
