<svg width="18" height="18" viewBox="0 0 18 18" fill="none" xmlns="http://www.w3.org/2000/svg">
<path d="M7 1.88715C7 2.9165 7.85779 3.77429 8.88715 3.77429C9.9165 3.77429 10.7743 2.9165 10.7743 1.88715C10.7743 0.857794 9.9165 -3.74953e-08 8.88715 -8.24898e-08C7.85779 -1.27484e-07 7 0.857794 7 1.88715Z" fill="#7D7D7D"/>
<path d="M7 9C7 10.0294 7.85779 10.8871 8.88715 10.8871C9.9165 10.8871 10.7743 10.0294 10.7743 9C10.7743 7.97065 9.9165 7.11285 8.88715 7.11285C7.85779 7.11285 7 7.97065 7 9Z" fill="#7D7D7D"/>
<path d="M7 16.1129C7 17.1422 7.85779 18 8.88714 18C9.9165 18 10.7743 17.1422 10.7743 16.1129C10.7743 15.0835 9.9165 14.2257 8.88715 14.2257C7.85779 14.2257 7 15.0835 7 16.1129Z" fill="#7D7D7D"/>
</svg>
