<svg width="18" height="18" viewBox="0 0 18 18" fill="none" xmlns="http://www.w3.org/2000/svg">
<g clip-path="url(#clip0)">
<path d="M8.13926 17.9495C4.52847 17.5451 1.6347 14.6586 1.22287 11.0479C0.68236 6.32662 4.35198 2.30769 8.95187 2.25621V0.138273C8.95187 0.0206101 9.09895 -0.0418984 9.19823 0.0316411L13.5591 3.23429C13.6327 3.28944 13.6327 3.39607 13.5591 3.45123L9.19823 6.65387C9.09895 6.72741 8.95187 6.66123 8.95187 6.54724V4.43298C5.71981 4.48446 3.13122 7.23483 3.35184 10.522C3.53937 13.3496 5.84483 15.6441 8.67242 15.8242C11.6692 16.0154 14.2173 13.8754 14.6732 11.0442C14.7578 10.5184 15.2174 10.136 15.7469 10.136C16.4051 10.136 16.9199 10.7206 16.8169 11.3714C16.1771 15.4051 12.4524 18.4312 8.13926 17.9495Z" fill="#7D7D7D"/>
</g>
<defs>
<clipPath id="clip0">
<rect width="18" height="18" fill="white" transform="matrix(-1 0 0 1 18 0)"/>
</clipPath>
</defs>
</svg>
